<svg id="buy" xmlns="http://www.w3.org/2000/svg" width="81.207" height="81.207" viewBox="0 0 81.207 81.207">
  <path id="Path_206" data-name="Path 206" d="M12.613,11H7.538A2.538,2.538,0,0,0,5,13.538v20.3a2.538,2.538,0,0,0,2.538,2.538h5.075a7.58,7.58,0,0,0,5.634-12.689A7.58,7.58,0,0,0,12.613,11Zm-2.538,5.075h2.538a2.538,2.538,0,1,1,0,5.075H10.075ZM12.613,31.3H10.075V26.226h2.538a2.538,2.538,0,1,1,0,5.075ZM37.99,11a2.538,2.538,0,0,0-2.538,2.538V28.764a2.538,2.538,0,0,1-5.075,0V13.538a2.538,2.538,0,0,0-5.075,0V28.764a7.613,7.613,0,0,0,15.226,0V13.538A2.538,2.538,0,0,0,37.99,11Zm21.436.277a2.538,2.538,0,0,0-3.406,1.134l-2.8,5.611-2.791-5.611a2.542,2.542,0,0,0-4.543,2.284l4.8,9.6V33.84a2.538,2.538,0,0,0,5.075,0V24.3l4.822-9.615a2.538,2.538,0,0,0-1.15-3.406Z" transform="translate(7.688 16.914)" fill="#e85869"/>
  <path id="Path_207" data-name="Path 207" d="M68.518,17.764H12.689A12.7,12.7,0,0,0,0,30.453v20.3A12.7,12.7,0,0,0,12.689,63.443h55.83A12.7,12.7,0,0,0,81.207,50.754v-20.3A12.7,12.7,0,0,0,68.518,17.764Zm7.613,32.99a7.613,7.613,0,0,1-7.613,7.613H12.689a7.613,7.613,0,0,1-7.613-7.613v-20.3a7.613,7.613,0,0,1,7.613-7.613h55.83a7.613,7.613,0,0,1,7.613,7.613ZM40.6,12.689a2.538,2.538,0,0,0,2.538-2.538V2.538a2.538,2.538,0,0,0-5.075,0v7.613A2.538,2.538,0,0,0,40.6,12.689Zm15.97-6.852L54.036,8.374a2.538,2.538,0,0,0,0,3.588,2.611,2.611,0,0,0,3.588,0l2.538-2.538a2.538,2.538,0,1,0-3.589-3.589Zm-31.94,0a2.538,2.538,0,0,0-3.588,3.578l2.538,2.538a2.606,2.606,0,0,0,3.588,0,2.538,2.538,0,0,0,0-3.588ZM43.141,78.669V71.056a2.538,2.538,0,0,0-5.075,0v7.613a2.538,2.538,0,0,0,5.075,0Zm15.226-2.558A2.51,2.51,0,0,0,60.162,71.8l-2.538-2.538a2.538,2.538,0,1,0-3.589,3.589l2.538,2.537A2.538,2.538,0,0,0,58.368,76.111ZM24.634,75.4l2.538-2.538a2.538,2.538,0,0,0-3.588-3.578l-2.538,2.538a2.538,2.538,0,0,0,0,3.588,2.571,2.571,0,0,0,3.588-.01Z" fill="#e85869"/>
</svg>
