<svg id="check-modal" xmlns="http://www.w3.org/2000/svg" width="70.371" height="70.371" viewBox="0 0 70.371 70.371">
  <path id="Path_7" data-name="Path 7" d="M64.388,32.194A32.194,32.194,0,1,1,32.194,0,32.194,32.194,0,0,1,64.388,32.194Z" transform="translate(67.374 2.995) rotate(90)" fill="#ffde95"/>
  <path id="Path_8" data-name="Path 8" d="M61.077,1047.662a35.2,35.2,0,1,0,0,49.781A35.236,35.236,0,0,0,61.077,1047.662Zm-3.319,3.319a30.507,30.507,0,1,1-43.143,0A30.472,30.472,0,0,1,57.758,1050.981Z" transform="translate(-1.001 -1037.367)" fill="#e85869"/>
  <path id="Path_9" data-name="Path 9" d="M35.558,1042.86a2.348,2.348,0,0,0-1.458.485L16.95,1056.207,9,1048.26a2.347,2.347,0,1,0-3.319,3.319l9.387,9.386a2.348,2.348,0,0,0,3.071.22l18.774-14.08a2.347,2.347,0,0,0-1.357-4.244Z" transform="translate(13.755 -1017.077)" fill="#e85869" fill-rule="evenodd"/>
</svg>
