<svg id="edit" xmlns="http://www.w3.org/2000/svg" width="10.916" height="13.601" viewBox="0 0 10.916 13.601">
  <path id="Path_35" data-name="Path 35" d="M14.229,14.3H4.681a.682.682,0,1,0,0,1.364h9.549a.682.682,0,0,0,0-1.364ZM4.681,12.931h.061l2.844-.259a1.364,1.364,0,0,0,.825-.389L14.55,6.145A1.31,1.31,0,0,0,14.5,4.3L12.633,2.428a1.364,1.364,0,0,0-1.814-.048L4.681,8.518a1.364,1.364,0,0,0-.389.825L4,12.188a.68.68,0,0,0,.682.743Zm7-9.549,1.862,1.862-1.364,1.33L10.355,4.747Z" transform="translate(-3.996 -2.058)"/>
</svg>
