<svg id="edit-1" xmlns="http://www.w3.org/2000/svg" width="15.323" height="15.322" viewBox="0 0 15.323 15.322">
  <path id="Path_179" data-name="Path 179" d="M46.335,41.4H38.491l6.415-6.415h0l2.052-2.052a1.246,1.246,0,0,0,0-1.763l-3.481-3.481a1.248,1.248,0,0,0-1.763,0l-9.349,9.349a1.243,1.243,0,0,0-.278.425c-.006.016-.012.031-.017.047a1.246,1.246,0,0,0-.07.409V41.4a1.248,1.248,0,0,0,1.246,1.246H46.335a.623.623,0,0,0,0-1.246ZM42.6,28.568l3.481,3.481-1.612,1.612L40.984,30.18Z" transform="translate(-32 -27.322)" fill="#083863"/>
</svg>
