<svg xmlns="http://www.w3.org/2000/svg" width="20.27" height="16.678" viewBox="0 0 20.27 16.678">
  <path id="eye-close" d="M10.135,13.029A4.6,4.6,0,0,1,5.609,8.693L2.287,6.053A10.888,10.888,0,0,0,1.124,7.863a1.081,1.081,0,0,0,0,.951,10.136,10.136,0,0,0,9.011,5.779,9.582,9.582,0,0,0,2.467-.341l-1.643-1.308a4.443,4.443,0,0,1-.823.085Zm9.939,1.893-3.5-2.783a10.745,10.745,0,0,0,2.573-3.325,1.081,1.081,0,0,0,0-.951,10.136,10.136,0,0,0-9.011-5.779A9.547,9.547,0,0,0,5.469,3.313L1.44.11A.5.5,0,0,0,.729.2l-.622.823A.531.531,0,0,0,.2,1.756L18.83,16.568a.5.5,0,0,0,.711-.092l.622-.823a.531.531,0,0,0-.089-.731ZM14.256,10.3l-1.245-.99a3.165,3.165,0,0,0,.165-.968,3.119,3.119,0,0,0-1.185-2.5,2.935,2.935,0,0,0-2.657-.506,1.582,1.582,0,0,1,.295.919,1.559,1.559,0,0,1-.049.326L7.248,4.727a4.432,4.432,0,0,1,2.887-1.079,4.5,4.5,0,0,1,3.226,1.373A4.757,4.757,0,0,1,14.7,8.339a4.687,4.687,0,0,1-.44,1.958Z" transform="translate(0 0)"/>
</svg>
