<svg id="image" xmlns="http://www.w3.org/2000/svg" width="19.383" height="14.319" viewBox="0 0 19.383 14.319">
  <g id="_Group_" data-name="&lt;Group&gt;" transform="translate(0.4 0.396)">
    <path id="_Group_2" data-name="&lt;Group&gt;" d="M51.2,259.159v1.7a1.245,1.245,0,0,1-1.245,1.245H33.905a1.245,1.245,0,0,1-1.245-1.245V255.33l6.171,3.458a2.13,2.13,0,0,0,2.39-.215l2.916-2.434a2.129,2.129,0,0,1,2.559-.109Z" transform="translate(-32.66 -248.615)" fill="#fdc75b"/>
    <path id="_Group_3" data-name="&lt;Group&gt;" d="M51.2,94.785v9.3l-4.5-3.129a2.129,2.129,0,0,0-2.559.109L41.221,103.5a2.13,2.13,0,0,1-2.39.215l-6.171-3.458v-5.47a1.245,1.245,0,0,1,1.245-1.245H49.954A1.245,1.245,0,0,1,51.2,94.785Zm-9.745,3.042a2.3,2.3,0,1,0-2.293,2.192A2.245,2.245,0,0,0,41.455,97.827Z" transform="translate(-32.66 -93.54)" fill="#ed664c"/>
    <g id="_Group_4" data-name="&lt;Group&gt;" transform="translate(4.208 2.095)">
      <path id="_Path_" data-name="&lt;Path&gt;" d="M136.344,144.01a2.195,2.195,0,1,1-2.294,2.192A2.245,2.245,0,0,1,136.344,144.01Z" transform="translate(-134.05 -144.01)" fill="#fdc75b"/>
    </g>
  </g>
  <g id="_Group_5" data-name="&lt;Group&gt;">
    <path id="_Compound_Path_" data-name="&lt;Compound Path&gt;" d="M42.383,85.66A1.66,1.66,0,0,0,40.723,84H24.66A1.66,1.66,0,0,0,23,85.66v11a1.66,1.66,0,0,0,1.66,1.66H40.723a1.66,1.66,0,0,0,1.66-1.66Zm-17.737-.83H40.7a.8.8,0,0,1,.816.811v8.505l-3.846-2.678a2.551,2.551,0,0,0-3.057.132L31.7,94.034a1.692,1.692,0,0,1-1.916.173l-5.95-3.339V85.641a.8.8,0,0,1,.816-.811ZM23.83,96.637V91.82l5.546,3.112a2.526,2.526,0,0,0,2.855-.258l2.912-2.432a1.709,1.709,0,0,1,2.051-.089l4.318,3.005v1.479a.8.8,0,0,1-.816.811H24.646a.8.8,0,0,1-.816-.811Z" transform="translate(-23 -84)"/>
    <path id="_Compound_Path_2" data-name="&lt;Compound Path&gt;" d="M126.759,139.225a2.609,2.609,0,1,0-2.709-2.607A2.662,2.662,0,0,0,126.759,139.225Zm0-4.385a1.78,1.78,0,1,1-1.879,1.777A1.832,1.832,0,0,1,126.759,134.84Z" transform="translate(-119.856 -131.934)"/>
  </g>
</svg>
