<svg xmlns="http://www.w3.org/2000/svg" width="17.314" height="20.019" viewBox="0 0 17.314 20.019">
  <g id="notification" transform="translate(1 1)">
    <path id="Path_31" data-name="Path 31" d="M0,10.618v-.2A3.243,3.243,0,0,1,.543,8.783,4.387,4.387,0,0,0,1.618,6.7c0-.6,0-1.209.052-1.81C1.941,2,4.8,0,7.622,0h.07c2.823,0,5.681,2,5.961,4.889.052.6,0,1.209.044,1.81a4.463,4.463,0,0,0,1.075,2.093,3.159,3.159,0,0,1,.542,1.63v.189a3.212,3.212,0,0,1-.76,2.153A4.058,4.058,0,0,1,11.983,14a40.6,40.6,0,0,1-8.661,0A4.1,4.1,0,0,1,.752,12.762,3.246,3.246,0,0,1,0,10.618Zm5.454,6.364a2.78,2.78,0,0,0,3.863.455,2.6,2.6,0,0,0,.472-.455" fill="none" stroke="#000" stroke-linecap="round" stroke-linejoin="round" stroke-width="2" fill-rule="evenodd"/>
  </g>
</svg>
