<svg id="payment-check" xmlns="http://www.w3.org/2000/svg" width="69" height="69" viewBox="0 0 69 69">
  <g id="Group_5984" data-name="Group 5984" transform="translate(-689 -297)">
    <g id="Ellipse_28" data-name="Ellipse 28" transform="translate(696 305)" fill="#e85869" stroke="#707070" stroke-width="1">
      <circle cx="27.5" cy="27.5" r="27.5" stroke="none"/>
      <circle cx="27.5" cy="27.5" r="27" fill="none"/>
    </g>
    <path id="Path_156" data-name="Path 156" d="M36.5,2A34.5,34.5,0,1,0,71,36.5,34.5,34.5,0,0,0,36.5,2ZM54.464,28.266,33.117,49.613a3.449,3.449,0,0,1-4.879,0l-9.7-9.7a3.45,3.45,0,1,1,4.878-4.879l7.264,7.264L49.586,23.387a3.45,3.45,0,1,1,4.878,4.879Z" transform="translate(687 295)" fill="#ffde95"/>
  </g>
</svg>
