<svg xmlns="http://www.w3.org/2000/svg" width="15.5" height="15.5" viewBox="0 0 15.5 15.5">
  <g id="time" transform="translate(0.25 0.25)">
    <path id="Path_148" data-name="Path 148" d="M15.5,1044.86a7,7,0,1,1-7-7,7,7,0,0,1,7,7Z" transform="translate(-1 -1037.36)" fill="#ffde95" stroke="#e85869" stroke-width="0.5"/>
    <path id="Path_149" data-name="Path 149" d="M8.5,1037.36a7.5,7.5,0,1,0,7.5,7.5A7.508,7.508,0,0,0,8.5,1037.36Zm0,1a6.5,6.5,0,1,1-6.5,6.5A6.492,6.492,0,0,1,8.5,1038.36Z" transform="translate(-1 -1037.36)" fill="#e85869" stroke="#e85869" stroke-width="0.5"/>
    <path id="Path_150" data-name="Path 150" d="M8.494,1039.86a.5.5,0,0,0-.494.51v4.492a.5.5,0,0,0,.5.5h4.494a.5.5,0,0,0,0-1H9v-3.992a.5.5,0,0,0-.506-.508Z" transform="translate(-1 -1037.36)" fill="#e85869" stroke="#e85869" stroke-width="0.5" fill-rule="evenodd"/>
  </g>
</svg>
