<svg xmlns="http://www.w3.org/2000/svg" width="22.833" height="17.5" viewBox="0 0 22.833 17.5">
  <g id="upload" transform="translate(0.75 0.75)">
    <path id="Path_172" data-name="Path 172" d="M17.333,12c-.047,0-.091.012-.136.013A6.667,6.667,0,1,0,4,10.667c0,.023.007.044.007.067A4.656,4.656,0,0,0,4.667,20H8.011a1.323,1.323,0,0,0,1.323-1.323V14.667H6.5l4.163-5.333,4.163,5.333H12v4.011A1.322,1.322,0,0,0,13.323,20h4.011a4,4,0,0,0,0-8Z" transform="translate(0 -4)" fill="#ffde95" stroke="#e85769" stroke-linecap="round" stroke-linejoin="round" stroke-width="1.5"/>
  </g>
</svg>
