<?xml version="1.0" standalone="no"?>
<!DOCTYPE svg PUBLIC "-//W3C//DTD SVG 1.1//EN" "http://www.w3.org/Graphics/SVG/1.1/DTD/svg11.dtd" >
<svg xmlns="http://www.w3.org/2000/svg" xmlns:xlink="http://www.w3.org/1999/xlink" version="1.1">
<metadata>
Created by FontForge 20190801 at Mon Jun 12 15:14:52 2017
 By www-data
Copyright 2017 Fontstore Pte Ltd. All rights reserved.
</metadata>
<defs>
<font id="NeurialGroteskLight" horiz-adv-x="600" >
  <font-face 
    font-family="NeurialGroteskLight"
    font-weight="300"
    font-stretch="normal"
    units-per-em="1000"
    panose-1="0 0 4 0 0 0 0 0 0 0"
    ascent="800"
    descent="-200"
    x-height="500"
    cap-height="700"
    bbox="-580 -238 1656 1039"
    underline-thickness="80"
    underline-position="-195"
    unicode-range="U+0020-FB03"
  />
<missing-glyph horiz-adv-x="589" 
d="M41 707h507v-707h-507v707z" />
    <glyph glyph-name="f_f" unicode="ff" horiz-adv-x="635" 
d="M545 677q-36 0 -49 -17t-13 -50v-110h128v-52h-128v-448h-58v448h-256v-448h-58v448h-90v52h90v110q0 64 31 92t92 28h63v-53h-66q-36 0 -49 -17t-13 -50v-110h256v110q0 64 31 92t92 28h63v-53h-66z" />
    <glyph glyph-name="fi" unicode="fi" horiz-adv-x="559" 
d="M482 500v-500h-57v448h-256v-448h-58v448h-90v52h90v110q0 64 31 92t92 28h63v-53h-66q-36 0 -49 -17t-13 -50v-110h313zM411 720h85v-78h-85v78z" />
    <glyph glyph-name="fl" unicode="fl" horiz-adv-x="531" 
d="M21 500h90v110q0 64 31 92t92 28h63v-53h-66q-36 0 -49 -17t-13 -50v-110h128v-52h-128v-448h-58v448h-90v52zM454 730v-730h-57v730h57z" />
    <glyph glyph-name="f_f_i" unicode="ffi" horiz-adv-x="873" 
d="M796 500v-500h-57v448h-256v-448h-58v448h-256v-448h-58v448h-90v52h90v110q0 64 31 92t92 28h63v-53h-66q-36 0 -49 -17t-13 -50v-110h256v110q0 64 31 92t92 28h63v-53h-66q-36 0 -49 -17t-13 -50v-110h313zM725 720h85v-78h-85v78z" />
    <glyph glyph-name=".notdef" horiz-adv-x="589" 
d="M41 707h507v-707h-507v707z" />
    <glyph glyph-name=".null" horiz-adv-x="0" 
 />
    <glyph glyph-name="nonmarkingreturn" horiz-adv-x="333" 
 />
    <glyph glyph-name="space" unicode=" " horiz-adv-x="200" 
 />
    <glyph glyph-name="exclam" unicode="!" horiz-adv-x="247" 
d="M90 500v200h64v-200q2 -148 -9 -297h-46q-9 127 -9 297zM77 0v93h93v-93h-93z" />
    <glyph glyph-name="quotedbl" unicode="&#x22;" horiz-adv-x="382" 
d="M80 588v112h66v-112q-4 -89 -14 -128h-38q-10 39 -14 128zM236 588v112h66v-112q-4 -89 -14 -128h-38q-10 39 -14 128z" />
    <glyph glyph-name="numbersign" unicode="#" horiz-adv-x="594" 
d="M544 445h-98l-44 -195h107l-11 -56h-109l-45 -194h-58l44 194h-138l-44 -194h-59l45 194h-94l11 56h96l44 195h-105l10 55h109l46 200h58l-45 -200h137l46 200h59l-46 -200h94zM206 250h138l44 195h-138z" />
    <glyph glyph-name="dollar" unicode="$" horiz-adv-x="616" 
d="M565 184q0 -84 -65 -136t-167 -57v-94h-59v95q-102 8 -160.5 61t-58.5 134h66q0 -65 50.5 -102.5t143.5 -37.5q77 0 131.5 37t54.5 102q0 57 -35 87.5t-103 42.5l-117 21q-89 16 -133 64t-44 122q0 77 56.5 127t148.5 58v92h59v-91q102 -5 161 -58.5t59 -137.5h-66
q0 65 -47 102.5t-134 37.5q-73 0 -123 -34.5t-50 -97.5q0 -55 32.5 -84t97.5 -41l117 -21q185 -33 185 -191z" />
    <glyph glyph-name="percent" unicode="%" horiz-adv-x="893" 
d="M188 349q-71 0 -109.5 49t-38.5 132q0 80 38.5 129.5t109.5 49.5q70 0 108.5 -48.5t38.5 -130.5t-38 -131.5t-109 -49.5zM191 0l435 700h70l-436 -700h-69zM188 401q89 0 89 129q0 127 -89 127q-90 0 -90 -127q0 -129 90 -129zM705 -10q-71 0 -109.5 49t-38.5 132
q0 80 38.5 129.5t109.5 49.5q69 0 108.5 -49t39.5 -130t-38.5 -131t-109.5 -50zM705 42q89 0 89 129q0 127 -89 127t-89 -127q0 -129 89 -129z" />
    <glyph glyph-name="ampersand" unicode="&#x26;" horiz-adv-x="755" 
d="M681 59h45v-59h-47q-45 0 -74 12t-56 43l-19 21q-86 -86 -218 -86q-103 0 -165.5 49t-62.5 133q0 116 150 200l23 13l-11 12q-84 94 -84 166q0 65 46.5 106t124.5 41q76 0 122.5 -39t46.5 -103q0 -92 -99 -155l-60 -38l185 -207q44 79 47 185h61q0 -133 -68 -230l25 -28
q32 -36 88 -36zM222 562q0 -33 17.5 -61.5t53.5 -69.5l14 -15l56 32q79 46 79 115q0 42 -30.5 67.5t-80.5 25.5q-51 0 -80 -26t-29 -68zM310 44q116 0 183 74l-201 227l-28 -17q-118 -71 -118 -157q0 -62 46.5 -94.5t117.5 -32.5z" />
    <glyph glyph-name="quotesingle" unicode="'" horiz-adv-x="226" 
d="M80 588v112h66v-112q-4 -89 -14 -128h-38q-10 39 -14 128z" />
    <glyph glyph-name="parenleft" unicode="(" horiz-adv-x="259" 
d="M60 351q0 109 32 216.5t85 172.5h57q-51 -66 -83 -173.5t-32 -215.5t32 -215t83 -174h-57q-53 65 -85 172.5t-32 216.5z" />
    <glyph glyph-name="parenright" unicode=")" horiz-adv-x="259" 
d="M140 351q0 108 -32 215.5t-83 173.5h57q53 -65 85 -172.5t32 -216.5t-32 -216.5t-85 -172.5h-57q51 67 83 174t32 215z" />
    <glyph glyph-name="asterisk" unicode="*" horiz-adv-x="320" 
d="M36 597l13 39l49 -16q30 -9 49 -25q-10 16 -10 53v52h43v-52q0 -38 -8 -53q18 16 47 25l49 16l16 -40l-50 -17q-36 -12 -56 -9q22 -12 42 -39l31 -42l-34 -24l-30 40q-21 28 -28 54q-3 -24 -26 -54l-30 -40l-37 24l32 42q21 28 42 39q-23 -3 -57 10z" />
    <glyph glyph-name="plus" unicode="+" 
d="M530 360v-60h-200v-200h-60v200h-200v60h200v200h60v-200h200z" />
    <glyph glyph-name="comma" unicode="," horiz-adv-x="217" 
d="M63 0v94h94v-94l-55 -112h-42l55 112h-52z" />
    <glyph glyph-name="hyphen" unicode="-" horiz-adv-x="413" 
d="M60 312h293v-59h-293v59z" />
    <glyph glyph-name="period" unicode="." horiz-adv-x="214" 
d="M60 0v94h94v-94h-94z" />
    <glyph glyph-name="slash" unicode="/" horiz-adv-x="324" 
d="M8 0l250 700h58l-250 -700h-58z" />
    <glyph glyph-name="zero" unicode="0" horiz-adv-x="650" 
d="M325 710q-132 0 -203.5 -96.5t-71.5 -263.5t71.5 -263.5t203.5 -96.5q131 0 203 96.5t72 263.5t-72 263.5t-203 96.5zM538 350q0 -142 -54 -224t-159 -82t-159 82t-54 224t54 224t159 82t159 -82t54 -224z" />
    <glyph glyph-name="one" unicode="1" horiz-adv-x="341" 
d="M242 0h-60v635l-165 -87v64l165 88h60v-700z" />
    <glyph glyph-name="two" unicode="2" horiz-adv-x="529" 
d="M110 59h375v-59h-455v56l272 261q64 61 89.5 104t25.5 89q0 69 -40 107.5t-119 38.5q-66 0 -111.5 -40.5t-49.5 -102.5h-65q7 90 72.5 143.5t152.5 53.5q100 0 161.5 -52t61.5 -144q0 -58 -31.5 -110.5t-96.5 -114.5z" />
    <glyph glyph-name="three" unicode="3" horiz-adv-x="563" 
d="M381 363q64 -17 98 -65t34 -111q0 -90 -64 -143.5t-174 -53.5q-109 0 -173 55t-64 146h65q0 -68 44.5 -107.5t126.5 -39.5q81 0 128 39t47 105q0 67 -46.5 106t-127.5 39h-48v58h46q76 0 116 36.5t40 98.5q0 61 -41.5 95.5t-113.5 34.5q-82 0 -126.5 -39.5t-44.5 -107.5
h-65q0 91 64 146t173 55q99 0 158.5 -50t59.5 -134q0 -53 -28 -97t-84 -66z" />
    <glyph glyph-name="four" unicode="4" horiz-adv-x="562" 
d="M375 0v152h-350v54l340 494h70v-491h107v-57h-107v-152h-60zM95 209h280v407z" />
    <glyph glyph-name="five" unicode="5" horiz-adv-x="537" 
d="M271 467q104 0 167.5 -65.5t63.5 -172.5q0 -110 -65.5 -174.5t-170.5 -64.5q-92 0 -156.5 51t-74.5 134h65q10 -63 54.5 -97t111.5 -34q79 0 126.5 51.5t47.5 135.5q0 82 -47 132t-124 50q-102 0 -153 -82h-66l65 369h361v-58h-315l-43 -231q23 25 64.5 40.5t88.5 15.5z
" />
    <glyph glyph-name="six" unicode="6" horiz-adv-x="590" 
d="M309 482q103 0 171 -66t68 -179q0 -111 -66.5 -179t-172.5 -68q-121 0 -190 88t-69 263q0 172 72.5 270.5t205.5 98.5q78 0 140.5 -41.5t81.5 -120.5h-65q-42 106 -165 106q-101 0 -152.5 -75.5t-56.5 -212.5q24 53 76.5 84.5t121.5 31.5zM310 46q82 0 129 55t47 136
q0 82 -47 135.5t-130 53.5q-81 0 -131.5 -51.5t-50.5 -134.5t50.5 -138.5t132.5 -55.5z" />
    <glyph glyph-name="seven" unicode="7" horiz-adv-x="480" 
d="M393 641h-383v59h456v-56q-103 -139 -178.5 -312.5t-101.5 -331.5h-62q30 167 102.5 340t166.5 301z" />
    <glyph glyph-name="eight" unicode="8" 
d="M427 378q59 -22 93.5 -73.5t34.5 -113.5q0 -88 -70 -144.5t-185 -56.5t-185 56.5t-70 144.5q0 62 34.5 113.5t93.5 73.5q-98 48 -98 152q0 83 62 131.5t163 48.5t163 -48.5t62 -131.5q0 -104 -98 -152zM135 530q0 -60 44.5 -95.5t120.5 -35.5t120.5 35.5t44.5 95.5
t-44.5 94t-120.5 34t-120.5 -34t-44.5 -94zM300 46q89 0 141 39.5t52 108.5q0 71 -52 112t-141 41t-141 -41t-52 -112q0 -69 52 -108.5t141 -39.5z" />
    <glyph glyph-name="nine" unicode="9" horiz-adv-x="588" 
d="M280 710q120 0 189 -93t69 -273q0 -76 -13 -137t-42 -111.5t-80.5 -78t-122.5 -27.5q-85 0 -146.5 45t-78.5 117h65q41 -106 161 -106q51 0 90 20.5t62 56t34 79t11 93.5q0 12 -2 38q-24 -53 -76 -84t-121 -31q-103 0 -171 66t-68 179q0 111 66.5 179t173.5 68zM459 460
q2 83 -48.5 138.5t-132.5 55.5t-129 -55t-47 -136q0 -82 47 -135.5t130 -53.5q81 0 129.5 51t50.5 135z" />
    <glyph glyph-name="colon" unicode=":" horiz-adv-x="214" 
d="M60 406v94h94v-94h-94zM60 0v94h94v-94h-94z" />
    <glyph glyph-name="semicolon" unicode=";" horiz-adv-x="217" 
d="M63 406v94h94v-94h-94zM63 0v94h94v-94l-55 -112h-42l55 112h-52z" />
    <glyph glyph-name="less" unicode="&#x3c;" 
d="M496 573v-69l-337 -178l337 -176v-68l-396 210v70z" />
    <glyph glyph-name="equal" unicode="=" 
d="M109 465h382v-59h-382v59zM109 256h382v-59h-382v59z" />
    <glyph glyph-name="greater" unicode="&#x3e;" 
d="M104 82v69l337 178l-337 176v68l396 -210v-70z" />
    <glyph glyph-name="question" unicode="?" horiz-adv-x="492" 
d="M36 525q0 80 58.5 132.5t148.5 52.5q88 0 142.5 -51.5t54.5 -130.5q0 -46 -19.5 -82.5t-47.5 -61.5t-56 -48t-47.5 -53t-19.5 -65h-58q0 44 19 79.5t46 59.5t54 47t46 55t19 71q0 58 -38.5 91t-97.5 33q-66 0 -103 -37t-37 -92h-64zM174 0v94h95v-94h-95z" />
    <glyph glyph-name="at" unicode="@" horiz-adv-x="854" 
d="M460 709q151 0 252.5 -90t101.5 -235q0 -115 -52.5 -185.5t-132.5 -70.5q-51 0 -82 23.5t-35 65.5q-16 -31 -50 -52t-77 -21q-59 0 -97.5 41.5t-38.5 118.5q0 86 49.5 150.5t128.5 64.5q45 0 76 -21.5t39 -57.5l18 55h42l-44 -210q-11 -56 9.5 -85t65.5 -29q57 0 91.5 60
t34.5 152q0 123 -82 202t-215 79q-159 0 -262 -110.5t-103 -267.5q0 -131 76 -217.5t217 -86.5q94 0 186 43l19 -41q-92 -47 -201 -47q-165 0 -259.5 98.5t-94.5 252.5q0 178 121 299.5t299 121.5zM391 188q46 0 77.5 35t43.5 97q14 68 -7 112t-75 44q-60 0 -91.5 -54
t-31.5 -119q0 -115 84 -115z" />
    <glyph glyph-name="A" unicode="A" horiz-adv-x="639" 
d="M563 0l-71 185h-346l-71 -185h-63l273 700h70l272 -700h-64zM169 243h300l-150 389z" />
    <glyph glyph-name="B" unicode="B" horiz-adv-x="659" 
d="M487 363q58 -19 91.5 -64.5t33.5 -109.5q0 -86 -59 -137.5t-161 -51.5h-310v700h283q103 0 162 -48.5t59 -129.5q0 -106 -99 -159zM524 515q0 61 -41 94.5t-118 33.5h-222v-255h237q66 0 105 33.5t39 93.5zM381 57q83 0 125 36.5t42 99.5q0 65 -41 102t-115 37h-249v-275
h238z" />
    <glyph glyph-name="C" unicode="C" horiz-adv-x="740" 
d="M379 49q175 0 243 163h68q-35 -103 -114 -162t-197 -59q-146 0 -237.5 99.5t-91.5 256.5q0 159 91.5 261t237.5 102q118 0 197.5 -58.5t113.5 -162.5h-68q-68 163 -243 163q-121 0 -193 -84.5t-72 -219.5q0 -134 72 -216.5t193 -82.5z" />
    <glyph glyph-name="D" unicode="D" horiz-adv-x="701" 
d="M82 0h219q167 0 258.5 96t91.5 254t-91.5 254t-258.5 96h-219v-700zM143 59v582h171q127 0 200 -79t73 -212q0 -132 -73 -211t-200 -80h-171z" />
    <glyph glyph-name="E" unicode="E" horiz-adv-x="594" 
d="M143 59h411v-59h-472v700h451v-59h-390v-259h312v-58h-312v-265z" />
    <glyph glyph-name="F" unicode="F" horiz-adv-x="562" 
d="M532 641h-389v-270h353v-58h-353v-313h-61v700h450v-59z" />
    <glyph glyph-name="G" unicode="G" horiz-adv-x="758" 
d="M395 374h299v-375h-48l-13 123q-37 -64 -104 -97.5t-148 -33.5q-147 0 -239 99.5t-92 256.5q0 159 92 261t239 102q120 0 201.5 -59.5t110.5 -161.5h-68q-62 163 -244 163q-121 0 -194 -84.5t-73 -219.5q0 -134 73 -216.5t194 -82.5q91 0 166 55.5t85 159.5v52h-237v58z
" />
    <glyph glyph-name="H" unicode="H" horiz-adv-x="703" 
d="M560 325h-417v-325h-61v700h61v-316h417v316h61v-700h-61v325z" />
    <glyph glyph-name="I" unicode="I" horiz-adv-x="225" 
d="M143 700v-700h-61v700h61z" />
    <glyph glyph-name="J" unicode="J" horiz-adv-x="533" 
d="M90 190q0 -64 41.5 -103t109.5 -39q69 0 110 39.5t41 112.5v500h61v-500q0 -94 -58.5 -152t-153.5 -58t-153 55t-58 145h60z" />
    <glyph glyph-name="K" unicode="K" horiz-adv-x="621" 
d="M82 0v700h60v-440l382 440h73l-267 -305l287 -395h-74l-254 348l-147 -164v-184h-60z" />
    <glyph glyph-name="L" unicode="L" horiz-adv-x="539" 
d="M143 59h366v-59h-427v700h61v-641z" />
    <glyph glyph-name="M" unicode="M" horiz-adv-x="857" 
d="M428 71l280 629h67v-700h-61v425q0 95 8 157l-264 -582h-62l-260 582q5 -41 7 -157v-425h-61v700h65z" />
    <glyph glyph-name="N" unicode="N" horiz-adv-x="704" 
d="M82 0v700h67l415 -607v607h58v-700h-65l-417 607v-607h-58z" />
    <glyph glyph-name="O" unicode="O" horiz-adv-x="760" 
d="M381 -9q-147 0 -239 99.5t-92 256.5q0 159 92 261t239 102t238 -102t91 -261q0 -157 -91 -256.5t-238 -99.5zM381 49q121 0 193 82.5t72 216.5q0 135 -72 219.5t-193 84.5t-194 -84.5t-73 -219.5q0 -134 73 -216.5t194 -82.5z" />
    <glyph glyph-name="P" unicode="P" horiz-adv-x="630" 
d="M82 0v700h266q114 0 178 -63t64 -157t-64 -156.5t-178 -62.5h-205v-261h-61zM143 319h217q79 0 122.5 43.5t43.5 115.5q0 73 -44 118.5t-122 45.5h-217v-323z" />
    <glyph glyph-name="Q" unicode="Q" horiz-adv-x="764" 
d="M673 57h54v-57h-60q-36 0 -58.5 10.5t-39.5 36.5q-79 -56 -188 -56q-147 0 -239 99.5t-92 256.5q0 159 92 261t239 102t238 -102t91 -261q0 -160 -93 -259q11 -19 22 -25t34 -6zM114 348q0 -134 73 -216.5t194 -82.5q93 0 161 52l-17 34q-12 24 -23 34t-33 10h-75v55h94
q10 0 18.5 -1t16 -4.5t13 -6t11 -8.5t8.5 -9t7.5 -11t6 -10.5t6 -11t5.5 -10.5l7 -14q59 79 59 200q0 135 -72 219.5t-193 84.5t-194 -84.5t-73 -219.5z" />
    <glyph glyph-name="R" unicode="R" horiz-adv-x="642" 
d="M82 0v700h271q117 0 179.5 -58.5t62.5 -159.5q0 -81 -44.5 -137.5t-127.5 -73.5l155 -271h-71l-152 264h-213v-264h-60zM142 322h220q82 0 125.5 41.5t43.5 118.5t-43.5 118.5t-125.5 41.5h-220v-320z" />
    <glyph glyph-name="S" unicode="S" horiz-adv-x="589" 
d="M545 184q0 -89 -72 -141.5t-182 -52.5q-118 0 -187 54t-69 143h66q0 -65 50.5 -102.5t143.5 -37.5q77 0 131.5 37t54.5 102q0 57 -35 87.5t-103 42.5l-117 21q-89 16 -133 64t-44 122q0 85 68 136t174 51q111 0 176.5 -54t65.5 -143h-66q0 65 -47 102.5t-134 37.5
q-73 0 -123 -34.5t-50 -97.5q0 -55 32.5 -84t97.5 -41l117 -21q185 -33 185 -191z" />
    <glyph glyph-name="T" unicode="T" horiz-adv-x="605" 
d="M332 641v-641h-60v641h-248v59h557v-59h-249z" />
    <glyph glyph-name="U" unicode="U" horiz-adv-x="691" 
d="M137 700v-436q0 -103 54 -159.5t154 -56.5t154 56.5t54 159.5v436h61v-443q0 -121 -74 -194t-195 -73t-194.5 72.5t-73.5 194.5v443h60z" />
    <glyph glyph-name="V" unicode="V" horiz-adv-x="670" 
d="M335 72l259 628h64l-289 -700h-70l-287 700h67z" />
    <glyph glyph-name="W" unicode="W" horiz-adv-x="952" 
d="M221 0l-203 700h63l178 -615l183 615h64l185 -618l180 618h63l-209 -700h-70l-183 604l-181 -604h-70z" />
    <glyph glyph-name="X" unicode="X" horiz-adv-x="609" 
d="M593 0h-76l-214 304l-213 -304h-71l244 351l-247 349h76l214 -304l213 304h71l-244 -351z" />
    <glyph glyph-name="Y" unicode="Y" horiz-adv-x="609" 
d="M275 235l-260 465h75l217 -399l214 399h73l-259 -465v-235h-60v235z" />
    <glyph glyph-name="Z" unicode="Z" horiz-adv-x="576" 
d="M109 59h432v-59h-506v56l417 585h-407v59h481v-56z" />
    <glyph glyph-name="bracketleft" unicode="[" horiz-adv-x="281" 
d="M77 750h179v-44h-121v-712h121v-44h-179v800z" />
    <glyph glyph-name="backslash" unicode="\" horiz-adv-x="324" 
d="M316 0h-58l-250 700h58z" />
    <glyph glyph-name="bracketright" unicode="]" horiz-adv-x="281" 
d="M146 -6v712h-121v44h179v-800h-179v44h121z" />
    <glyph glyph-name="asciicircum" unicode="^" 
d="M130 456l136 244h70l135 -244h-63l-107 193l-107 -193h-64z" />
    <glyph glyph-name="underscore" unicode="_" horiz-adv-x="458" 
d="M0 -34h458v-56h-458v56z" />
    <glyph glyph-name="grave" unicode="`" horiz-adv-x="173" 
d="M163 588h-61l-92 122h78z" />
    <glyph glyph-name="a" unicode="a" horiz-adv-x="556" 
d="M508 47h17v-47h-39q-72 0 -76 73q-22 -37 -71.5 -60t-110.5 -23q-83 0 -131.5 41t-48.5 111q0 143 194 143h168v30q0 75 -38 110t-104 35q-64 0 -100.5 -27.5t-40.5 -77.5h-59q7 74 62 114.5t140 40.5q97 0 147.5 -52t50.5 -141v-227q0 -26 8 -34.5t32 -8.5zM233 40
q73 0 125 43.5t52 128.5v25h-168q-134 0 -134 -96q0 -49 34 -75t91 -26z" />
    <glyph glyph-name="b" unicode="b" horiz-adv-x="622" 
d="M326 510q100 0 170 -70t70 -191t-69.5 -190t-170.5 -69q-60 0 -111.5 24.5t-80.5 70.5l-9 -85h-48v730h58v-322q29 49 79.5 75.5t111.5 26.5zM321 40q82 0 133.5 56t51.5 153t-51 153.5t-134 57.5q-79 1 -132 -58t-53 -155t52.5 -151.5t132.5 -55.5z" />
    <glyph glyph-name="c" unicode="c" horiz-adv-x="571" 
d="M462 345q-22 54 -65 84.5t-99 30.5q-81 0 -131.5 -54t-50.5 -155q0 -100 50.5 -154t131.5 -54q59 0 103.5 32t65.5 90h61q-23 -79 -84 -126t-147 -47q-108 0 -174.5 71t-66.5 188t66.5 188t174.5 71q84 0 144.5 -43.5t84.5 -121.5h-64z" />
    <glyph glyph-name="d" unicode="d" horiz-adv-x="623" 
d="M488 730h58v-730h-48l-10 91q-29 -48 -81 -74.5t-111 -26.5q-101 0 -170.5 68t-69.5 189q0 122 70 192.5t170 70.5q61 0 112 -26t80 -73v319zM301 40q80 0 132.5 55.5t52.5 151.5t-53 154.5t-132 57.5q-83 -1 -134 -58.5t-51 -153.5t51 -151.5t134 -55.5z" />
    <glyph glyph-name="e" unicode="e" horiz-adv-x="597" 
d="M540 265v-32h-419q2 -92 53.5 -141.5t130.5 -49.5q58 0 103 29t66 83h59q-24 -75 -83.5 -118.5t-144.5 -43.5q-110 0 -177 71t-67 188t66.5 188t175.5 71q106 0 171.5 -67.5t65.5 -177.5zM303 461q-74 0 -123.5 -46t-57.5 -133h358q-5 86 -53.5 132.5t-123.5 46.5z" />
    <glyph glyph-name="f" unicode="f" horiz-adv-x="321" 
d="M21 500h90v110q0 64 31 92t92 28h63v-53h-66q-36 0 -49 -17t-13 -50v-110h128v-52h-128v-448h-58v448h-90v52z" />
    <glyph glyph-name="g" unicode="g" horiz-adv-x="597" 
d="M472 500h48v-486q0 -101 -62.5 -162.5t-166.5 -61.5q-86 0 -145 44t-75 118h63q14 -54 56 -83t101 -29q82 0 127 44.5t45 120.5v111q-23 -50 -73 -78t-111 -28q-95 0 -159 67t-64 182q0 116 63.5 183.5t159.5 67.5q59 0 108.5 -26.5t74.5 -74.5zM285 60q79 0 127 53.5
t48 144.5t-48 147t-127 56q-78 0 -123.5 -56t-45.5 -147t45.5 -144.5t123.5 -53.5z" />
    <glyph glyph-name="h" unicode="h" horiz-adv-x="571" 
d="M308 510q82 0 137 -50t55 -160v-300h-58v289q0 166 -142 166q-79 0 -122.5 -50.5t-43.5 -130.5v-274h-57v730h57v-312q23 43 71 67.5t103 24.5z" />
    <glyph glyph-name="i" unicode="i" horiz-adv-x="211" 
d="M63 622v78h85v-78h-85zM77 0v500h57v-500h-57z" />
    <glyph glyph-name="j" unicode="j" horiz-adv-x="221" 
d="M73 622v78h85v-78h-85zM144 -82q0 -56 -30 -87t-79 -31h-66v53h56q62 0 62 66v581h57v-582z" />
    <glyph glyph-name="k" unicode="k" horiz-adv-x="491" 
d="M77 0v730h57v-496l264 266h74l-218 -221l220 -279h-72l-188 239l-80 -82v-157h-57z" />
    <glyph glyph-name="l" unicode="l" horiz-adv-x="211" 
d="M134 730v-730h-57v730h57z" />
    <glyph glyph-name="m" unicode="m" horiz-adv-x="853" 
d="M604 510q85 0 131.5 -52t46.5 -140v-318h-59v310q0 145 -127 145q-59 0 -98 -39.5t-41 -115.5v-300h-57v304q0 73 -32.5 112t-93.5 39q-66 0 -103 -40t-37 -108v-307h-57v500h47l10 -61q20 35 58 53t82 18q123 0 167 -101q22 50 67 75.5t96 25.5z" />
    <glyph glyph-name="n" unicode="n" horiz-adv-x="571" 
d="M303 510q92 0 144.5 -56.5t52.5 -153.5v-300h-58v289q0 82 -40 124t-108 42q-77 0 -118.5 -50t-41.5 -131v-274h-57v500h47l9 -84q22 46 66.5 70t103.5 24z" />
    <glyph glyph-name="o" unicode="o" horiz-adv-x="612" 
d="M56 249q0 116 68.5 188.5t181.5 72.5t181.5 -72.5t68.5 -188.5q0 -115 -69 -187t-181 -72t-181 72t-69 187zM116 250q0 -95 52 -152t138 -57t138 57t52 152q0 96 -52 153t-138 57t-138 -57t-52 -153z" />
    <glyph glyph-name="p" unicode="p" horiz-adv-x="622" 
d="M326 510q100 0 170 -70t70 -191t-69.5 -190t-170.5 -69q-60 0 -112 25t-80 72v-287h-57v700h48l9 -90q29 48 80.5 74t111.5 26zM321 40q82 0 133.5 56t51.5 153t-51 153.5t-134 57.5q-79 1 -132 -58t-53 -155t52.5 -151.5t132.5 -55.5z" />
    <glyph glyph-name="q" unicode="q" horiz-adv-x="623" 
d="M498 500h48v-700h-58v287q-28 -47 -80 -72t-112 -25q-101 0 -170.5 68t-69.5 189q0 122 70 192.5t170 70.5q59 0 111 -26.5t81 -74.5zM301 40q80 0 132.5 55.5t52.5 151.5t-53 154.5t-132 57.5q-83 -1 -134 -58.5t-51 -153.5t51 -151.5t134 -55.5z" />
    <glyph glyph-name="r" unicode="r" horiz-adv-x="357" 
d="M268 500h61v-55h-62q-65 0 -99 -42.5t-34 -118.5v-284h-57v500h47l9 -79q17 35 54.5 57t80.5 22z" />
    <glyph glyph-name="s" unicode="s" horiz-adv-x="506" 
d="M46 143h60q2 -49 40.5 -76.5t104.5 -27.5t104.5 25.5t38.5 70.5q0 38 -20.5 58.5t-65.5 26.5l-107 16q-142 21 -142 134q0 63 52.5 101.5t133.5 38.5q87 0 141.5 -40t55.5 -113h-58q-1 50 -39 77t-99 27q-59 0 -95 -24t-36 -67q0 -36 23 -55.5t74 -26.5l106 -16
q68 -10 101 -42t33 -90q0 -70 -56 -110t-143 -40q-97 0 -151 41t-56 112z" />
    <glyph glyph-name="t" unicode="t" horiz-adv-x="324" 
d="M218 0q-51 0 -81.5 28.5t-30.5 86.5v333h-95v52h52q24 0 33.5 10t9.5 32v86h57v-128h119v-52h-119v-330q0 -65 63 -65h55v-53h-63z" />
    <glyph glyph-name="u" unicode="u" horiz-adv-x="561" 
d="M427 500h57v-500h-47l-9 84q-22 -46 -65.5 -70t-99.5 -24q-89 0 -140.5 57t-51.5 153v300h58v-289q0 -82 39 -124t104 -42q74 0 114.5 50t40.5 131v274z" />
    <glyph glyph-name="v" unicode="v" horiz-adv-x="513" 
d="M76 500l181 -429l182 429h62l-215 -500h-59l-215 500h64z" />
    <glyph glyph-name="w" unicode="w" horiz-adv-x="765" 
d="M83 500l126 -435l147 435h58l147 -435l122 435h59l-146 -500h-68l-146 424l-142 -424h-68l-150 500h61z" />
    <glyph glyph-name="x" unicode="x" horiz-adv-x="488" 
d="M18 0l185 251l-185 249h69l157 -216l157 216h69l-185 -249l185 -251h-69l-157 218l-157 -218h-69z" />
    <glyph glyph-name="y" unicode="y" horiz-adv-x="492" 
d="M76 500l178 -475l164 476l62 -1l-210 -582q-25 -68 -61 -93t-94 -25h-89v53h91q46 0 71.5 25.5t25.5 74.5q0 23 -9 47l-193 500h64z" />
    <glyph glyph-name="z" unicode="z" horiz-adv-x="487" 
d="M119 52h321v-52h-389v50l318 398h-322v52h389v-50z" />
    <glyph glyph-name="braceleft" unicode="{" horiz-adv-x="272" 
d="M147 639v-206q0 -53 -58 -83q59 -33 59 -82v-199q0 -72 57 -73l41 -1v-44l-50 1q-50 1 -78 31t-28 79v197q0 59 -70 64v54q69 5 69 64v202q0 49 30 78t83 29h44v-44h-39q-60 0 -60 -67z" />
    <glyph glyph-name="bar" unicode="|" horiz-adv-x="287" 
d="M110 -80v850h67v-850h-67z" />
    <glyph glyph-name="braceright" unicode="}" horiz-adv-x="271" 
d="M75 749q50 -1 78 -31t28 -79v-197q0 -59 70 -64v-54q-69 -5 -69 -64v-202q0 -49 -30 -78t-83 -29h-44v44h39q60 0 60 67v206q0 53 58 83q-59 33 -59 82v199q0 72 -57 73l-41 1v44z" />
    <glyph glyph-name="asciitilde" unicode="~" 
d="M316 336l15 -12t14 -11t12 -8.5t13.5 -7.5t13 -3.5t16.5 -1.5q26 0 41 19.5t15 53.5h56q0 -59 -31 -96t-81 -37q-17 0 -31.5 3t-28.5 11t-20.5 12t-21.5 16.5t-17 14.5q-4 3 -15.5 13t-16.5 13.5t-14.5 9.5t-18 8t-18.5 2q-25 0 -40.5 -20t-15.5 -53h-55q0 59 31 96
t80 37q17 0 32.5 -4t28.5 -11.5t21 -13.5t20.5 -16.5t15.5 -13.5z" />
    <glyph glyph-name="exclamdown" unicode="&#xa1;" horiz-adv-x="247" 
d="M77 700h93v-93h-93v93zM92 200q0 170 9 297h46q11 -149 9 -297v-200h-64v200z" />
    <glyph glyph-name="cent" unicode="&#xa2;" horiz-adv-x="552" 
d="M513 269q-21 -73 -74.5 -119t-129.5 -53v-97h-59v98q-95 11 -152 79t-57 173t57 173t152 79v98h59v-97q74 -7 127 -51t75 -113h-64q-22 54 -65 84.5t-99 30.5q-80 0 -131 -53.5t-51 -150.5t51 -150t131 -53q58 0 102 32t65 90h63z" />
    <glyph glyph-name="sterling" unicode="&#xa3;" horiz-adv-x="587" 
d="M481 143h66q0 -143 -154 -143h-341v56q110 52 110 158q0 55 -22 107h-100v56h74q-41 86 -41 153q0 82 59 131t157 49q100 0 163.5 -42.5t63.5 -131.5h-66q0 60 -45.5 89t-119.5 29q-71 0 -110.5 -34.5t-39.5 -91.5q0 -13 2.5 -27.5t4.5 -23.5t9 -27t9 -22.5t12.5 -26.5
t11.5 -24h220l-6 -56h-191q19 -54 19 -107q0 -99 -78 -155h245q46 0 67 19.5t21 64.5z" />
    <glyph glyph-name="currency" unicode="&#xa4;" horiz-adv-x="615" 
d="M534 340q0 -80 -49 -140l70 -69l-41 -40l-69 69q-62 -47 -138 -47q-77 0 -137 47l-70 -69l-40 40l69 69q-48 62 -48 140t48 140l-69 69l40 40l70 -69q60 47 137 47q76 0 138 -47l69 69l41 -40l-70 -69q49 -60 49 -140zM307 167q72 0 121 50.5t49 122.5t-49 122.5
t-121 50.5q-71 0 -120 -50.5t-49 -122.5t49 -122.5t120 -50.5z" />
    <glyph glyph-name="yen" unicode="&#xa5;" horiz-adv-x="609" 
d="M15 700h75l216 -338l214 338h74l-229 -349h176v-58h-206v-97h206v-58h-206v-138h-60v138h-206v58h206v97h-206v58h176z" />
    <glyph glyph-name="brokenbar" unicode="&#xa6;" horiz-adv-x="287" 
d="M110 420v350h67v-350h-67zM110 -80v350h67v-350h-67z" />
    <glyph glyph-name="section" unicode="&#xa7;" horiz-adv-x="465" 
d="M324 241q84 -34 84 -117q0 -65 -50.5 -99.5t-128.5 -34.5q-84 0 -135 40t-53 106h55q2 -47 35.5 -73.5t95.5 -26.5q57 0 91.5 22.5t34.5 64.5q0 64 -81 82l-84 20q-135 31 -135 126q0 40 23 69.5t66 41.5q-89 34 -89 113q0 61 46 98t123 37q79 0 127 -40t50 -105h-53
q-2 45 -34.5 72t-88.5 27q-53 0 -84.5 -24t-31.5 -65q0 -35 23 -52.5t69 -27.5l83 -18q126 -28 126 -128q0 -83 -84 -108zM107 351q0 -35 22.5 -52t69.5 -27q76 -13 115 9.5t39 66.5q0 63 -81 81q-84 13 -124.5 -10t-40.5 -68z" />
    <glyph glyph-name="dieresis" unicode="&#xa8;" horiz-adv-x="331" 
d="M30 605v77h84v-77h-84zM199 605v77h84v-77h-84z" />
    <glyph glyph-name="copyright" unicode="&#xa9;" horiz-adv-x="801" 
d="M401 710q-150 0 -255.5 -105t-105.5 -254t106 -255t255 -106q147 0 253.5 106.5t106.5 254.5q0 149 -106 254t-254 105zM710 351q0 -126 -91.5 -218t-217.5 -92q-127 0 -218.5 91.5t-91.5 218.5q0 126 91.5 217t218.5 91q125 0 217 -91.5t92 -216.5zM200 350
q0 93 55.5 153.5t140.5 60.5q71 0 121.5 -37t70.5 -104h-52q-38 95 -138 95q-66 0 -107 -47t-41 -121q0 -75 41 -121.5t107 -46.5q100 0 138 94h52q-20 -66 -70.5 -102.5t-121.5 -36.5q-86 0 -141 60t-55 153z" />
    <glyph glyph-name="ordfeminine" unicode="&#xaa;" horiz-adv-x="259" 
d="M134 710q46 0 73 -26t27 -72v-154h-38l-4 29q-7 -14 -27.5 -24t-47.5 -10q-39 0 -65.5 21.5t-26.5 58.5q0 34 23.5 55.5t70.5 21.5h71v5q0 53 -59 53q-26 0 -43 -12.5t-17 -33.5h-42q0 43 31 65.5t74 22.5zM190 544v31h-69q-52 0 -52 -41q0 -22 16 -33t39 -11
q29 0 47.5 15t18.5 39z" />
    <glyph glyph-name="guillemotleft" unicode="&#xab;" horiz-adv-x="541" 
d="M218 60l-178 220l178 220h67l-178 -220l178 -220h-67zM438 60l-178 220l178 220h67l-178 -220l178 -220h-67z" />
    <glyph glyph-name="logicalnot" unicode="&#xac;" 
d="M472 343v-228h-61v167h-331v61h392z" />
    <glyph glyph-name="registered" unicode="&#xae;" horiz-adv-x="463" 
d="M423 518q0 -80 -56 -136t-135 -56t-135.5 56.5t-56.5 135.5t56.5 135.5t135.5 56.5q78 0 134.5 -55.5t56.5 -136.5zM386 518q0 64 -45.5 109.5t-108.5 45.5q-64 0 -109.5 -45.5t-45.5 -109.5t45.5 -109.5t109.5 -45.5q63 0 108.5 44.5t45.5 110.5zM194 486h45l35 -72h40
l-39 77q41 15 41 61q0 29 -19.5 47t-49.5 18h-88v-203h35v72zM241 586q17 0 28 -9.5t11 -25.5q0 -17 -10.5 -27t-28.5 -10h-47v72h47z" />
    <glyph glyph-name="macron" unicode="&#xaf;" horiz-adv-x="306" 
d="M20 695h266v-51h-266v51z" />
    <glyph glyph-name="degree" unicode="&#xb0;" horiz-adv-x="322" 
d="M161 458q-53 0 -89.5 37t-36.5 89t36.5 89t89.5 37t89.5 -37t36.5 -89t-36.5 -89t-89.5 -37zM161 508q31 0 53.5 22t22.5 54t-22.5 54t-53.5 22t-53.5 -22t-22.5 -54t22.5 -54t53.5 -22z" />
    <glyph glyph-name="plusminus" unicode="&#xb1;" 
d="M330 390h200v-60h-200v-180h-60v180h-200v60h200v180h60v-180zM70 0v60h460v-60h-460z" />
    <glyph glyph-name="acute" unicode="&#xb4;" horiz-adv-x="163" 
d="M10 588l75 122h78l-92 -122h-61z" />
    <glyph glyph-name="uni00B5" unicode="&#xb5;" horiz-adv-x="596" 
d="M527 55h19v-55h-21q-38 0 -66.5 17t-35.5 46q-48 -73 -150 -73q-46 0 -85.5 18t-59.5 52v-229h-58v669h58v-313q0 -67 42.5 -105.5t100.5 -40.5q59 -2 102 36.5t43 109.5v313h55v-375q0 -22 3 -34.5t15.5 -23t37.5 -12.5z" />
    <glyph glyph-name="paragraph" unicode="&#xb6;" horiz-adv-x="554" 
d="M400 -65v708h-137v-708h-57v513h-62q-62 0 -94 39t-30 91q2 49 33.5 85.5t90.5 36.5h365v-57h-52v-708h-57z" />
    <glyph glyph-name="periodcentered" unicode="&#xb7;" horiz-adv-x="270" 
d="M135 256q-21 0 -36.5 15.5t-15.5 36.5q0 22 15.5 37t36.5 15t36.5 -15t15.5 -37q0 -21 -15.5 -36.5t-36.5 -15.5z" />
    <glyph glyph-name="cedilla" unicode="&#xb8;" horiz-adv-x="258" 
d="M101 6l32 -12l-18 -41q33 4 55 -12.5t22 -44.5q0 -31 -21.5 -49t-56.5 -18q-32 0 -55.5 18.5t-23.5 43.5h45q3 -26 33 -26q31 0 31 28q0 18 -17 24.5t-38 -0.5l-21 9z" />
    <glyph glyph-name="ordmasculine" unicode="&#xba;" horiz-adv-x="304" 
d="M26 581q0 56 35 92.5t90 36.5t91 -36.5t36 -92.5t-35.5 -92t-91.5 -36q-55 0 -90 36t-35 92zM71 580q0 -38 22 -61.5t59 -23.5t59 23.5t22 61.5t-22.5 63t-58.5 25t-58.5 -24.5t-22.5 -63.5z" />
    <glyph glyph-name="guillemotright" unicode="&#xbb;" horiz-adv-x="541" 
d="M103 500l178 -220l-178 -220h-67l178 220l-178 220h67zM323 500l178 -220l-178 -220h-67l178 220l-178 220h67z" />
    <glyph glyph-name="onequarter" unicode="&#xbc;" horiz-adv-x="671" 
d="M165 344h-53v301l-82 -41v54l82 42h53v-356zM68 0l450 700h58l-450 -700h-58zM545 0v72h-168v48l168 236h54v-236h54v-48h-54v-72h-54zM434 120h111v159z" />
    <glyph glyph-name="onehalf" unicode="&#xbd;" horiz-adv-x="723" 
d="M112 344v301l-82 -41v54l82 42h53v-356h-53zM518 700h58l-450 -700h-58zM528 51h170v-51h-241v50l135 117q48 42 49 80q1 30 -16.5 47.5t-48.5 17.5q-29 0 -48.5 -17t-20.5 -44h-53q2 51 37.5 80.5t86.5 29.5t84.5 -28.5t34.5 -76.5q1 -61 -62 -114z" />
    <glyph glyph-name="threequarters" unicode="&#xbe;" horiz-adv-x="726" 
d="M266 443q0 -45 -34.5 -74.5t-85.5 -29.5q-56 0 -88.5 31t-32.5 82h50q-1 -31 20 -48.5t52 -17.5t48 16.5t17 42.5q0 27 -17 43t-47 16h-29v46h25q30 0 47 14t17 39q0 26 -17 40.5t-46 14.5q-32 0 -51.5 -17.5t-18.5 -48.5h-50q0 51 33 82t89 31q51 0 83 -27t32 -73
q0 -55 -45 -78q49 -25 49 -84zM573 700h58l-450 -700h-58zM654 120h54v-48h-54v-72h-54v72h-168v48l168 236h54v-236zM600 120v159l-111 -159h111z" />
    <glyph glyph-name="questiondown" unicode="&#xbf;" horiz-adv-x="492" 
d="M318 700v-94h-95v94h95zM456 175q0 -80 -58.5 -132.5t-148.5 -52.5q-88 0 -142.5 51.5t-54.5 130.5q0 46 19.5 82.5t47.5 61.5t56 48t47.5 53t19.5 65h58q0 -44 -19 -79.5t-46 -59.5t-54 -47t-46 -55t-19 -71q0 -58 38.5 -91t97.5 -33q66 0 103 37t37 92h64z" />
    <glyph glyph-name="Agrave" unicode="&#xc0;" horiz-adv-x="639" 
d="M350 754h-61l-92 122h78zM563 0l-71 185h-346l-71 -185h-63l273 700h70l272 -700h-64zM169 243h300l-150 389z" />
    <glyph glyph-name="Aacute" unicode="&#xc1;" horiz-adv-x="639" 
d="M442 876l-92 -122h-61l75 122h78zM563 0l-71 185h-346l-71 -185h-63l273 700h70l272 -700h-64zM169 243h300l-150 389z" />
    <glyph glyph-name="Acircumflex" unicode="&#xc2;" horiz-adv-x="639" 
d="M317 833l-62 -79h-64l96 122h63l95 -122h-66zM563 0l-71 185h-346l-71 -185h-63l273 700h70l272 -700h-64zM169 243h300l-150 389z" />
    <glyph glyph-name="Atilde" unicode="&#xc3;" horiz-adv-x="639" 
d="M268 807q-32 0 -34 -36h-45q0 44 19 68t54 24q26 0 61 -17.5t49 -17.5q32 0 34 36h45q0 -44 -19 -68t-54 -24q-26 0 -61 17.5t-49 17.5zM563 0l-71 185h-346l-71 -185h-63l273 700h70l272 -700h-64zM169 243h300l-150 389z" />
    <glyph glyph-name="Adieresis" unicode="&#xc4;" horiz-adv-x="639" 
d="M277 848v-77h-84v77h84zM446 848v-77h-84v77h84zM563 0l-71 185h-346l-71 -185h-63l273 700h70l272 -700h-64zM169 243h300l-150 389z" />
    <glyph glyph-name="Aring" unicode="&#xc5;" horiz-adv-x="639" 
d="M563 0l-71 185h-346l-71 -185h-63l262 672q-28 12 -44.5 37.5t-16.5 58.5q0 46 31 76t77 30t76 -30t30 -76q0 -33 -16.5 -59t-44.5 -38l261 -671h-64zM321 828q-25 0 -41.5 -17t-16.5 -43t16.5 -43t41.5 -17t41.5 17t16.5 43t-16.5 43t-41.5 17zM169 243h300l-150 389z
" />
    <glyph glyph-name="AE" unicode="&#xc6;" horiz-adv-x="973" 
d="M4 0l451 700h457v-59h-370v-259h282v-58h-282v-265h391v-59h-452v185h-287l-119 -185h-71zM231 243h250v388z" />
    <glyph glyph-name="Ccedilla" unicode="&#xc7;" horiz-adv-x="740" 
d="M379 49q175 0 243 163h68q-33 -98 -106 -156t-181 -64l-17 -39q33 4 55 -12.5t22 -44.5q0 -31 -21.5 -49t-56.5 -18q-32 0 -55.5 18.5t-23.5 43.5h45q3 -26 33 -26q31 0 31 28q0 18 -17 24.5t-38 -0.5l-21 9l27 65q-141 5 -228.5 104t-87.5 252q0 159 91.5 261t237.5 102
q118 0 197.5 -58.5t113.5 -162.5h-68q-68 163 -243 163q-121 0 -193 -84.5t-72 -219.5q0 -134 72 -216.5t193 -82.5z" />
    <glyph glyph-name="Egrave" unicode="&#xc8;" horiz-adv-x="594" 
d="M332 754h-61l-92 122h78zM143 59h411v-59h-472v700h451v-59h-390v-259h312v-58h-312v-265z" />
    <glyph glyph-name="Eacute" unicode="&#xc9;" horiz-adv-x="594" 
d="M424 876l-92 -122h-61l75 122h78zM143 59h411v-59h-472v700h451v-59h-390v-259h312v-58h-312v-265z" />
    <glyph glyph-name="Ecircumflex" unicode="&#xca;" horiz-adv-x="594" 
d="M299 833l-62 -79h-64l96 122h63l95 -122h-66zM143 59h411v-59h-472v700h451v-59h-390v-259h312v-58h-312v-265z" />
    <glyph glyph-name="Edieresis" unicode="&#xcb;" horiz-adv-x="594" 
d="M259 848v-77h-84v77h84zM428 848v-77h-84v77h84zM143 59h411v-59h-472v700h451v-59h-390v-259h312v-58h-312v-265z" />
    <glyph glyph-name="Igrave" unicode="&#xcc;" horiz-adv-x="225" 
d="M143 754h-61l-92 122h78zM143 700v-700h-61v700h61z" />
    <glyph glyph-name="Iacute" unicode="&#xcd;" horiz-adv-x="225" 
d="M82 754l75 122h78l-92 -122h-61zM143 700v-700h-61v700h61z" />
    <glyph glyph-name="Icircumflex" unicode="&#xce;" horiz-adv-x="225" 
d="M110 833l62 -79h66l-95 122h-63l-96 -122h64zM143 700v-700h-61v700h61z" />
    <glyph glyph-name="Idieresis" unicode="&#xcf;" horiz-adv-x="225" 
d="M-14 771v77h84v-77h-84zM155 771v77h84v-77h-84zM143 700v-700h-61v700h61z" />
    <glyph glyph-name="Eth" unicode="&#xd0;" horiz-adv-x="711" 
d="M311 700q167 0 258.5 -96t91.5 -254t-91.5 -254t-258.5 -96h-219v324h-72v56h72v320h219zM324 59q127 1 200 80t73 211q0 133 -73 212t-200 79h-171v-261h128v-56h-128v-265h171z" />
    <glyph glyph-name="Ntilde" unicode="&#xd1;" horiz-adv-x="704" 
d="M297 863q25 0 60.5 -17.5t49.5 -17.5q33 0 34 36h45q0 -44 -19 -68t-54 -24q-25 0 -61 17.5t-49 17.5q-33 0 -34 -36h-45q0 44 19 68t54 24zM82 0v700h67l415 -607v607h58v-700h-65l-417 607v-607h-58z" />
    <glyph glyph-name="Ograve" unicode="&#xd2;" horiz-adv-x="760" 
d="M411 754h-61l-92 122h78zM381 -9q-147 0 -239 99.5t-92 256.5q0 159 92 261t239 102t238 -102t91 -261q0 -157 -91 -256.5t-238 -99.5zM381 49q121 0 193 82.5t72 216.5q0 135 -72 219.5t-193 84.5t-194 -84.5t-73 -219.5q0 -134 73 -216.5t194 -82.5z" />
    <glyph glyph-name="Oacute" unicode="&#xd3;" horiz-adv-x="760" 
d="M350 754l75 122h78l-92 -122h-61zM381 -9q-147 0 -239 99.5t-92 256.5q0 159 92 261t239 102t238 -102t91 -261q0 -157 -91 -256.5t-238 -99.5zM381 49q121 0 193 82.5t72 216.5q0 135 -72 219.5t-193 84.5t-194 -84.5t-73 -219.5q0 -134 73 -216.5t194 -82.5z" />
    <glyph glyph-name="Ocircumflex" unicode="&#xd4;" horiz-adv-x="760" 
d="M378 833l62 -79h66l-95 122h-63l-96 -122h64zM381 -9q-147 0 -239 99.5t-92 256.5q0 159 92 261t239 102t238 -102t91 -261q0 -157 -91 -256.5t-238 -99.5zM381 49q121 0 193 82.5t72 216.5q0 135 -72 219.5t-193 84.5t-194 -84.5t-73 -219.5q0 -134 73 -216.5t194 -82.5
z" />
    <glyph glyph-name="Otilde" unicode="&#xd5;" horiz-adv-x="760" 
d="M323 863q25 0 61 -17.5t49 -17.5q33 0 34 36h45q0 -44 -19 -68t-54 -24q-25 0 -61 17.5t-49 17.5q-33 0 -34 -36h-45q0 44 19 68t54 24zM381 -9q-147 0 -239 99.5t-92 256.5q0 159 92 261t239 102t238 -102t91 -261q0 -157 -91 -256.5t-238 -99.5zM381 49q121 0 193 82.5
t72 216.5q0 135 -72 219.5t-193 84.5t-194 -84.5t-73 -219.5q0 -134 73 -216.5t194 -82.5z" />
    <glyph glyph-name="Odieresis" unicode="&#xd6;" horiz-adv-x="760" 
d="M254 771v77h84v-77h-84zM423 771v77h84v-77h-84zM381 -9q-147 0 -239 99.5t-92 256.5q0 159 92 261t239 102t238 -102t91 -261q0 -157 -91 -256.5t-238 -99.5zM381 49q121 0 193 82.5t72 216.5q0 135 -72 219.5t-193 84.5t-194 -84.5t-73 -219.5q0 -134 73 -216.5
t194 -82.5z" />
    <glyph glyph-name="multiply" unicode="&#xd7;" 
d="M499 483l-155 -155l155 -156l-43 -43l-155 156l-156 -156l-43 43l156 156l-156 155l43 43l156 -155l155 155z" />
    <glyph glyph-name="Oslash" unicode="&#xd8;" horiz-adv-x="772" 
d="M611 623q105 -105 105 -276q0 -157 -91 -256.5t-238 -99.5q-105 0 -182 51l-30 -42h-64l52 75q-107 101 -107 272q0 159 92 261t239 102q102 0 183 -54l31 44h64zM120 348q0 -141 79 -223l337 482q-64 45 -149 45q-121 0 -194 -84.5t-73 -219.5zM387 49q121 0 193 82.5
t72 216.5q0 140 -76 224l-337 -481q64 -42 148 -42z" />
    <glyph glyph-name="Ugrave" unicode="&#xd9;" horiz-adv-x="691" 
d="M375 754h-61l-92 122h78zM137 700v-436q0 -103 54 -159.5t154 -56.5t154 56.5t54 159.5v436h61v-443q0 -121 -74 -194t-195 -73t-194.5 72.5t-73.5 194.5v443h60z" />
    <glyph glyph-name="Uacute" unicode="&#xda;" horiz-adv-x="691" 
d="M314 754l75 122h78l-92 -122h-61zM137 700v-436q0 -103 54 -159.5t154 -56.5t154 56.5t54 159.5v436h61v-443q0 -121 -74 -194t-195 -73t-194.5 72.5t-73.5 194.5v443h60z" />
    <glyph glyph-name="Ucircumflex" unicode="&#xdb;" horiz-adv-x="691" 
d="M342 833l62 -79h66l-95 122h-63l-96 -122h64zM137 700v-436q0 -103 54 -159.5t154 -56.5t154 56.5t54 159.5v436h61v-443q0 -121 -74 -194t-195 -73t-194.5 72.5t-73.5 194.5v443h60z" />
    <glyph glyph-name="Udieresis" unicode="&#xdc;" horiz-adv-x="691" 
d="M218 771v77h84v-77h-84zM387 771v77h84v-77h-84zM137 700v-436q0 -103 54 -159.5t154 -56.5t154 56.5t54 159.5v436h61v-443q0 -121 -74 -194t-195 -73t-194.5 72.5t-73.5 194.5v443h60z" />
    <glyph glyph-name="Yacute" unicode="&#xdd;" horiz-adv-x="609" 
d="M274 754l75 122h78l-92 -122h-61zM275 235l-260 465h75l217 -399l214 399h73l-259 -465v-235h-60v235z" />
    <glyph glyph-name="Thorn" unicode="&#xde;" horiz-adv-x="640" 
d="M348 570q114 0 178 -63t64 -157t-64 -156.5t-178 -62.5h-205v-131h-61v700h61v-130h205zM360 189q79 0 123.5 43.5t44.5 115.5t-45 118t-123 46h-217v-323h217z" />
    <glyph glyph-name="germandbls" unicode="&#xdf;" horiz-adv-x="573" 
d="M373 398q71 -15 116 -65t45 -122q0 -102 -63 -161.5t-163 -59.5q-80 0 -122 17v53q44 -22 121 -22t122.5 46t45.5 128q0 74 -58 114.5t-161 40.5v54q76 -6 118.5 32.5t42.5 112.5q0 56 -37.5 90t-103.5 34q-63 0 -102.5 -41t-39.5 -113v-535h-58v533q0 91 53.5 147.5
t148.5 56.5q93 0 145.5 -48t52.5 -125q0 -52 -26.5 -97.5t-76.5 -69.5z" />
    <glyph glyph-name="agrave" unicode="&#xe0;" horiz-adv-x="556" 
d="M304 574h-61l-92 122h78zM508 47h17v-47h-39q-72 0 -76 73q-22 -37 -71.5 -60t-110.5 -23q-83 0 -131.5 41t-48.5 111q0 143 194 143h168v30q0 75 -38 110t-104 35q-64 0 -100.5 -27.5t-40.5 -77.5h-59q7 74 62 114.5t140 40.5q97 0 147.5 -52t50.5 -141v-227
q0 -26 8 -34.5t32 -8.5zM233 40q73 0 125 43.5t52 128.5v25h-168q-134 0 -134 -96q0 -49 34 -75t91 -26z" />
    <glyph glyph-name="aacute" unicode="&#xe1;" horiz-adv-x="556" 
d="M396 696l-92 -122h-61l75 122h78zM508 47h17v-47h-39q-72 0 -76 73q-22 -37 -71.5 -60t-110.5 -23q-83 0 -131.5 41t-48.5 111q0 143 194 143h168v30q0 75 -38 110t-104 35q-64 0 -100.5 -27.5t-40.5 -77.5h-59q7 74 62 114.5t140 40.5q97 0 147.5 -52t50.5 -141v-227
q0 -26 8 -34.5t32 -8.5zM233 40q73 0 125 43.5t52 128.5v25h-168q-134 0 -134 -96q0 -49 34 -75t91 -26z" />
    <glyph glyph-name="acircumflex" unicode="&#xe2;" horiz-adv-x="556" 
d="M271 653l-62 -79h-64l96 122h63l95 -122h-66zM508 47h17v-47h-39q-72 0 -76 73q-22 -37 -71.5 -60t-110.5 -23q-83 0 -131.5 41t-48.5 111q0 143 194 143h168v30q0 75 -38 110t-104 35q-64 0 -100.5 -27.5t-40.5 -77.5h-59q7 74 62 114.5t140 40.5q97 0 147.5 -52
t50.5 -141v-227q0 -26 8 -34.5t32 -8.5zM233 40q73 0 125 43.5t52 128.5v25h-168q-134 0 -134 -96q0 -49 34 -75t91 -26z" />
    <glyph glyph-name="atilde" unicode="&#xe3;" horiz-adv-x="556" 
d="M222 627q-32 0 -34 -36h-45q0 44 19 68t54 24q26 0 61 -17.5t49 -17.5q32 0 34 36h45q0 -44 -19 -68t-54 -24q-26 0 -61 17.5t-49 17.5zM508 47h17v-47h-39q-72 0 -76 73q-22 -37 -71.5 -60t-110.5 -23q-83 0 -131.5 41t-48.5 111q0 143 194 143h168v30q0 75 -38 110
t-104 35q-64 0 -100.5 -27.5t-40.5 -77.5h-59q7 74 62 114.5t140 40.5q97 0 147.5 -52t50.5 -141v-227q0 -26 8 -34.5t32 -8.5zM233 40q73 0 125 43.5t52 128.5v25h-168q-134 0 -134 -96q0 -49 34 -75t91 -26z" />
    <glyph glyph-name="adieresis" unicode="&#xe4;" horiz-adv-x="556" 
d="M231 668v-77h-84v77h84zM400 668v-77h-84v77h84zM508 47h17v-47h-39q-72 0 -76 73q-22 -37 -71.5 -60t-110.5 -23q-83 0 -131.5 41t-48.5 111q0 143 194 143h168v30q0 75 -38 110t-104 35q-64 0 -100.5 -27.5t-40.5 -77.5h-59q7 74 62 114.5t140 40.5q97 0 147.5 -52
t50.5 -141v-227q0 -26 8 -34.5t32 -8.5zM233 40q73 0 125 43.5t52 128.5v25h-168q-134 0 -134 -96q0 -49 34 -75t91 -26z" />
    <glyph glyph-name="aring" unicode="&#xe5;" horiz-adv-x="556" 
d="M508 47h17v-47h-39q-72 0 -76 73q-22 -37 -71.5 -60t-110.5 -23q-83 0 -131.5 41t-48.5 111q0 143 194 143h168v30q0 75 -38 110t-104 35q-64 0 -100.5 -27.5t-40.5 -77.5h-59q5 58 40 95.5t92 51.5q-34 31 -34 79q0 46 31 76t77 30t76 -30t30 -76q0 -51 -35 -81
q61 -18 92 -65.5t31 -117.5v-227q0 -26 8 -34.5t32 -8.5zM274 641q-25 0 -41.5 -17t-16.5 -43t16.5 -43t41.5 -17t41.5 17t16.5 43t-16.5 43t-41.5 17zM233 40q73 0 125 43.5t52 128.5v25h-168q-134 0 -134 -96q0 -49 34 -75t91 -26z" />
    <glyph glyph-name="ae" unicode="&#xe6;" horiz-adv-x="954" 
d="M897 261v-32h-423q3 -92 54.5 -139.5t128.5 -47.5q59 0 103 28.5t65 83.5h62q-24 -75 -84 -118.5t-146 -43.5q-73 0 -129 33t-86 92q-26 -64 -82.5 -95.5t-126.5 -31.5q-85 0 -135 38t-50 107q0 142 194 142h171v38q0 76 -40 111.5t-103 35.5q-66 0 -104.5 -31t-42.5 -81
h-53q6 75 60.5 117.5t139.5 42.5q70 0 115.5 -29.5t65.5 -79.5q65 109 204 109q109 0 175.5 -68.5t66.5 -180.5zM473 277h364q-4 87 -54.5 135.5t-127.5 48.5t-127.5 -48.5t-54.5 -135.5zM413 212v17h-171q-134 0 -134 -95t129 -95q74 0 125 43.5t51 129.5z" />
    <glyph glyph-name="ccedilla" unicode="&#xe7;" horiz-adv-x="571" 
d="M528 165q-21 -74 -76 -120t-133 -52l-17 -38q33 4 55 -12.5t22 -44.5q0 -31 -21.5 -49t-56.5 -18q-32 0 -55.5 18.5t-23.5 43.5h45q3 -26 33 -26q31 0 31 28q0 18 -17 24.5t-38 -0.5l-21 9l27 64q-102 6 -164 76.5t-62 182.5q0 117 66.5 188t174.5 71q84 0 144.5 -43.5
t84.5 -121.5h-64q-22 54 -65 84.5t-99 30.5q-81 0 -131.5 -54t-50.5 -155q0 -100 50.5 -154t131.5 -54q59 0 103.5 32t65.5 90h61z" />
    <glyph glyph-name="egrave" unicode="&#xe8;" horiz-adv-x="597" 
d="M333 574h-61l-92 122h78zM540 265v-32h-419q2 -92 53.5 -141.5t130.5 -49.5q58 0 103 29t66 83h59q-24 -75 -83.5 -118.5t-144.5 -43.5q-110 0 -177 71t-67 188t66.5 188t175.5 71q106 0 171.5 -67.5t65.5 -177.5zM303 461q-74 0 -123.5 -46t-57.5 -133h358
q-5 86 -53.5 132.5t-123.5 46.5z" />
    <glyph glyph-name="eacute" unicode="&#xe9;" horiz-adv-x="597" 
d="M425 696l-92 -122h-61l75 122h78zM540 265v-32h-419q2 -92 53.5 -141.5t130.5 -49.5q58 0 103 29t66 83h59q-24 -75 -83.5 -118.5t-144.5 -43.5q-110 0 -177 71t-67 188t66.5 188t175.5 71q106 0 171.5 -67.5t65.5 -177.5zM303 461q-74 0 -123.5 -46t-57.5 -133h358
q-5 86 -53.5 132.5t-123.5 46.5z" />
    <glyph glyph-name="ecircumflex" unicode="&#xea;" horiz-adv-x="597" 
d="M300 653l-62 -79h-64l96 122h63l95 -122h-66zM540 265v-32h-419q2 -92 53.5 -141.5t130.5 -49.5q58 0 103 29t66 83h59q-24 -75 -83.5 -118.5t-144.5 -43.5q-110 0 -177 71t-67 188t66.5 188t175.5 71q106 0 171.5 -67.5t65.5 -177.5zM303 461q-74 0 -123.5 -46
t-57.5 -133h358q-5 86 -53.5 132.5t-123.5 46.5z" />
    <glyph glyph-name="edieresis" unicode="&#xeb;" horiz-adv-x="597" 
d="M260 668v-77h-84v77h84zM429 668v-77h-84v77h84zM540 265v-32h-419q2 -92 53.5 -141.5t130.5 -49.5q58 0 103 29t66 83h59q-24 -75 -83.5 -118.5t-144.5 -43.5q-110 0 -177 71t-67 188t66.5 188t175.5 71q106 0 171.5 -67.5t65.5 -177.5zM303 461q-74 0 -123.5 -46
t-57.5 -133h358q-5 86 -53.5 132.5t-123.5 46.5z" />
    <glyph glyph-name="igrave" unicode="&#xec;" horiz-adv-x="211" 
d="M136 574h-61l-92 122h78zM77 0v500h57v-500h-57z" />
    <glyph glyph-name="iacute" unicode="&#xed;" horiz-adv-x="211" 
d="M75 574l75 122h78l-92 -122h-61zM77 0v500h57v-500h-57z" />
    <glyph glyph-name="icircumflex" unicode="&#xee;" horiz-adv-x="211" 
d="M103 653l62 -79h66l-95 122h-63l-96 -122h64zM77 0v500h57v-500h-57z" />
    <glyph glyph-name="idieresis" unicode="&#xef;" horiz-adv-x="211" 
d="M-21 591v77h84v-77h-84zM148 591v77h84v-77h-84zM77 0v500h57v-500h-57z" />
    <glyph glyph-name="eth" unicode="&#xf0;" 
d="M405 609q66 -71 104.5 -162t38.5 -184q0 -129 -71 -200.5t-179 -71.5q-112 0 -176.5 74.5t-64.5 184.5q0 118 68 189t172 71q91 0 150 -59q-41 77 -93 133l-104 -51v53l69 34q-54 47 -111 80h85q40 -25 76 -56l120 59v-53zM299 41q79 0 133.5 54t54.5 155q-4 104 -57 157
t-131 53t-130 -54.5t-52 -155.5t53 -155t129 -54z" />
    <glyph glyph-name="ntilde" unicode="&#xf1;" horiz-adv-x="571" 
d="M251 627q-33 0 -34 -36h-45q0 44 19 68t54 24q25 0 61 -17.5t49 -17.5q33 0 34 36h45q0 -44 -19 -68t-54 -24q-25 0 -61 17.5t-49 17.5zM303 510q92 0 144.5 -56.5t52.5 -153.5v-300h-58v289q0 82 -40 124t-108 42q-77 0 -118.5 -50t-41.5 -131v-274h-57v500h47l9 -84
q22 46 66.5 70t103.5 24z" />
    <glyph glyph-name="ograve" unicode="&#xf2;" horiz-adv-x="612" 
d="M336 573h-61l-92 122h78zM56 249q0 116 68.5 188.5t181.5 72.5t181.5 -72.5t68.5 -188.5q0 -115 -69 -187t-181 -72t-181 72t-69 187zM116 250q0 -95 52 -152t138 -57t138 57t52 152q0 96 -52 153t-138 57t-138 -57t-52 -153z" />
    <glyph glyph-name="oacute" unicode="&#xf3;" horiz-adv-x="612" 
d="M275 573l75 122h78l-92 -122h-61zM56 249q0 116 68.5 188.5t181.5 72.5t181.5 -72.5t68.5 -188.5q0 -115 -69 -187t-181 -72t-181 72t-69 187zM116 250q0 -95 52 -152t138 -57t138 57t52 152q0 96 -52 153t-138 57t-138 -57t-52 -153z" />
    <glyph glyph-name="ocircumflex" unicode="&#xf4;" horiz-adv-x="612" 
d="M303 652l62 -79h66l-95 122h-63l-96 -122h64zM56 249q0 116 68.5 188.5t181.5 72.5t181.5 -72.5t68.5 -188.5q0 -115 -69 -187t-181 -72t-181 72t-69 187zM116 250q0 -95 52 -152t138 -57t138 57t52 152q0 96 -52 153t-138 57t-138 -57t-52 -153z" />
    <glyph glyph-name="otilde" unicode="&#xf5;" horiz-adv-x="612" 
d="M248 682q26 0 61 -17.5t49 -17.5q32 0 34 36h45q0 -44 -19 -68t-54 -24q-26 0 -61 17.5t-49 17.5q-32 0 -34 -36h-45q0 44 19 68t54 24zM56 249q0 116 68.5 188.5t181.5 72.5t181.5 -72.5t68.5 -188.5q0 -115 -69 -187t-181 -72t-181 72t-69 187zM116 250q0 -95 52 -152
t138 -57t138 57t52 152q0 96 -52 153t-138 57t-138 -57t-52 -153z" />
    <glyph glyph-name="odieresis" unicode="&#xf6;" horiz-adv-x="612" 
d="M179 590v77h84v-77h-84zM348 590v77h84v-77h-84zM56 249q0 116 68.5 188.5t181.5 72.5t181.5 -72.5t68.5 -188.5q0 -115 -69 -187t-181 -72t-181 72t-69 187zM116 250q0 -95 52 -152t138 -57t138 57t52 152q0 96 -52 153t-138 57t-138 -57t-52 -153z" />
    <glyph glyph-name="divide" unicode="&#xf7;" 
d="M301 466q-22 0 -37.5 15t-15.5 37t15.5 37t37.5 15t37 -15t15 -37t-15 -37t-37 -15zM70 360h460v-60h-460v60zM301 90q-23 0 -38 15t-15 38q0 21 15.5 36t37.5 15t37 -15t15 -36q0 -22 -15 -37.5t-37 -15.5z" />
    <glyph glyph-name="oslash" unicode="&#xf8;" horiz-adv-x="612" 
d="M482 443q74 -74 74 -194q0 -115 -69 -187t-181 -72q-78 0 -137 36l-38 -50h-58l59 79q-76 73 -76 194q0 116 68.5 188.5t181.5 72.5q78 0 140 -38l35 46h58zM116 250q0 -94 50 -150l248 329q-46 31 -108 31q-86 0 -138 -57t-52 -153zM306 41q86 0 138 57t52 152
q0 91 -48 148l-246 -328q44 -29 104 -29z" />
    <glyph glyph-name="ugrave" unicode="&#xf9;" horiz-adv-x="561" 
d="M308 575h-61l-92 122h78zM427 500h57v-500h-47l-9 84q-22 -46 -65.5 -70t-99.5 -24q-89 0 -140.5 57t-51.5 153v300h58v-289q0 -82 39 -124t104 -42q74 0 114.5 50t40.5 131v274z" />
    <glyph glyph-name="uacute" unicode="&#xfa;" horiz-adv-x="561" 
d="M400 697l-92 -122h-61l75 122h78zM427 500h57v-500h-47l-9 84q-22 -46 -65.5 -70t-99.5 -24q-89 0 -140.5 57t-51.5 153v300h58v-289q0 -82 39 -124t104 -42q74 0 114.5 50t40.5 131v274z" />
    <glyph glyph-name="ucircumflex" unicode="&#xfb;" horiz-adv-x="561" 
d="M275 654l-62 -79h-64l96 122h63l95 -122h-66zM427 500h57v-500h-47l-9 84q-22 -46 -65.5 -70t-99.5 -24q-89 0 -140.5 57t-51.5 153v300h58v-289q0 -82 39 -124t104 -42q74 0 114.5 50t40.5 131v274z" />
    <glyph glyph-name="udieresis" unicode="&#xfc;" horiz-adv-x="561" 
d="M235 669v-77h-84v77h84zM404 669v-77h-84v77h84zM427 500h57v-500h-47l-9 84q-22 -46 -65.5 -70t-99.5 -24q-89 0 -140.5 57t-51.5 153v300h58v-289q0 -82 39 -124t104 -42q74 0 114.5 50t40.5 131v274z" />
    <glyph glyph-name="yacute" unicode="&#xfd;" horiz-adv-x="492" 
d="M216 574l75 122h78l-92 -122h-61zM76 500l178 -475l164 476l62 -1l-210 -582q-25 -68 -61 -93t-94 -25h-89v53h91q46 0 71.5 25.5t25.5 74.5q0 23 -9 47l-193 500h64z" />
    <glyph glyph-name="thorn" unicode="&#xfe;" horiz-adv-x="622" 
d="M326 510q100 0 170 -70t70 -191t-69.5 -190t-170.5 -69q-59 0 -110.5 24.5t-80.5 70.5v-285h-58v930h60v-316q30 46 80.5 71t108.5 25zM321 40q82 0 133.5 56t51.5 153t-51 153.5t-134 57.5q-79 1 -132 -58t-53 -155t52.5 -151.5t132.5 -55.5z" />
    <glyph glyph-name="ydieresis" unicode="&#xff;" horiz-adv-x="492" 
d="M120 591v77h84v-77h-84zM289 591v77h84v-77h-84zM76 500l178 -475l164 476l62 -1l-210 -582q-25 -68 -61 -93t-94 -25h-89v53h91q46 0 71.5 25.5t25.5 74.5q0 23 -9 47l-193 500h64z" />
    <glyph glyph-name="Amacron" unicode="&#x100;" horiz-adv-x="639" 
d="M453 828v-51h-266v51h266zM563 0l-71 185h-346l-71 -185h-63l273 700h70l272 -700h-64zM169 243h300l-150 389z" />
    <glyph glyph-name="amacron" unicode="&#x101;" horiz-adv-x="556" 
d="M407 648v-51h-266v51h266zM508 47h17v-47h-39q-72 0 -76 73q-22 -37 -71.5 -60t-110.5 -23q-83 0 -131.5 41t-48.5 111q0 143 194 143h168v30q0 75 -38 110t-104 35q-64 0 -100.5 -27.5t-40.5 -77.5h-59q7 74 62 114.5t140 40.5q97 0 147.5 -52t50.5 -141v-227
q0 -26 8 -34.5t32 -8.5zM233 40q73 0 125 43.5t52 128.5v25h-168q-134 0 -134 -96q0 -49 34 -75t91 -26z" />
    <glyph glyph-name="Abreve" unicode="&#x102;" horiz-adv-x="639" 
d="M320 754q-55 0 -91 34.5t-36 87.5h53q0 -33 20 -51.5t54 -18.5t54 18.5t20 51.5h53q0 -53 -36 -87.5t-91 -34.5zM563 0l-71 185h-346l-71 -185h-63l273 700h70l272 -700h-64zM169 243h300l-150 389z" />
    <glyph glyph-name="abreve" unicode="&#x103;" horiz-adv-x="556" 
d="M274 574q-55 0 -91 34.5t-36 87.5h53q0 -33 20 -51.5t54 -18.5t54 18.5t20 51.5h53q0 -53 -36 -87.5t-91 -34.5zM508 47h17v-47h-39q-72 0 -76 73q-22 -37 -71.5 -60t-110.5 -23q-83 0 -131.5 41t-48.5 111q0 143 194 143h168v30q0 75 -38 110t-104 35
q-64 0 -100.5 -27.5t-40.5 -77.5h-59q7 74 62 114.5t140 40.5q97 0 147.5 -52t50.5 -141v-227q0 -26 8 -34.5t32 -8.5zM233 40q73 0 125 43.5t52 128.5v25h-168q-134 0 -134 -96q0 -49 34 -75t91 -26z" />
    <glyph glyph-name="Aogonek" unicode="&#x104;" horiz-adv-x="639" 
d="M556 -69q0 -28 35 -28q19 0 34 8v-44q-25 -12 -50 -12q-31 0 -52.5 17t-21.5 45q0 51 62 84l-71 184h-346l-71 -185h-63l273 700h70l272 -700q-71 -38 -71 -69zM169 243h300l-150 389z" />
    <glyph glyph-name="aogonek" unicode="&#x105;" horiz-adv-x="556" 
d="M525 0q-71 -38 -71 -69q0 -28 35 -28q19 0 34 8v-44q-25 -12 -50 -12q-31 0 -52.5 17t-21.5 45q0 51 64 86q-50 11 -53 70q-22 -37 -71.5 -60t-110.5 -23q-83 0 -131.5 41t-48.5 111q0 143 194 143h168v30q0 75 -38 110t-104 35q-64 0 -100.5 -27.5t-40.5 -77.5h-59
q7 74 62 114.5t140 40.5q97 0 147.5 -52t50.5 -141v-227q0 -26 8 -34.5t32 -8.5h17v-47zM233 40q73 0 125 43.5t52 128.5v25h-168q-134 0 -134 -96q0 -49 34 -75t91 -26z" />
    <glyph glyph-name="Cacute" unicode="&#x106;" horiz-adv-x="740" 
d="M350 754l75 122h78l-92 -122h-61zM379 49q175 0 243 163h68q-35 -103 -114 -162t-197 -59q-146 0 -237.5 99.5t-91.5 256.5q0 159 91.5 261t237.5 102q118 0 197.5 -58.5t113.5 -162.5h-68q-68 163 -243 163q-121 0 -193 -84.5t-72 -219.5q0 -134 72 -216.5t193 -82.5z
" />
    <glyph glyph-name="cacute" unicode="&#x107;" horiz-adv-x="571" 
d="M266 574l75 122h78l-92 -122h-61zM462 345q-22 54 -65 84.5t-99 30.5q-81 0 -131.5 -54t-50.5 -155q0 -100 50.5 -154t131.5 -54q59 0 103.5 32t65.5 90h61q-23 -79 -84 -126t-147 -47q-108 0 -174.5 71t-66.5 188t66.5 188t174.5 71q84 0 144.5 -43.5t84.5 -121.5h-64z
" />
    <glyph glyph-name="Ccircumflex" unicode="&#x108;" horiz-adv-x="740" 
d="M378 833l62 -79h66l-95 122h-63l-96 -122h64zM379 49q175 0 243 163h68q-35 -103 -114 -162t-197 -59q-146 0 -237.5 99.5t-91.5 256.5q0 159 91.5 261t237.5 102q118 0 197.5 -58.5t113.5 -162.5h-68q-68 163 -243 163q-121 0 -193 -84.5t-72 -219.5q0 -134 72 -216.5
t193 -82.5z" />
    <glyph glyph-name="ccircumflex" unicode="&#x109;" horiz-adv-x="571" 
d="M294 653l62 -79h66l-95 122h-63l-96 -122h64zM462 345q-22 54 -65 84.5t-99 30.5q-81 0 -131.5 -54t-50.5 -155q0 -100 50.5 -154t131.5 -54q59 0 103.5 32t65.5 90h61q-23 -79 -84 -126t-147 -47q-108 0 -174.5 71t-66.5 188t66.5 188t174.5 71q84 0 144.5 -43.5
t84.5 -121.5h-64z" />
    <glyph glyph-name="Cdotaccent" unicode="&#x10a;" horiz-adv-x="740" 
d="M338 802v78h85v-78h-85zM379 49q175 0 243 163h68q-35 -103 -114 -162t-197 -59q-146 0 -237.5 99.5t-91.5 256.5q0 159 91.5 261t237.5 102q118 0 197.5 -58.5t113.5 -162.5h-68q-68 163 -243 163q-121 0 -193 -84.5t-72 -219.5q0 -134 72 -216.5t193 -82.5z" />
    <glyph glyph-name="cdotaccent" unicode="&#x10b;" horiz-adv-x="571" 
d="M254 622v78h85v-78h-85zM462 345q-22 54 -65 84.5t-99 30.5q-81 0 -131.5 -54t-50.5 -155q0 -100 50.5 -154t131.5 -54q59 0 103.5 32t65.5 90h61q-23 -79 -84 -126t-147 -47q-108 0 -174.5 71t-66.5 188t66.5 188t174.5 71q84 0 144.5 -43.5t84.5 -121.5h-64z" />
    <glyph glyph-name="Ccaron" unicode="&#x10c;" horiz-adv-x="740" 
d="M382 797l-62 79h-66l95 -122h63l96 122h-64zM379 49q175 0 243 163h68q-35 -103 -114 -162t-197 -59q-146 0 -237.5 99.5t-91.5 256.5q0 159 91.5 261t237.5 102q118 0 197.5 -58.5t113.5 -162.5h-68q-68 163 -243 163q-121 0 -193 -84.5t-72 -219.5q0 -134 72 -216.5
t193 -82.5z" />
    <glyph glyph-name="ccaron" unicode="&#x10d;" horiz-adv-x="571" 
d="M298 617l-62 79h-66l95 -122h63l96 122h-64zM462 345q-22 54 -65 84.5t-99 30.5q-81 0 -131.5 -54t-50.5 -155q0 -100 50.5 -154t131.5 -54q59 0 103.5 32t65.5 90h61q-23 -79 -84 -126t-147 -47q-108 0 -174.5 71t-66.5 188t66.5 188t174.5 71q84 0 144.5 -43.5
t84.5 -121.5h-64z" />
    <glyph glyph-name="Dcaron" unicode="&#x10e;" horiz-adv-x="701" 
d="M293 797l-62 79h-66l95 -122h63l96 122h-64zM82 0h219q167 0 258.5 96t91.5 254t-91.5 254t-258.5 96h-219v-700zM143 59v582h171q127 0 200 -79t73 -212q0 -132 -73 -211t-200 -80h-171z" />
    <glyph glyph-name="dcaron" unicode="&#x10f;" horiz-adv-x="653" 
d="M488 411v319h58v-730h-48l-10 91q-29 -48 -81 -74.5t-111 -26.5q-101 0 -170.5 68t-69.5 189q0 122 70 192.5t170 70.5q61 0 112 -26t80 -73zM614 730h68l-45 -170h-42zM301 40q80 0 132.5 55.5t52.5 151.5t-53 154.5t-132 57.5q-83 -1 -134 -58.5t-51 -153.5t51 -151.5
t134 -55.5z" />
    <glyph glyph-name="Dcroat" unicode="&#x110;" horiz-adv-x="711" 
d="M311 700q167 0 258.5 -96t91.5 -254t-91.5 -254t-258.5 -96h-219v324h-72v56h72v320h219zM324 59q127 1 200 80t73 211q0 133 -73 212t-200 79h-171v-261h128v-56h-128v-265h171z" />
    <glyph glyph-name="dcroat" unicode="&#x111;" horiz-adv-x="628" 
d="M608 631v-52h-62v-579h-48l-10 91q-29 -48 -81 -74.5t-111 -26.5q-101 0 -170.5 68t-69.5 189q0 122 70 192.5t170 70.5q61 0 112 -26t80 -73v168h-156v52h156v99h58v-99h62zM301 40q80 0 132.5 55.5t52.5 151.5t-53 154.5t-132 57.5q-83 -1 -134 -58.5t-51 -153.5
t51 -151.5t134 -55.5z" />
    <glyph glyph-name="Emacron" unicode="&#x112;" horiz-adv-x="594" 
d="M435 828v-51h-266v51h266zM143 59h411v-59h-472v700h451v-59h-390v-259h312v-58h-312v-265z" />
    <glyph glyph-name="emacron" unicode="&#x113;" horiz-adv-x="597" 
d="M436 648v-51h-266v51h266zM540 265v-32h-419q2 -92 53.5 -141.5t130.5 -49.5q58 0 103 29t66 83h59q-24 -75 -83.5 -118.5t-144.5 -43.5q-110 0 -177 71t-67 188t66.5 188t175.5 71q106 0 171.5 -67.5t65.5 -177.5zM303 461q-74 0 -123.5 -46t-57.5 -133h358
q-5 86 -53.5 132.5t-123.5 46.5z" />
    <glyph glyph-name="Ebreve" unicode="&#x114;" horiz-adv-x="594" 
d="M302 754q-55 0 -91 34.5t-36 87.5h53q0 -33 20 -51.5t54 -18.5t54 18.5t20 51.5h53q0 -53 -36 -87.5t-91 -34.5zM143 59h411v-59h-472v700h451v-59h-390v-259h312v-58h-312v-265z" />
    <glyph glyph-name="ebreve" unicode="&#x115;" horiz-adv-x="597" 
d="M303 574q-55 0 -91 34.5t-36 87.5h53q0 -33 20 -51.5t54 -18.5t54 18.5t20 51.5h53q0 -53 -36 -87.5t-91 -34.5zM540 265v-32h-419q2 -92 53.5 -141.5t130.5 -49.5q58 0 103 29t66 83h59q-24 -75 -83.5 -118.5t-144.5 -43.5q-110 0 -177 71t-67 188t66.5 188t175.5 71
q106 0 171.5 -67.5t65.5 -177.5zM303 461q-74 0 -123.5 -46t-57.5 -133h358q-5 86 -53.5 132.5t-123.5 46.5z" />
    <glyph glyph-name="Edotaccent" unicode="&#x116;" horiz-adv-x="594" 
d="M344 880v-78h-85v78h85zM143 59h411v-59h-472v700h451v-59h-390v-259h312v-58h-312v-265z" />
    <glyph glyph-name="edotaccent" unicode="&#x117;" horiz-adv-x="597" 
d="M345 700v-78h-85v78h85zM540 265v-32h-419q2 -92 53.5 -141.5t130.5 -49.5q58 0 103 29t66 83h59q-24 -75 -83.5 -118.5t-144.5 -43.5q-110 0 -177 71t-67 188t66.5 188t175.5 71q106 0 171.5 -67.5t65.5 -177.5zM303 461q-74 0 -123.5 -46t-57.5 -133h358
q-5 86 -53.5 132.5t-123.5 46.5z" />
    <glyph glyph-name="Eogonek" unicode="&#x118;" horiz-adv-x="594" 
d="M554 0q-71 -38 -71 -69q0 -28 35 -28q19 0 34 8v-44q-25 -12 -50 -12q-31 0 -52.5 17t-21.5 45q0 49 59 83h-405v700h451v-59h-390v-259h312v-58h-312v-265h411v-59z" />
    <glyph glyph-name="eogonek" unicode="&#x119;" horiz-adv-x="597" 
d="M540 265v-32h-419q2 -92 53.5 -141.5t130.5 -49.5q58 0 103 29t66 83h59q-38 -118 -153 -152q-71 -38 -71 -69q0 -28 35 -28q19 0 34 8v-44q-25 -12 -50 -12q-31 0 -52.5 17t-21.5 45q0 42 44 73q-107 2 -172 73t-65 186q0 117 66.5 188t175.5 71q106 0 171.5 -67.5
t65.5 -177.5zM303 461q-74 0 -123.5 -46t-57.5 -133h358q-5 86 -53.5 132.5t-123.5 46.5z" />
    <glyph glyph-name="Ecaron" unicode="&#x11a;" horiz-adv-x="594" 
d="M333 754h-63l-95 122h66l62 -79l62 79h64zM143 59h411v-59h-472v700h451v-59h-390v-259h312v-58h-312v-265z" />
    <glyph glyph-name="ecaron" unicode="&#x11b;" horiz-adv-x="597" 
d="M334 574h-63l-95 122h66l62 -79l62 79h64zM540 265v-32h-419q2 -92 53.5 -141.5t130.5 -49.5q58 0 103 29t66 83h59q-24 -75 -83.5 -118.5t-144.5 -43.5q-110 0 -177 71t-67 188t66.5 188t175.5 71q106 0 171.5 -67.5t65.5 -177.5zM303 461q-74 0 -123.5 -46t-57.5 -133
h358q-5 86 -53.5 132.5t-123.5 46.5z" />
    <glyph glyph-name="Gcircumflex" unicode="&#x11c;" horiz-adv-x="758" 
d="M381 833l-62 -79h-64l96 122h63l95 -122h-66zM395 374h299v-375h-48l-13 123q-37 -64 -104 -97.5t-148 -33.5q-147 0 -239 99.5t-92 256.5q0 159 92 261t239 102q120 0 201.5 -59.5t110.5 -161.5h-68q-62 163 -244 163q-121 0 -194 -84.5t-73 -219.5q0 -134 73 -216.5
t194 -82.5q91 0 166 55.5t85 159.5v52h-237v58z" />
    <glyph glyph-name="gcircumflex" unicode="&#x11d;" horiz-adv-x="597" 
d="M284 653l-62 -79h-64l96 122h63l95 -122h-66zM472 500h48v-486q0 -101 -62.5 -162.5t-166.5 -61.5q-86 0 -145 44t-75 118h63q14 -54 56 -83t101 -29q82 0 127 44.5t45 120.5v111q-23 -50 -73 -78t-111 -28q-95 0 -159 67t-64 182q0 116 63.5 183.5t159.5 67.5
q59 0 108.5 -26.5t74.5 -74.5zM285 60q79 0 127 53.5t48 144.5t-48 147t-127 56q-78 0 -123.5 -56t-45.5 -147t45.5 -144.5t123.5 -53.5z" />
    <glyph glyph-name="Gbreve" unicode="&#x11e;" horiz-adv-x="758" 
d="M384 754q-55 0 -91 34.5t-36 87.5h53q0 -33 20 -51.5t54 -18.5t54 18.5t20 51.5h53q0 -53 -36 -87.5t-91 -34.5zM395 374h299v-375h-48l-13 123q-37 -64 -104 -97.5t-148 -33.5q-147 0 -239 99.5t-92 256.5q0 159 92 261t239 102q120 0 201.5 -59.5t110.5 -161.5h-68
q-62 163 -244 163q-121 0 -194 -84.5t-73 -219.5q0 -134 73 -216.5t194 -82.5q91 0 166 55.5t85 159.5v52h-237v58z" />
    <glyph glyph-name="gbreve" unicode="&#x11f;" horiz-adv-x="597" 
d="M287 574q-55 0 -91 34.5t-36 87.5h53q0 -33 20 -51.5t54 -18.5t54 18.5t20 51.5h53q0 -53 -36 -87.5t-91 -34.5zM472 500h48v-486q0 -101 -62.5 -162.5t-166.5 -61.5q-86 0 -145 44t-75 118h63q14 -54 56 -83t101 -29q82 0 127 44.5t45 120.5v111q-23 -50 -73 -78
t-111 -28q-95 0 -159 67t-64 182q0 116 63.5 183.5t159.5 67.5q59 0 108.5 -26.5t74.5 -74.5zM285 60q79 0 127 53.5t48 144.5t-48 147t-127 56q-78 0 -123.5 -56t-45.5 -147t45.5 -144.5t123.5 -53.5z" />
    <glyph glyph-name="Gdotaccent" unicode="&#x120;" horiz-adv-x="758" 
d="M426 880v-78h-85v78h85zM395 374h299v-375h-48l-13 123q-37 -64 -104 -97.5t-148 -33.5q-147 0 -239 99.5t-92 256.5q0 159 92 261t239 102q120 0 201.5 -59.5t110.5 -161.5h-68q-62 163 -244 163q-121 0 -194 -84.5t-73 -219.5q0 -134 73 -216.5t194 -82.5
q91 0 166 55.5t85 159.5v52h-237v58z" />
    <glyph glyph-name="gdotaccent" unicode="&#x121;" horiz-adv-x="597" 
d="M329 700v-78h-85v78h85zM472 500h48v-486q0 -101 -62.5 -162.5t-166.5 -61.5q-86 0 -145 44t-75 118h63q14 -54 56 -83t101 -29q82 0 127 44.5t45 120.5v111q-23 -50 -73 -78t-111 -28q-95 0 -159 67t-64 182q0 116 63.5 183.5t159.5 67.5q59 0 108.5 -26.5t74.5 -74.5z
M285 60q79 0 127 53.5t48 144.5t-48 147t-127 56q-78 0 -123.5 -56t-45.5 -147t45.5 -144.5t123.5 -53.5z" />
    <glyph glyph-name="Gcommaaccent" unicode="&#x122;" horiz-adv-x="758" 
d="M395 374h299v-375h-48l-13 123q-37 -64 -104 -97.5t-148 -33.5q-147 0 -239 99.5t-92 256.5q0 159 92 261t239 102q120 0 201.5 -59.5t110.5 -161.5h-68q-62 163 -244 163q-121 0 -194 -84.5t-73 -219.5q0 -134 73 -216.5t194 -82.5q91 0 166 55.5t85 159.5v52h-237v58z
M347 -154v78h78v-78l-31 -84h-44l31 84h-34z" />
    <glyph glyph-name="gcommaaccent" unicode="&#x123;" horiz-adv-x="597" 
d="M326 668v-78h-78v78l31 84h44l-31 -84h34zM472 500h48v-486q0 -101 -62.5 -162.5t-166.5 -61.5q-86 0 -145 44t-75 118h63q14 -54 56 -83t101 -29q82 0 127 44.5t45 120.5v111q-23 -50 -73 -78t-111 -28q-95 0 -159 67t-64 182q0 116 63.5 183.5t159.5 67.5
q59 0 108.5 -26.5t74.5 -74.5zM285 60q79 0 127 53.5t48 144.5t-48 147t-127 56q-78 0 -123.5 -56t-45.5 -147t45.5 -144.5t123.5 -53.5z" />
    <glyph glyph-name="Hcircumflex" unicode="&#x124;" horiz-adv-x="703" 
d="M349 833l62 -79h66l-95 122h-63l-96 -122h64zM560 325h-417v-325h-61v700h61v-316h417v316h61v-700h-61v325z" />
    <glyph glyph-name="hcircumflex" unicode="&#x125;" horiz-adv-x="571" 
d="M164 754l-62 79l-62 -79h-64l96 122h63l95 -122h-66zM308 510q82 0 137 -50t55 -160v-300h-58v289q0 166 -142 166q-79 0 -122.5 -50.5t-43.5 -130.5v-274h-57v730h57v-312q23 43 71 67.5t103 24.5z" />
    <glyph glyph-name="Hbar" unicode="&#x126;" horiz-adv-x="715" 
d="M700 588v-58h-73v-530h-61v325h-417v-325h-61v530h-73v58h73v112h61v-112h417v112h61v-112h73zM566 384v146h-417v-146h417z" />
    <glyph glyph-name="hbar" unicode="&#x127;" horiz-adv-x="571" 
d="M308 510q82 0 137 -50t55 -160v-300h-58v289q0 166 -142 166q-79 0 -122.5 -50.5t-43.5 -130.5v-274h-57v579h-56v52h56v99h57v-99h163v-52h-163v-161q23 43 71 67.5t103 24.5z" />
    <glyph glyph-name="Itilde" unicode="&#x128;" horiz-adv-x="225" 
d="M55 863q25 0 61 -17.5t49 -17.5q33 0 34 36h45q0 -44 -19 -68t-54 -24q-25 0 -61 17.5t-49 17.5q-33 0 -34 -36h-45q0 44 19 68t54 24zM143 700v-700h-61v700h61z" />
    <glyph glyph-name="itilde" unicode="&#x129;" horiz-adv-x="211" 
d="M48 683q26 0 61 -17.5t49 -17.5q32 0 34 36h45q0 -44 -19 -68t-54 -24q-26 0 -61 17.5t-49 17.5q-32 0 -34 -36h-45q0 44 19 68t54 24zM77 0v500h57v-500h-57z" />
    <glyph glyph-name="Imacron" unicode="&#x12a;" horiz-adv-x="225" 
d="M-20 828h266v-51h-266v51zM143 700v-700h-61v700h61z" />
    <glyph glyph-name="imacron" unicode="&#x12b;" horiz-adv-x="211" 
d="M-27 648h266v-51h-266v51zM77 0v500h57v-500h-57z" />
    <glyph glyph-name="Ibreve" unicode="&#x12c;" horiz-adv-x="225" 
d="M113 754q-55 0 -91 34.5t-36 87.5h53q0 -33 20 -51.5t54 -18.5t54 18.5t20 51.5h53q0 -53 -36 -87.5t-91 -34.5zM143 700v-700h-61v700h61z" />
    <glyph glyph-name="ibreve" unicode="&#x12d;" horiz-adv-x="211" 
d="M106 574q-55 0 -91 34.5t-36 87.5h53q0 -33 20 -51.5t54 -18.5t54 18.5t20 51.5h53q0 -53 -36 -87.5t-91 -34.5zM77 0v500h57v-500h-57z" />
    <glyph glyph-name="Iogonek" unicode="&#x12e;" horiz-adv-x="225" 
d="M143 0q-71 -38 -71 -69q0 -28 35 -28q19 0 34 8v-44q-25 -12 -50 -12q-31 0 -52.5 17t-21.5 45q0 51 65 86v697h61v-700z" />
    <glyph glyph-name="iogonek" unicode="&#x12f;" horiz-adv-x="211" 
d="M63 700h85v-78h-85v78zM77 5v495h57v-500q-71 -38 -71 -69q0 -28 35 -28q19 0 34 8v-44q-25 -12 -50 -12q-31 0 -52.5 17t-21.5 45q0 52 69 88z" />
    <glyph glyph-name="Idotaccent" unicode="&#x130;" horiz-adv-x="225" 
d="M70 802v78h85v-78h-85zM143 700v-700h-61v700h61z" />
    <glyph glyph-name="dotlessi" unicode="&#x131;" horiz-adv-x="211" 
d="M77 0v500h57v-500h-57z" />
    <glyph glyph-name="IJ" unicode="&#x132;" horiz-adv-x="727" 
d="M143 700v-700h-61v700h61zM284 190q0 -64 41.5 -103t109.5 -39q69 0 110 39.5t41 112.5v500h61v-500q0 -94 -58.5 -152t-153.5 -58t-153 55t-58 145h60z" />
    <glyph glyph-name="ij" unicode="&#x133;" horiz-adv-x="431" 
d="M63 622v78h85v-78h-85zM283 622v78h85v-78h-85zM77 0v500h57v-500h-57zM354 -82q0 -56 -30 -87t-79 -31h-66v53h56q62 0 62 66v581h57v-582z" />
    <glyph glyph-name="Jcircumflex" unicode="&#x134;" horiz-adv-x="533" 
d="M419 833l62 -79h66l-95 122h-63l-96 -122h64zM90 190q0 -64 41.5 -103t109.5 -39q69 0 110 39.5t41 112.5v500h61v-500q0 -94 -58.5 -152t-153.5 -58t-153 55t-58 145h60z" />
    <glyph glyph-name="jcircumflex" unicode="&#x135;" horiz-adv-x="221" 
d="M113 653l62 -79h66l-95 122h-63l-96 -122h64zM144 -82q0 -56 -30 -87t-79 -31h-66v53h56q62 0 62 66v581h57v-582z" />
    <glyph glyph-name="Kcommaaccent" unicode="&#x136;" horiz-adv-x="621" 
d="M330 395l287 -395h-74l-254 348l-147 -164v-184h-60v700h60v-440l382 440h73zM278 -137v78h78v-78l-31 -84h-44l31 84h-34z" />
    <glyph glyph-name="kcommaaccent" unicode="&#x137;" horiz-adv-x="491" 
d="M254 279l220 -279h-72l-188 239l-80 -82v-157h-57v730h57v-496l264 266h74zM229 -129v78h78v-78l-31 -84h-44l31 84h-34z" />
    <glyph glyph-name="Lacute" unicode="&#x139;" horiz-adv-x="539" 
d="M82 754l75 122h78l-92 -122h-61zM143 59h366v-59h-427v700h61v-641z" />
    <glyph glyph-name="lacute" unicode="&#x13a;" horiz-adv-x="211" 
d="M75 764l75 122h78l-92 -122h-61zM134 730v-730h-57v730h57z" />
    <glyph glyph-name="Lcommaaccent" unicode="&#x13b;" horiz-adv-x="539" 
d="M143 59h366v-59h-427v700h61v-641zM264 -137v78h78v-78l-31 -84h-44l31 84h-34z" />
    <glyph glyph-name="lcommaaccent" unicode="&#x13c;" horiz-adv-x="211" 
d="M134 730v-730h-57v730h57zM67 -51h78v-78l-31 -84h-44l31 84h-34v78z" />
    <glyph glyph-name="Lcaron" unicode="&#x13d;" horiz-adv-x="539" 
d="M143 59h366v-59h-427v700h61v-641zM327 700l-45 -170h-42l19 170h68z" />
    <glyph glyph-name="lcaron" unicode="&#x13e;" horiz-adv-x="241" 
d="M134 730v-730h-57v730h57zM270 730l-45 -170h-42l19 170h68z" />
    <glyph glyph-name="Ldot" unicode="&#x13f;" horiz-adv-x="543" 
d="M143 59h366v-59h-427v700h61v-641zM372 351q-17 0 -29.5 12.5t-12.5 28.5q0 18 12.5 30t29.5 12t29.5 -12t12.5 -30q0 -16 -12.5 -28.5t-29.5 -12.5z" />
    <glyph glyph-name="ldot" unicode="&#x140;" horiz-adv-x="311" 
d="M134 730v-730h-57v730h57zM257 331q-17 0 -29.5 12.5t-12.5 28.5q0 18 12.5 30t29.5 12t29.5 -12t12.5 -30q0 -16 -12.5 -28.5t-29.5 -12.5z" />
    <glyph glyph-name="Lslash" unicode="&#x141;" horiz-adv-x="550" 
d="M150 59h366v-59h-427v338l-74 -48v66l74 48v296h61v-256l142 92v-66l-142 -92v-319z" />
    <glyph glyph-name="lslash" unicode="&#x142;" horiz-adv-x="231" 
d="M224 478v-54l-79 -29v-395h-58v373l-80 -30v54l80 30v303h58v-281z" />
    <glyph glyph-name="Nacute" unicode="&#x143;" horiz-adv-x="704" 
d="M324 754l75 122h78l-92 -122h-61zM82 0v700h67l415 -607v607h58v-700h-65l-417 607v-607h-58z" />
    <glyph glyph-name="nacute" unicode="&#x144;" horiz-adv-x="571" 
d="M425 696l-92 -122h-61l75 122h78zM303 510q92 0 144.5 -56.5t52.5 -153.5v-300h-58v289q0 82 -40 124t-108 42q-77 0 -118.5 -50t-41.5 -131v-274h-57v500h47l9 -84q22 46 66.5 70t103.5 24z" />
    <glyph glyph-name="Ncommaaccent" unicode="&#x145;" horiz-adv-x="704" 
d="M564 700h58v-700h-65l-417 607v-607h-58v700h67l415 -607v607zM312 -127v78h78v-78l-31 -84h-44l31 84h-34z" />
    <glyph glyph-name="ncommaaccent" unicode="&#x146;" horiz-adv-x="571" 
d="M303 510q92 0 144.5 -56.5t52.5 -153.5v-300h-58v289q0 82 -40 124t-108 42q-77 0 -118.5 -50t-41.5 -131v-274h-57v500h47l9 -84q22 46 66.5 70t103.5 24zM249 -129v78h78v-78l-31 -84h-44l31 84h-34z" />
    <glyph glyph-name="Ncaron" unicode="&#x147;" horiz-adv-x="704" 
d="M356 797l-62 79h-66l95 -122h63l96 122h-64zM82 0v700h67l415 -607v607h58v-700h-65l-417 607v-607h-58z" />
    <glyph glyph-name="ncaron" unicode="&#x148;" horiz-adv-x="571" 
d="M334 574h-63l-95 122h66l62 -79l62 79h64zM303 510q92 0 144.5 -56.5t52.5 -153.5v-300h-58v289q0 82 -40 124t-108 42q-77 0 -118.5 -50t-41.5 -131v-274h-57v500h47l9 -84q22 46 66.5 70t103.5 24z" />
    <glyph glyph-name="Eng" unicode="&#x14a;" horiz-adv-x="704" 
d="M562 0l-422 607v-607h-58v700h67l415 -594v594h58v-782q0 -57 -29.5 -87.5t-79.5 -30.5h-66v55h56q32 0 45.5 15.5t13.5 49.5v80z" />
    <glyph glyph-name="eng" unicode="&#x14b;" horiz-adv-x="562" 
d="M433 -87v391q0 74 -41 112.5t-106 38.5q-74 0 -117.5 -49t-43.5 -122v-284h-58v500h47l9 -70q27 39 73 59.5t96 20.5q88 0 143.5 -54.5t55.5 -150.5v-392q0 -50 -29.5 -81.5t-85.5 -31.5h-50v59h56q28 0 39.5 13t11.5 41z" />
    <glyph glyph-name="Omacron" unicode="&#x14c;" horiz-adv-x="760" 
d="M248 828h266v-51h-266v51zM381 -9q-147 0 -239 99.5t-92 256.5q0 159 92 261t239 102t238 -102t91 -261q0 -157 -91 -256.5t-238 -99.5zM381 49q121 0 193 82.5t72 216.5q0 135 -72 219.5t-193 84.5t-194 -84.5t-73 -219.5q0 -134 73 -216.5t194 -82.5z" />
    <glyph glyph-name="omacron" unicode="&#x14d;" horiz-adv-x="612" 
d="M173 647h266v-51h-266v51zM56 249q0 116 68.5 188.5t181.5 72.5t181.5 -72.5t68.5 -188.5q0 -115 -69 -187t-181 -72t-181 72t-69 187zM116 250q0 -95 52 -152t138 -57t138 57t52 152q0 96 -52 153t-138 57t-138 -57t-52 -153z" />
    <glyph glyph-name="Obreve" unicode="&#x14e;" horiz-adv-x="760" 
d="M381 754q-55 0 -91 34.5t-36 87.5h53q0 -33 20 -51.5t54 -18.5t54 18.5t20 51.5h53q0 -53 -36 -87.5t-91 -34.5zM381 -9q-147 0 -239 99.5t-92 256.5q0 159 92 261t239 102t238 -102t91 -261q0 -157 -91 -256.5t-238 -99.5zM381 49q121 0 193 82.5t72 216.5
q0 135 -72 219.5t-193 84.5t-194 -84.5t-73 -219.5q0 -134 73 -216.5t194 -82.5z" />
    <glyph glyph-name="obreve" unicode="&#x14f;" horiz-adv-x="612" 
d="M306 573q-55 0 -91 34.5t-36 87.5h53q0 -33 20 -51.5t54 -18.5t54 18.5t20 51.5h53q0 -53 -36 -87.5t-91 -34.5zM56 249q0 116 68.5 188.5t181.5 72.5t181.5 -72.5t68.5 -188.5q0 -115 -69 -187t-181 -72t-181 72t-69 187zM116 250q0 -95 52 -152t138 -57t138 57t52 152
q0 96 -52 153t-138 57t-138 -57t-52 -153z" />
    <glyph glyph-name="Ohungarumlaut" unicode="&#x150;" horiz-adv-x="760" 
d="M294 754l75 122h76l-92 -122h-59zM409 754l95 122h76l-112 -122h-59zM381 -9q-147 0 -239 99.5t-92 256.5q0 159 92 261t239 102t238 -102t91 -261q0 -157 -91 -256.5t-238 -99.5zM381 49q121 0 193 82.5t72 216.5q0 135 -72 219.5t-193 84.5t-194 -84.5t-73 -219.5
q0 -134 73 -216.5t194 -82.5z" />
    <glyph glyph-name="ohungarumlaut" unicode="&#x151;" horiz-adv-x="612" 
d="M219 573l75 122h76l-92 -122h-59zM334 573l95 122h76l-112 -122h-59zM56 249q0 116 68.5 188.5t181.5 72.5t181.5 -72.5t68.5 -188.5q0 -115 -69 -187t-181 -72t-181 72t-69 187zM116 250q0 -95 52 -152t138 -57t138 57t52 152q0 96 -52 153t-138 57t-138 -57t-52 -153z
" />
    <glyph glyph-name="OE" unicode="&#x152;" horiz-adv-x="1144" 
d="M713 59h391v-59h-452v128q-42 -65 -110.5 -101t-154.5 -36q-147 0 -239 99.5t-92 256.5q0 159 92 261t239 102q86 0 154.5 -37.5t110.5 -103.5v131h431v-59h-370v-259h282v-58h-282v-265zM387 49q121 0 193 82.5t72 216.5q0 135 -72 219.5t-193 84.5t-194 -84.5
t-73 -219.5q0 -134 73 -216.5t194 -82.5z" />
    <glyph glyph-name="oe" unicode="&#x153;" horiz-adv-x="1035" 
d="M978 264v-31h-423q2 -92 54 -141.5t129 -49.5q59 0 103 28.5t65 83.5h62q-24 -75 -84 -118.5t-146 -43.5q-73 0 -129 33.5t-86 93.5q-30 -60 -87 -94.5t-132 -34.5q-111 0 -179.5 72t-68.5 187t68.5 187.5t179.5 72.5q74 0 131 -34t87 -94q30 61 85.5 95t128.5 34
q109 0 175.5 -68t66.5 -178zM554 280h364q-4 87 -54.5 134t-127.5 47t-127.5 -48t-54.5 -133zM304 41q86 0 138 57t52 152t-52 152t-138 57t-138 -57t-52 -152t52 -152t138 -57z" />
    <glyph glyph-name="Racute" unicode="&#x154;" horiz-adv-x="642" 
d="M281 754l75 122h78l-92 -122h-61zM82 0v700h271q117 0 179.5 -58.5t62.5 -159.5q0 -81 -44.5 -137.5t-127.5 -73.5l155 -271h-71l-152 264h-213v-264h-60zM142 322h220q82 0 125.5 41.5t43.5 118.5t-43.5 118.5t-125.5 41.5h-220v-320z" />
    <glyph glyph-name="racute" unicode="&#x155;" horiz-adv-x="357" 
d="M325 696l-92 -122h-61l75 122h78zM268 500h61v-55h-62q-65 0 -99 -42.5t-34 -118.5v-284h-57v500h47l9 -79q17 35 54.5 57t80.5 22z" />
    <glyph glyph-name="Rcommaaccent" unicode="&#x156;" horiz-adv-x="642" 
d="M595 482q0 -81 -44.5 -137.5t-127.5 -73.5l155 -271h-71l-152 264h-213v-264h-60v700h271q117 0 179.5 -58.5t62.5 -159.5zM142 322h220q82 0 125.5 41.5t43.5 118.5t-43.5 118.5t-125.5 41.5h-220v-320zM276 -127v78h78v-78l-31 -84h-44l31 84h-34z" />
    <glyph glyph-name="rcommaaccent" unicode="&#x157;" horiz-adv-x="357" 
d="M268 500h61v-55h-62q-65 0 -99 -42.5t-34 -118.5v-284h-57v500h47l9 -79q17 35 54.5 57t80.5 22zM67 -127v78h78v-78l-31 -84h-44l31 84h-34z" />
    <glyph glyph-name="Rcaron" unicode="&#x158;" horiz-adv-x="642" 
d="M313 797l-62 79h-66l95 -122h63l96 122h-64zM82 0v700h271q117 0 179.5 -58.5t62.5 -159.5q0 -81 -44.5 -137.5t-127.5 -73.5l155 -271h-71l-152 264h-213v-264h-60zM142 322h220q82 0 125.5 41.5t43.5 118.5t-43.5 118.5t-125.5 41.5h-220v-320z" />
    <glyph glyph-name="rcaron" unicode="&#x159;" horiz-adv-x="357" 
d="M234 574h-63l-95 122h66l62 -79l62 79h64zM133 421q17 35 54.5 57t80.5 22h61v-55h-62q-65 0 -99 -42.5t-34 -118.5v-284h-57v500h47z" />
    <glyph glyph-name="Sacute" unicode="&#x15a;" horiz-adv-x="589" 
d="M257 754l75 122h78l-92 -122h-61zM545 184q0 -89 -72 -141.5t-182 -52.5q-118 0 -187 54t-69 143h66q0 -65 50.5 -102.5t143.5 -37.5q77 0 131.5 37t54.5 102q0 57 -35 87.5t-103 42.5l-117 21q-89 16 -133 64t-44 122q0 85 68 136t174 51q111 0 176.5 -54t65.5 -143h-66
q0 65 -47 102.5t-134 37.5q-73 0 -123 -34.5t-50 -97.5q0 -55 32.5 -84t97.5 -41l117 -21q185 -33 185 -191z" />
    <glyph glyph-name="sacute" unicode="&#x15b;" horiz-adv-x="506" 
d="M215 574l75 122h78l-92 -122h-61zM46 143h60q2 -49 40.5 -76.5t104.5 -27.5t104.5 25.5t38.5 70.5q0 38 -20.5 58.5t-65.5 26.5l-107 16q-142 21 -142 134q0 63 52.5 101.5t133.5 38.5q87 0 141.5 -40t55.5 -113h-58q-1 50 -39 77t-99 27q-59 0 -95 -24t-36 -67
q0 -36 23 -55.5t74 -26.5l106 -16q68 -10 101 -42t33 -90q0 -70 -56 -110t-143 -40q-97 0 -151 41t-56 112z" />
    <glyph glyph-name="Scircumflex" unicode="&#x15c;" horiz-adv-x="589" 
d="M285 833l62 -79h66l-95 122h-63l-96 -122h64zM545 184q0 -89 -72 -141.5t-182 -52.5q-118 0 -187 54t-69 143h66q0 -65 50.5 -102.5t143.5 -37.5q77 0 131.5 37t54.5 102q0 57 -35 87.5t-103 42.5l-117 21q-89 16 -133 64t-44 122q0 85 68 136t174 51q111 0 176.5 -54
t65.5 -143h-66q0 65 -47 102.5t-134 37.5q-73 0 -123 -34.5t-50 -97.5q0 -55 32.5 -84t97.5 -41l117 -21q185 -33 185 -191z" />
    <glyph glyph-name="scircumflex" unicode="&#x15d;" horiz-adv-x="506" 
d="M243 653l62 -79h66l-95 122h-63l-96 -122h64zM46 143h60q2 -49 40.5 -76.5t104.5 -27.5t104.5 25.5t38.5 70.5q0 38 -20.5 58.5t-65.5 26.5l-107 16q-142 21 -142 134q0 63 52.5 101.5t133.5 38.5q87 0 141.5 -40t55.5 -113h-58q-1 50 -39 77t-99 27q-59 0 -95 -24
t-36 -67q0 -36 23 -55.5t74 -26.5l106 -16q68 -10 101 -42t33 -90q0 -70 -56 -110t-143 -40q-97 0 -151 41t-56 112z" />
    <glyph glyph-name="Scedilla" unicode="&#x15e;" horiz-adv-x="589" 
d="M545 184q0 -85 -67 -137t-171 -57l-16 -37q33 4 55 -12.5t22 -44.5q0 -31 -21.5 -49t-56.5 -18q-32 0 -55.5 18.5t-23.5 43.5h45q3 -26 33 -26q31 0 31 28q0 18 -17 24.5t-38 -0.5l-21 9l27 64q-109 5 -172.5 58.5t-63.5 138.5h66q0 -65 50.5 -102.5t143.5 -37.5
q77 0 131.5 37t54.5 102q0 57 -35 87.5t-103 42.5l-117 21q-89 16 -133 64t-44 122q0 85 68 136t174 51q111 0 176.5 -54t65.5 -143h-66q0 65 -47 102.5t-134 37.5q-73 0 -123 -34.5t-50 -97.5q0 -55 32.5 -84t97.5 -41l117 -21q185 -33 185 -191z" />
    <glyph glyph-name="scedilla" unicode="&#x15f;" horiz-adv-x="506" 
d="M452 140q0 -66 -50.5 -105.5t-130.5 -43.5l-16 -38q33 4 55 -12.5t22 -44.5q0 -31 -21.5 -49t-56.5 -18q-32 0 -55.5 18.5t-23.5 43.5h45q3 -26 33 -26q31 0 31 28q0 18 -17 24.5t-38 -0.5l-21 9l27 64q-89 4 -138 44.5t-51 108.5h60q2 -49 40.5 -76.5t104.5 -27.5
t104.5 25.5t38.5 70.5q0 38 -20.5 58.5t-65.5 26.5l-107 16q-142 21 -142 134q0 63 52.5 101.5t133.5 38.5q87 0 141.5 -40t55.5 -113h-58q-1 50 -39 77t-99 27q-59 0 -95 -24t-36 -67q0 -36 23 -55.5t74 -26.5l106 -16q68 -10 101 -42t33 -90z" />
    <glyph glyph-name="Scaron" unicode="&#x160;" horiz-adv-x="589" 
d="M289 797l-62 79h-66l95 -122h63l96 122h-64zM545 184q0 -89 -72 -141.5t-182 -52.5q-118 0 -187 54t-69 143h66q0 -65 50.5 -102.5t143.5 -37.5q77 0 131.5 37t54.5 102q0 57 -35 87.5t-103 42.5l-117 21q-89 16 -133 64t-44 122q0 85 68 136t174 51q111 0 176.5 -54
t65.5 -143h-66q0 65 -47 102.5t-134 37.5q-73 0 -123 -34.5t-50 -97.5q0 -55 32.5 -84t97.5 -41l117 -21q185 -33 185 -191z" />
    <glyph glyph-name="scaron" unicode="&#x161;" horiz-adv-x="506" 
d="M247 617l-62 79h-66l95 -122h63l96 122h-64zM46 143h60q2 -49 40.5 -76.5t104.5 -27.5t104.5 25.5t38.5 70.5q0 38 -20.5 58.5t-65.5 26.5l-107 16q-142 21 -142 134q0 63 52.5 101.5t133.5 38.5q87 0 141.5 -40t55.5 -113h-58q-1 50 -39 77t-99 27q-59 0 -95 -24
t-36 -67q0 -36 23 -55.5t74 -26.5l106 -16q68 -10 101 -42t33 -90q0 -70 -56 -110t-143 -40q-97 0 -151 41t-56 112z" />
    <glyph glyph-name="uni0162" unicode="&#x162;" horiz-adv-x="605" 
d="M24 700h557v-59h-249v-641h-60v641h-248v59zM263 -127v78h78v-78l-31 -84h-44l31 84h-34z" />
    <glyph glyph-name="uni0163" unicode="&#x163;" horiz-adv-x="324" 
d="M282 448h-119v-330q0 -65 63 -65h55v-53h-63q-51 0 -81.5 28.5t-30.5 86.5v333h-95v52h52q24 0 33.5 10t9.5 32v86h57v-128h119v-52zM161 -127v78h78v-78l-31 -84h-44l31 84h-34z" />
    <glyph glyph-name="Tcaron" unicode="&#x164;" horiz-adv-x="605" 
d="M304 797l-62 79h-66l95 -122h63l96 122h-64zM332 641v-641h-60v641h-248v59h557v-59h-249z" />
    <glyph glyph-name="tcaron" unicode="&#x165;" horiz-adv-x="324" 
d="M308 730l-45 -170h-42l19 170h68zM218 0q-51 0 -81.5 28.5t-30.5 86.5v333h-95v52h52q24 0 33.5 10t9.5 32v86h57v-128h119v-52h-119v-330q0 -65 63 -65h55v-53h-63z" />
    <glyph glyph-name="Tbar" unicode="&#x166;" horiz-adv-x="601" 
d="M581 641h-249v-255h106v-54h-106v-332h-60v332h-110v54h110v255h-248v59h557v-59z" />
    <glyph glyph-name="tbar" unicode="&#x167;" horiz-adv-x="333" 
d="M291 254h-124v-136q0 -65 63 -65h55v-53h-63q-51 0 -81.5 28.5t-30.5 86.5v139h-90v52h90v142h-95v52h52q24 0 33.5 10t9.5 32v86h57v-128h119v-52h-119v-142h124v-52z" />
    <glyph glyph-name="Utilde" unicode="&#x168;" horiz-adv-x="691" 
d="M287 863q25 0 61 -17.5t49 -17.5q33 0 34 36h45q0 -44 -19 -68t-54 -24q-25 0 -61 17.5t-49 17.5q-33 0 -34 -36h-45q0 44 19 68t54 24zM137 700v-436q0 -103 54 -159.5t154 -56.5t154 56.5t54 159.5v436h61v-443q0 -121 -74 -194t-195 -73t-194.5 72.5t-73.5 194.5v443
h60z" />
    <glyph glyph-name="utilde" unicode="&#x169;" horiz-adv-x="561" 
d="M226 628q-32 0 -34 -36h-45q0 44 19 68t54 24q26 0 61 -17.5t49 -17.5q32 0 34 36h45q0 -44 -19 -68t-54 -24q-26 0 -61 17.5t-49 17.5zM427 500h57v-500h-47l-9 84q-22 -46 -65.5 -70t-99.5 -24q-89 0 -140.5 57t-51.5 153v300h58v-289q0 -82 39 -124t104 -42
q74 0 114.5 50t40.5 131v274z" />
    <glyph glyph-name="Umacron" unicode="&#x16a;" horiz-adv-x="691" 
d="M212 828h266v-51h-266v51zM137 700v-436q0 -103 54 -159.5t154 -56.5t154 56.5t54 159.5v436h61v-443q0 -121 -74 -194t-195 -73t-194.5 72.5t-73.5 194.5v443h60z" />
    <glyph glyph-name="umacron" unicode="&#x16b;" horiz-adv-x="561" 
d="M411 649v-51h-266v51h266zM427 500h57v-500h-47l-9 84q-22 -46 -65.5 -70t-99.5 -24q-89 0 -140.5 57t-51.5 153v300h58v-289q0 -82 39 -124t104 -42q74 0 114.5 50t40.5 131v274z" />
    <glyph glyph-name="Ubreve" unicode="&#x16c;" horiz-adv-x="691" 
d="M345 754q-55 0 -91 34.5t-36 87.5h53q0 -33 20 -51.5t54 -18.5t54 18.5t20 51.5h53q0 -53 -36 -87.5t-91 -34.5zM137 700v-436q0 -103 54 -159.5t154 -56.5t154 56.5t54 159.5v436h61v-443q0 -121 -74 -194t-195 -73t-194.5 72.5t-73.5 194.5v443h60z" />
    <glyph glyph-name="ubreve" unicode="&#x16d;" horiz-adv-x="561" 
d="M278 575q-55 0 -91 34.5t-36 87.5h53q0 -33 20 -51.5t54 -18.5t54 18.5t20 51.5h53q0 -53 -36 -87.5t-91 -34.5zM427 500h57v-500h-47l-9 84q-22 -46 -65.5 -70t-99.5 -24q-89 0 -140.5 57t-51.5 153v300h58v-289q0 -82 39 -124t104 -42q74 0 114.5 50t40.5 131v274z" />
    <glyph glyph-name="Uring" unicode="&#x16e;" horiz-adv-x="691" 
d="M238 833q0 46 31 76t77 30t76 -30t30 -76t-30 -76t-76 -30t-77 30t-31 76zM288 833q0 -26 16.5 -43t41.5 -17t41.5 17t16.5 43t-16.5 43t-41.5 17t-41.5 -17t-16.5 -43zM137 700v-436q0 -103 54 -159.5t154 -56.5t154 56.5t54 159.5v436h61v-443q0 -121 -74 -194
t-195 -73t-194.5 72.5t-73.5 194.5v443h60z" />
    <glyph glyph-name="uring" unicode="&#x16f;" horiz-adv-x="561" 
d="M279 548q-46 0 -77 30t-31 76t31 76t77 30t76 -30t30 -76t-30 -76t-76 -30zM279 714q-25 0 -41.5 -17t-16.5 -43t16.5 -43t41.5 -17t41.5 17t16.5 43t-16.5 43t-41.5 17zM427 500h57v-500h-47l-9 84q-22 -46 -65.5 -70t-99.5 -24q-89 0 -140.5 57t-51.5 153v300h58v-289
q0 -82 39 -124t104 -42q74 0 114.5 50t40.5 131v274z" />
    <glyph glyph-name="Uhungarumlaut" unicode="&#x170;" horiz-adv-x="691" 
d="M258 754l75 122h76l-92 -122h-59zM373 754l95 122h76l-112 -122h-59zM137 700v-436q0 -103 54 -159.5t154 -56.5t154 56.5t54 159.5v436h61v-443q0 -121 -74 -194t-195 -73t-194.5 72.5t-73.5 194.5v443h60z" />
    <glyph glyph-name="uhungarumlaut" unicode="&#x171;" horiz-adv-x="561" 
d="M342 697l-92 -122h-59l75 122h76zM365 575h-59l95 122h76zM427 500h57v-500h-47l-9 84q-22 -46 -65.5 -70t-99.5 -24q-89 0 -140.5 57t-51.5 153v300h58v-289q0 -82 39 -124t104 -42q74 0 114.5 50t40.5 131v274z" />
    <glyph glyph-name="Uogonek" unicode="&#x172;" horiz-adv-x="691" 
d="M553 700h61v-443q0 -106 -57 -175.5t-154 -86.5q-67 -36 -67 -67q0 -28 35 -28q19 0 34 8v-44q-25 -12 -50 -12q-31 0 -52.5 17t-21.5 45q0 45 48 76q-115 5 -183.5 77t-68.5 190v443h60v-436q0 -103 54 -159.5t154 -56.5t154 56.5t54 159.5v436z" />
    <glyph glyph-name="uogonek" unicode="&#x173;" horiz-adv-x="561" 
d="M484 0q-71 -38 -71 -69q0 -28 35 -28q19 0 34 8v-44q-25 -12 -50 -12q-31 0 -52.5 17t-21.5 45q0 55 78 93l-8 74q-22 -46 -65.5 -70t-99.5 -24q-89 0 -140.5 57t-51.5 153v300h58v-289q0 -82 39 -124t104 -42q74 0 114.5 50t40.5 131v274h57v-500z" />
    <glyph glyph-name="Wcircumflex" unicode="&#x174;" horiz-adv-x="952" 
d="M474 833l62 -79h66l-95 122h-63l-96 -122h64zM221 0l-203 700h63l178 -615l183 615h64l185 -618l180 618h63l-209 -700h-70l-183 604l-181 -604h-70z" />
    <glyph glyph-name="wcircumflex" unicode="&#x175;" horiz-adv-x="765" 
d="M382 653l62 -79h66l-95 122h-63l-96 -122h64zM83 500l126 -435l147 435h58l147 -435l122 435h59l-146 -500h-68l-146 424l-142 -424h-68l-150 500h61z" />
    <glyph glyph-name="Ycircumflex" unicode="&#x176;" horiz-adv-x="609" 
d="M302 833l62 -79h66l-95 122h-63l-96 -122h64zM275 235l-260 465h75l217 -399l214 399h73l-259 -465v-235h-60v235z" />
    <glyph glyph-name="ycircumflex" unicode="&#x177;" horiz-adv-x="492" 
d="M244 653l62 -79h66l-95 122h-63l-96 -122h64zM76 500l178 -475l164 476l62 -1l-210 -582q-25 -68 -61 -93t-94 -25h-89v53h91q46 0 71.5 25.5t25.5 74.5q0 23 -9 47l-193 500h64z" />
    <glyph glyph-name="Ydieresis" unicode="&#x178;" horiz-adv-x="609" 
d="M178 771v77h84v-77h-84zM347 771v77h84v-77h-84zM275 235l-260 465h75l217 -399l214 399h73l-259 -465v-235h-60v235z" />
    <glyph glyph-name="Zacute" unicode="&#x179;" horiz-adv-x="576" 
d="M257 754l75 122h78l-92 -122h-61zM109 59h432v-59h-506v56l417 585h-407v59h481v-56z" />
    <glyph glyph-name="zacute" unicode="&#x17a;" horiz-adv-x="487" 
d="M212 564l75 122h78l-92 -122h-61zM119 52h321v-52h-389v50l318 398h-322v52h389v-50z" />
    <glyph glyph-name="Zdotaccent" unicode="&#x17b;" horiz-adv-x="576" 
d="M245 802v78h85v-78h-85zM109 59h432v-59h-506v56l417 585h-407v59h481v-56z" />
    <glyph glyph-name="zdotaccent" unicode="&#x17c;" horiz-adv-x="487" 
d="M200 612v78h85v-78h-85zM119 52h321v-52h-389v50l318 398h-322v52h389v-50z" />
    <glyph glyph-name="Zcaron" unicode="&#x17d;" horiz-adv-x="576" 
d="M289 797l-62 79h-66l95 -122h63l96 122h-64zM109 59h432v-59h-506v56l417 585h-407v59h481v-56z" />
    <glyph glyph-name="zcaron" unicode="&#x17e;" horiz-adv-x="487" 
d="M244 607l-62 79h-66l95 -122h63l96 122h-64zM119 52h321v-52h-389v50l318 398h-322v52h389v-50z" />
    <glyph glyph-name="florin" unicode="&#x192;" horiz-adv-x="500" 
d="M396 647q-56 0 -67 -59l-43 -221h144v-56h-154l-58 -300q-24 -124 -128 -124h-45v53h44q56 0 67 59l60 312h-130v56h141l40 209q24 124 128 124h45v-53h-44z" />
    <glyph glyph-name="Aringacute" unicode="&#x1fa;" horiz-adv-x="639" 
d="M453 1039l-92 -122h-61l75 122h78zM563 0l-71 185h-346l-71 -185h-63l265 680q-63 27 -63 97q0 46 31 76t77 30t76 -30t30 -76q0 -72 -65 -99l264 -678h-64zM322 837q-25 0 -41.5 -17t-16.5 -43t16.5 -43t41.5 -17t41.5 17t16.5 43t-16.5 43t-41.5 17zM169 243h300
l-150 389z" />
    <glyph glyph-name="aringacute" unicode="&#x1fb;" horiz-adv-x="556" 
d="M403 833l-92 -122h-61l75 122h78zM508 47h17v-47h-39q-72 0 -76 73q-22 -37 -71.5 -60t-110.5 -23q-83 0 -131.5 41t-48.5 111q0 143 194 143h168v30q0 75 -38 110t-104 35q-64 0 -100.5 -27.5t-40.5 -77.5h-59q5 57 40 94.5t91 52.5q-35 29 -35 79q0 46 31 76t77 30
t76 -30t30 -76q0 -51 -35 -81q61 -17 93 -65t32 -118v-227q0 -26 8 -34.5t32 -8.5zM272 641q-25 0 -41.5 -17t-16.5 -43t16.5 -43t41.5 -17t41.5 17t16.5 43t-16.5 43t-41.5 17zM233 40q73 0 125 43.5t52 128.5v25h-168q-134 0 -134 -96q0 -49 34 -75t91 -26z" />
    <glyph glyph-name="AEacute" unicode="&#x1fc;" horiz-adv-x="973" 
d="M636 775l75 122h78l-92 -122h-61zM4 0l451 700h457v-59h-370v-259h282v-58h-282v-265h391v-59h-452v185h-287l-119 -185h-71zM231 243h250v388z" />
    <glyph glyph-name="aeacute" unicode="&#x1fd;" horiz-adv-x="954" 
d="M580 694l-92 -122h-61l75 122h78zM897 261v-32h-423q3 -92 54.5 -139.5t128.5 -47.5q59 0 103 28.5t65 83.5h62q-24 -75 -84 -118.5t-146 -43.5q-73 0 -129 33t-86 92q-26 -64 -82.5 -95.5t-126.5 -31.5q-85 0 -135 38t-50 107q0 142 194 142h171v38q0 76 -40 111.5
t-103 35.5q-66 0 -104.5 -31t-42.5 -81h-53q6 75 60.5 117.5t139.5 42.5q70 0 115.5 -29.5t65.5 -79.5q65 109 204 109q109 0 175.5 -68.5t66.5 -180.5zM473 277h364q-4 87 -54.5 135.5t-127.5 48.5t-127.5 -48.5t-54.5 -135.5zM413 212v17h-171q-134 0 -134 -95t129 -95
q74 0 125 43.5t51 129.5z" />
    <glyph glyph-name="Oslashacute" unicode="&#x1fe;" horiz-adv-x="772" 
d="M509 876l-92 -122h-61l75 122h78zM611 623q105 -105 105 -276q0 -157 -91 -256.5t-238 -99.5q-105 0 -182 51l-30 -42h-64l52 75q-107 101 -107 272q0 159 92 261t239 102q102 0 183 -54l31 44h64zM120 348q0 -141 79 -223l337 482q-64 45 -149 45q-121 0 -194 -84.5
t-73 -219.5zM387 49q121 0 193 82.5t72 216.5q0 140 -76 224l-337 -481q64 -42 148 -42z" />
    <glyph glyph-name="Scommaaccent" unicode="&#x218;" horiz-adv-x="589" 
d="M360 375q185 -33 185 -191q0 -89 -72 -141.5t-182 -52.5q-118 0 -187 54t-69 143h66q0 -65 50.5 -102.5t143.5 -37.5q77 0 131.5 37t54.5 102q0 57 -35 87.5t-103 42.5l-117 21q-89 16 -133 64t-44 122q0 85 68 136t174 51q111 0 176.5 -54t65.5 -143h-66q0 65 -47 102.5
t-134 37.5q-73 0 -123 -34.5t-50 -97.5q0 -55 32.5 -84t97.5 -41zM247 -137v78h78v-78l-31 -84h-44l31 84h-34z" />
    <glyph glyph-name="scommaaccent" unicode="&#x219;" horiz-adv-x="506" 
d="M318 272q68 -10 101 -42t33 -90q0 -70 -56 -110t-143 -40q-97 0 -151 41t-56 112h60q2 -49 40.5 -76.5t104.5 -27.5t104.5 25.5t38.5 70.5q0 38 -20.5 58.5t-65.5 26.5l-107 16q-142 21 -142 134q0 63 52.5 101.5t133.5 38.5q87 0 141.5 -40t55.5 -113h-58q-1 50 -39 77
t-99 27q-59 0 -95 -24t-36 -67q0 -36 23 -55.5t74 -26.5zM211 -137v78h78v-78l-31 -84h-44l31 84h-34z" />
    <glyph glyph-name="uni021A" unicode="&#x21a;" horiz-adv-x="605" 
d="M24 700h557v-59h-249v-641h-60v641h-248v59zM263 -127v78h78v-78l-31 -84h-44l31 84h-34z" />
    <glyph glyph-name="uni021B" unicode="&#x21b;" horiz-adv-x="324" 
d="M282 448h-119v-330q0 -65 63 -65h55v-53h-63q-51 0 -81.5 28.5t-30.5 86.5v333h-95v52h52q24 0 33.5 10t9.5 32v86h57v-128h119v-52zM161 -127v78h78v-78l-31 -84h-44l31 84h-34z" />
    <glyph glyph-name="uni0237" unicode="&#x237;" horiz-adv-x="221" 
d="M144 -82q0 -56 -30 -87t-79 -31h-66v53h56q62 0 62 66v581h57v-582z" />
    <glyph glyph-name="uni02BB" unicode="&#x2bb;" horiz-adv-x="142" 
d="M76 683h34v-78h-78v78l31 84h44z" />
    <glyph glyph-name="uni02BC" unicode="&#x2bc;" horiz-adv-x="267" 
d="M230 730l-45 -170h-42l19 170h68z" />
    <glyph glyph-name="circumflex" unicode="&#x2c6;" horiz-adv-x="324" 
d="M159 667l62 -79h66l-95 122h-63l-96 -122h64z" />
    <glyph glyph-name="caron" unicode="&#x2c7;" horiz-adv-x="324" 
d="M163 631l-62 79h-66l95 -122h63l96 122h-64z" />
    <glyph glyph-name="breve" unicode="&#x2d8;" horiz-adv-x="295" 
d="M148 588q-55 0 -91 34.5t-36 87.5h53q0 -33 20 -51.5t54 -18.5t54 18.5t20 51.5h53q0 -53 -36 -87.5t-91 -34.5z" />
    <glyph glyph-name="dotaccent" unicode="&#x2d9;" horiz-adv-x="182" 
d="M48 637v78h85v-78h-85z" />
    <glyph glyph-name="ring" unicode="&#x2da;" horiz-adv-x="264" 
d="M25 632q0 46 31 76t77 30t76 -30t30 -76t-30 -76t-76 -30t-77 30t-31 76zM75 632q0 -26 16.5 -43t41.5 -17t41.5 17t16.5 43t-16.5 43t-41.5 17t-41.5 -17t-16.5 -43z" />
    <glyph glyph-name="ogonek" unicode="&#x2db;" horiz-adv-x="206" 
d="M168 -133q-25 -12 -50 -12q-31 0 -52.5 17t-21.5 45q0 57 83 95l43 -12q-71 -38 -71 -69q0 -28 35 -28q19 0 34 8v-44z" />
    <glyph glyph-name="tilde" unicode="&#x2dc;" horiz-adv-x="306" 
d="M113 697q25 0 61 -17.5t49 -17.5q33 0 34 36h45q0 -44 -19 -68t-54 -24q-25 0 -61 17.5t-49 17.5q-33 0 -34 -36h-45q0 44 19 68t54 24z" />
    <glyph glyph-name="hungarumlaut" unicode="&#x2dd;" horiz-adv-x="321" 
d="M35 588l75 122h76l-92 -122h-59zM150 588l95 122h76l-112 -122h-59z" />
    <glyph glyph-name="uni0326" unicode="&#x326;" horiz-adv-x="0" 
d="M-154 -18h78v-78l-31 -84h-44l31 84h-34v78z" />
    <glyph glyph-name="uni0335" unicode="&#x335;" horiz-adv-x="0" 
d="M-286 304h276v-54h-276v54z" />
    <glyph glyph-name="uni0336" unicode="&#x336;" horiz-adv-x="0" 
d="M-580 306h486v-58h-486v58z" />
    <glyph glyph-name="uni0337" unicode="&#x337;" horiz-adv-x="0" 
d="M-433 -22l408 542h58l-408 -542h-58z" />
    <glyph glyph-name="uni0338" unicode="&#x338;" horiz-adv-x="0" 
d="M-514 0l450 700h64l-450 -700h-64z" />
    <glyph glyph-name="pi" unicode="&#x3c0;" horiz-adv-x="648" 
d="M588 442h-103v-345q0 -38 37 -38h66v-59h-56q-49 0 -77 25t-28 76v341h-215v-442h-58v442h-94v58h528v-58z" />
    <glyph glyph-name="Wgrave" unicode="&#x1e80;" horiz-adv-x="952" 
d="M507 754h-61l-92 122h78zM221 0l-203 700h63l178 -615l183 615h64l185 -618l180 618h63l-209 -700h-70l-183 604l-181 -604h-70z" />
    <glyph glyph-name="wgrave" unicode="&#x1e81;" horiz-adv-x="765" 
d="M415 574h-61l-92 122h78zM83 500l126 -435l147 435h58l147 -435l122 435h59l-146 -500h-68l-146 424l-142 -424h-68l-150 500h61z" />
    <glyph glyph-name="Wacute" unicode="&#x1e82;" horiz-adv-x="952" 
d="M446 754l75 122h78l-92 -122h-61zM221 0l-203 700h63l178 -615l183 615h64l185 -618l180 618h63l-209 -700h-70l-183 604l-181 -604h-70z" />
    <glyph glyph-name="wacute" unicode="&#x1e83;" horiz-adv-x="765" 
d="M354 574l75 122h78l-92 -122h-61zM83 500l126 -435l147 435h58l147 -435l122 435h59l-146 -500h-68l-146 424l-142 -424h-68l-150 500h61z" />
    <glyph glyph-name="Wdieresis" unicode="&#x1e84;" horiz-adv-x="952" 
d="M350 771v77h84v-77h-84zM519 771v77h84v-77h-84zM221 0l-203 700h63l178 -615l183 615h64l185 -618l180 618h63l-209 -700h-70l-183 604l-181 -604h-70z" />
    <glyph glyph-name="wdieresis" unicode="&#x1e85;" horiz-adv-x="765" 
d="M258 591v77h84v-77h-84zM427 591v77h84v-77h-84zM83 500l126 -435l147 435h58l147 -435l122 435h59l-146 -500h-68l-146 424l-142 -424h-68l-150 500h61z" />
    <glyph glyph-name="Ygrave" unicode="&#x1ef2;" horiz-adv-x="609" 
d="M335 754h-61l-92 122h78zM275 235l-260 465h75l217 -399l214 399h73l-259 -465v-235h-60v235z" />
    <glyph glyph-name="ygrave" unicode="&#x1ef3;" horiz-adv-x="492" 
d="M277 574h-61l-92 122h78zM76 500l178 -475l164 476l62 -1l-210 -582q-25 -68 -61 -93t-94 -25h-89v53h91q46 0 71.5 25.5t25.5 74.5q0 23 -9 47l-193 500h64z" />
    <glyph glyph-name="endash" unicode="&#x2013;" horiz-adv-x="620" 
d="M60 312h500v-59h-500v59z" />
    <glyph glyph-name="emdash" unicode="&#x2014;" horiz-adv-x="1000" 
d="M60 312h880v-59h-880v59z" />
    <glyph glyph-name="quoteleft" unicode="&#x2018;" horiz-adv-x="217" 
d="M60 494v94l55 112h42l-55 -112h52v-94h-94z" />
    <glyph glyph-name="quoteright" unicode="&#x2019;" horiz-adv-x="217" 
d="M60 494l55 112h-52v94h94v-94l-55 -112h-42z" />
    <glyph glyph-name="quotesinglbase" unicode="&#x201a;" horiz-adv-x="217" 
d="M63 0v94h94v-94l-55 -112h-42l55 112h-52z" />
    <glyph glyph-name="quotedblleft" unicode="&#x201c;" horiz-adv-x="367" 
d="M60 494v94l55 112h42l-55 -112h52v-94h-94zM210 494v94l55 112h42l-55 -112h52v-94h-94z" />
    <glyph glyph-name="quotedblright" unicode="&#x201d;" horiz-adv-x="367" 
d="M60 494l55 112h-52v94h94v-94l-55 -112h-42zM210 494l55 112h-52v94h94v-94l-55 -112h-42z" />
    <glyph glyph-name="quotedblbase" unicode="&#x201e;" horiz-adv-x="367" 
d="M63 0v94h94v-94l-55 -112h-42l55 112h-52zM213 0v94h94v-94l-55 -112h-42l55 112h-52z" />
    <glyph glyph-name="dagger" unicode="&#x2020;" horiz-adv-x="453" 
d="M413 533v-62h-156v-371h-61v371h-156v62h156v167h61v-167h156z" />
    <glyph glyph-name="daggerdbl" unicode="&#x2021;" horiz-adv-x="453" 
d="M413 468h-156v-136h156v-62h-156v-170h-61v170h-156v62h156v136h-156v62h156v170h61v-170h156v-62z" />
    <glyph glyph-name="bullet" unicode="&#x2022;" horiz-adv-x="380" 
d="M190 141q-62 0 -106 44t-44 106t44 106t106 44t106 -44t44 -106t-44 -106t-106 -44z" />
    <glyph glyph-name="ellipsis" unicode="&#x2026;" horiz-adv-x="607" 
d="M62 0v94h94v-94h-94zM257 0v94h94v-94h-94zM451 0v94h94v-94h-94z" />
    <glyph glyph-name="perthousand" unicode="&#x2030;" horiz-adv-x="1258" 
d="M40 530q0 80 38.5 129.5t109.5 49.5q70 0 108.5 -48.5t38.5 -130.5t-38 -131.5t-109 -49.5t-109.5 49t-38.5 132zM191 0l435 700h70l-436 -700h-69zM277 530q0 127 -89 127q-90 0 -90 -127q0 -129 90 -129q89 0 89 129zM705 -10q-71 0 -109.5 49t-38.5 132
q0 80 38.5 129.5t109.5 49.5q69 0 108.5 -49t39.5 -130t-38.5 -131t-109.5 -50zM1070 -10q-71 0 -109.5 49t-38.5 132q0 80 38.5 129.5t109.5 49.5q69 0 108.5 -49t39.5 -130t-38.5 -131t-109.5 -50zM705 42q89 0 89 129q0 127 -89 127t-89 -127q0 -129 89 -129zM1070 42
q89 0 89 129q0 127 -89 127t-89 -127q0 -129 89 -129z" />
    <glyph glyph-name="guilsinglleft" unicode="&#x2039;" horiz-adv-x="321" 
d="M218 60l-178 220l178 220h67l-178 -220l178 -220h-67z" />
    <glyph glyph-name="guilsinglright" unicode="&#x203a;" horiz-adv-x="321" 
d="M103 500l178 -220l-178 -220h-67l178 220l-178 220h67z" />
    <glyph glyph-name="uni2042" unicode="&#x2042;" horiz-adv-x="640" 
d="M196 597l13 39l49 -16q30 -9 49 -25q-10 16 -10 53v52h43v-52q0 -38 -8 -53q18 16 47 25l49 16l16 -40l-50 -17q-36 -12 -56 -9q22 -12 42 -39l31 -42l-34 -24l-30 40q-21 28 -28 54q-3 -24 -26 -54l-30 -40l-37 24l32 42q21 28 42 39q-23 -3 -57 10zM36 317l13 39
l49 -16q30 -9 49 -25q-10 16 -10 53v52h43v-52q0 -38 -8 -53q18 16 47 25l49 16l16 -40l-50 -17q-36 -12 -56 -9q22 -12 42 -39l31 -42l-34 -24l-30 40q-21 28 -28 54q-3 -24 -26 -54l-30 -40l-37 24l32 42q21 28 42 39q-23 -3 -57 10zM356 317l13 39l49 -16q30 -9 49 -25
q-10 16 -10 53v52h43v-52q0 -38 -8 -53q18 16 47 25l49 16l16 -40l-50 -17q-36 -12 -56 -9q22 -12 42 -39l31 -42l-34 -24l-30 40q-21 28 -28 54q-3 -24 -26 -54l-30 -40l-37 24l32 42q21 28 42 39q-23 -3 -57 10z" />
    <glyph glyph-name="fraction" unicode="&#x2044;" horiz-adv-x="168" 
d="M-170 0l450 700h58l-450 -700h-58z" />
    <glyph glyph-name="Euro" unicode="&#x20ac;" horiz-adv-x="624" 
d="M389 42q101 0 171 62l34 -50q-87 -70 -205 -70t-202.5 68.5t-114.5 182.5h-62v56h51q-3 27 -3 56q0 33 4 58h-52v56h62q30 113 114.5 181t202.5 68t205 -70l-34 -50q-70 62 -171 62q-93 0 -159 -51.5t-92 -139.5h303l-7 -56h-308q-4 -24 -4 -57t4 -57h297l-6 -56h-280
q27 -89 92.5 -141t159.5 -52z" />
    <glyph glyph-name="uni2116" unicode="&#x2116;" horiz-adv-x="1123" 
d="M728 530q0 82 47.5 131.5t124.5 49.5q78 0 125.5 -49.5t47.5 -131.5q0 -81 -47.5 -130.5t-125.5 -49.5q-77 0 -124.5 49.5t-47.5 130.5zM82 0v700h72l431 -614v614h60v-700h-72l-431 614v-614h-60zM780 531q0 -58 33.5 -94t86.5 -36q55 0 88 35.5t33 94.5t-33 94.5
t-88 35.5q-53 0 -86.5 -36t-33.5 -94zM792 224v52h216v-52h-216z" />
    <glyph glyph-name="uni2117" unicode="&#x2117;" horiz-adv-x="463" 
d="M423 518q0 -80 -56 -136t-135 -56t-135.5 56.5t-56.5 135.5t56.5 135.5t135.5 56.5q78 0 134.5 -55.5t56.5 -136.5zM232 673q-64 0 -109.5 -45.5t-45.5 -109.5t45.5 -109.5t109.5 -45.5q63 0 108.5 44.5t45.5 110.5q0 64 -45.5 109.5t-108.5 45.5zM203 481h50q31 0 51 18
t20 50q0 30 -20 49t-51 19h-85v-202h35v66zM251 586q16 0 26.5 -10t10.5 -26t-10.5 -27t-26.5 -11h-48v74h48z" />
    <glyph glyph-name="trademark" unicode="&#x2122;" horiz-adv-x="570" 
d="M20 658v42h237v-42h-99v-244h-42v244h-96zM509 700h41v-286h-43v137q0 40 6 59l-80 -196h-36l-81 195q5 -12 5 -57v-138h-42v286h40l95 -223z" />
    <glyph glyph-name="estimated" unicode="&#x212e;" horiz-adv-x="739" 
d="M40 353q1 158 93.5 257.5t236.5 99.5q147 0 237.5 -88.5t90.5 -240.5q2 -27 0 -53h-558v-180q82 -117 242 -117q77 0 141.5 36.5t96.5 96.5l38 -14q-37 -74 -111 -116.5t-167 -42.5q-153 0 -247.5 100.5t-92.5 261.5zM140 546v-182h459v200q-38 51 -98 79t-131 27
q-73 -1 -132.5 -34t-97.5 -90z" />
    <glyph glyph-name="oneeighth" unicode="&#x215b;" horiz-adv-x="714" 
d="M112 344v301l-82 -41v54l82 42h53v-356h-53zM518 700h58l-450 -700h-58zM634 194q25 -11 41.5 -35t16.5 -53q0 -49 -36.5 -80t-96.5 -31q-58 0 -94.5 30.5t-36.5 80.5q0 29 16.5 53t41.5 35q-39 27 -39 71q0 41 32 68.5t81 27.5t81 -27t32 -69q0 -47 -39 -71zM560 314
q-27 0 -44.5 -15.5t-17.5 -36.5q0 -22 17.5 -37t44.5 -15t44.5 15t17.5 37q0 21 -17.5 36.5t-44.5 15.5zM560 43q35 0 57 18t22 48q0 28 -21.5 44t-57.5 16t-57.5 -16t-21.5 -44q0 -30 21.5 -48t57.5 -18z" />
    <glyph glyph-name="threeeighths" unicode="&#x215c;" horiz-adv-x="769" 
d="M266 443q0 -45 -34.5 -74.5t-85.5 -29.5q-56 0 -88.5 31t-32.5 82h50q-1 -31 20 -48.5t52 -17.5t48 16.5t17 42.5q0 27 -17 43t-47 16h-29v46h25q30 0 47 14t17 39q0 26 -17 40.5t-46 14.5q-32 0 -51.5 -17.5t-18.5 -48.5h-50q0 51 33 82t89 31q51 0 83 -27t32 -73
q0 -55 -45 -78q49 -25 49 -84zM573 700h58l-450 -700h-58zM689 194q25 -11 41.5 -35t16.5 -53q0 -49 -36.5 -80t-96.5 -31q-58 0 -94.5 30.5t-36.5 80.5q0 29 16.5 53t41.5 35q-39 27 -39 71q0 41 32 68.5t81 27.5t81 -27t32 -69q0 -47 -39 -71zM615 314q-27 0 -44.5 -15.5
t-17.5 -36.5q0 -22 17.5 -37t44.5 -15t44.5 15t17.5 37q0 21 -17.5 36.5t-44.5 15.5zM615 43q35 0 57 18t22 48q0 28 -21.5 44t-57.5 16t-57.5 -16t-21.5 -44q0 -30 21.5 -48t57.5 -18z" />
    <glyph glyph-name="fiveeighths" unicode="&#x215d;" horiz-adv-x="780" 
d="M279 466q0 -58 -36 -92.5t-91 -34.5q-51 0 -85.5 28.5t-37.5 77.5h50q3 -27 23 -43.5t50 -16.5q33 0 53 22t20 57t-20 56t-54 21q-48 0 -67 -39h-52l36 198h191v-47h-147l-17 -87q25 20 65 20q53 0 86 -32.5t33 -87.5zM584 700h58l-450 -700h-58zM700 194
q25 -11 41.5 -35t16.5 -53q0 -49 -36.5 -80t-96.5 -31q-58 0 -94.5 30.5t-36.5 80.5q0 29 16.5 53t41.5 35q-39 27 -39 71q0 41 32 68.5t81 27.5t81 -27t32 -69q0 -47 -39 -71zM626 314q-27 0 -44.5 -15.5t-17.5 -36.5q0 -22 17.5 -37t44.5 -15t44.5 15t17.5 37
q0 21 -17.5 36.5t-44.5 15.5zM626 43q35 0 57 18t22 48q0 28 -21.5 44t-57.5 16t-57.5 -16t-21.5 -44q0 -30 21.5 -48t57.5 -18z" />
    <glyph glyph-name="seveneighths" unicode="&#x215e;" horiz-adv-x="716" 
d="M114 344h-53q23 159 129 309h-180v47h240v-51q-53 -64 -89 -146t-47 -159zM520 700h58l-450 -700h-58zM636 194q25 -11 41.5 -35t16.5 -53q0 -49 -36.5 -80t-96.5 -31q-58 0 -94.5 30.5t-36.5 80.5q0 29 16.5 53t41.5 35q-39 27 -39 71q0 41 32 68.5t81 27.5t81 -27
t32 -69q0 -47 -39 -71zM562 314q-27 0 -44.5 -15.5t-17.5 -36.5q0 -22 17.5 -37t44.5 -15t44.5 15t17.5 37q0 21 -17.5 36.5t-44.5 15.5zM562 43q35 0 57 18t22 48q0 28 -21.5 44t-57.5 16t-57.5 -16t-21.5 -44q0 -30 21.5 -48t57.5 -18z" />
    <glyph glyph-name="uni2160" unicode="&#x2160;" horiz-adv-x="508" 
d="M448 650h-165v-600h165v-50h-388v50h167v600h-167v50h388v-50z" />
    <glyph glyph-name="uni2161" unicode="&#x2161;" horiz-adv-x="806" 
d="M746 0h-686v50h153v600h-153v50h686v-50h-150v-600h150v-50zM539 650h-270v-600h270v600z" />
    <glyph glyph-name="uni2162" unicode="&#x2162;" horiz-adv-x="1120" 
d="M1060 0h-1000v50h150v600h-150v50h1000v-50h-151v-600h151v-50zM267 50h265v600h-265v-600zM853 650h-265v-600h265v600z" />
    <glyph glyph-name="uni2163" unicode="&#x2163;" horiz-adv-x="1096" 
d="M1036 0h-976v49h150v601h-150v50h974v-50h-128l-198 -601h328v-49zM267 49h331l-201 601h-130v-601zM843 650h-383l193 -591z" />
    <glyph glyph-name="uni2164" unicode="&#x2164;" horiz-adv-x="848" 
d="M788 650h-104l-203 -602h303v-48h-716v48h303l-202 602h-109v50h728v-50zM621 650h-389l194 -593z" />
    <glyph glyph-name="uni2165" unicode="&#x2165;" horiz-adv-x="1097" 
d="M1037 0h-977v50h327l-201 600h-126v50h976v-50h-150v-600h151v-50zM637 650h-388l193 -592zM497 50h334v600h-131z" />
    <glyph glyph-name="uni2166" unicode="&#x2166;" horiz-adv-x="1431" 
d="M1371 0h-1311v50h326l-198 600h-128v50h1311v-50h-165v-600h165v-50zM639 650h-388l190 -592zM496 50h334v600h-128zM1150 650h-264v-600h264v600z" />
    <glyph glyph-name="uni2167" unicode="&#x2167;" horiz-adv-x="1716" 
d="M1656 0h-1596v50h323l-195 600h-128v50h1596v-50h-157v-600h157v-50zM625 650h-374l187 -595zM493 50h330v600h-135zM879 50h255v600h-255v-600zM1189 50h255v600h-255v-600z" />
    <glyph glyph-name="uni2168" unicode="&#x2168;" horiz-adv-x="1062" 
d="M1002 0h-942v48h152v602h-152v50h941v-50h-104l-216 -308l205 -294h116v-48zM396 650h-129v-602h135l211 293zM645 383l185 267h-367zM468 48h348l-171 252z" />
    <glyph glyph-name="uni2169" unicode="&#x2169;" horiz-adv-x="827" 
d="M766 650h-103l-215 -307l204 -295h115v-48h-707v48h110l210 294l-218 308h-102v50h706v-50zM413 382l183 268h-367zM233 48h350l-171 252z" />
    <glyph glyph-name="arrowleft" unicode="&#x2190;" horiz-adv-x="799" 
d="M365 556l42 -42l-233 -233h565v-60h-565l233 -233l-42 -42l-305 305z" />
    <glyph glyph-name="arrowup" unicode="&#x2191;" horiz-adv-x="736" 
d="M60 377l308 302l308 -302l-42 -42l-236 230v-565h-60v565l-236 -230z" />
    <glyph glyph-name="arrowright" unicode="&#x2192;" horiz-adv-x="799" 
d="M434 556l305 -305l-305 -305l-42 42l233 233h-565v60h565l-233 233z" />
    <glyph glyph-name="arrowdown" unicode="&#x2193;" horiz-adv-x="730" 
d="M670 283l-305 -305l-305 305l42 42l233 -233v565h60v-565l233 233z" />
    <glyph glyph-name="arrowboth" unicode="&#x2194;" horiz-adv-x="938" 
d="M665 34v88l97 100l-361 -1v1l-225 -1l100 -101v-87l-216 218l214 217v-88l-97 -99l222 1v1l362 -1l-97 99v87l214 -216z" />
    <glyph glyph-name="arrowupdn" unicode="&#x2195;" horiz-adv-x="554" 
d="M306 -43l100 98h88l-218 -215l-216 215h86l100 -98l-1 223v140l1 222l-100 -98h-86l216 214l218 -214h-88l-100 98v-585z" />
    <glyph glyph-name="uni2196" unicode="&#x2196;" horiz-adv-x="621" 
d="M491 502v-60h-329l399 -399l-42 -43l-400 400v-330h-59v432h431z" />
    <glyph glyph-name="uni2197" unicode="&#x2197;" horiz-adv-x="621" 
d="M130 502h431v-432h-59v330l-400 -400l-42 43l399 399h-329v60z" />
    <glyph glyph-name="uni2198" unicode="&#x2198;" horiz-adv-x="622" 
d="M562 431v-431h-432v59h330l-400 400l43 42l399 -399v329h60z" />
    <glyph glyph-name="uni2199" unicode="&#x2199;" horiz-adv-x="621" 
d="M491 0h-431v432h59v-330l400 400l42 -43l-399 -399h329v-60z" />
    <glyph glyph-name="partialdiff" unicode="&#x2202;" horiz-adv-x="603" 
d="M310 700q111 -70 172 -183t61 -235q0 -129 -67.5 -210.5t-191.5 -81.5q-111 0 -175 68.5t-64 180.5q0 103 65.5 176.5t179.5 73.5q54 0 103 -22.5t76 -63.5q-57 184 -247 297h88zM290 40q85 0 135.5 56t50.5 143q0 88 -50.5 144t-135.5 56t-135 -56t-50 -144
q0 -87 50 -143t135 -56z" />
    <glyph glyph-name="emptyset" unicode="&#x2205;" horiz-adv-x="647" 
d="M589 491l-69 -73q53 -70 53 -169q0 -112 -67 -185.5t-177 -73.5q-95 0 -160 57l-65 -68l-36 29l69 73q-52 71 -52 168q0 112 67.5 186t176.5 74q95 0 160 -57l64 68zM143 249q0 -71 35 -125l271 286q-50 44 -120 44q-81 0 -133.5 -58t-52.5 -147zM515 249q0 73 -36 126
l-270 -286q49 -44 120 -44q81 0 133.5 57.5t52.5 146.5z" />
    <glyph glyph-name="product" unicode="&#x220f;" horiz-adv-x="648" 
d="M60 700h528v-62h-117v-642h-62v642h-169v-642h-61v642h-119v62z" />
    <glyph glyph-name="summation" unicode="&#x2211;" horiz-adv-x="591" 
d="M60 -126v59l233 354l-233 354v59h471v-58l-400 -1l232 -354l-232 -354l400 -1v-58h-471z" />
    <glyph glyph-name="minus" unicode="&#x2212;" 
d="M70 360h460v-60h-460v60z" />
    <glyph glyph-name="radical" unicode="&#x221a;" horiz-adv-x="779" 
d="M708 760v-58h-143l-303 -802h-61l-141 377h61l111 -296l294 779h182z" />
    <glyph glyph-name="infinity" unicode="&#x221e;" horiz-adv-x="931" 
d="M235 71q-82 0 -138.5 57.5t-56.5 138.5t57 139t138 58q40 0 74 -12t64 -38t47 -44.5t46 -54.5q29 36 45.5 54.5t47 44.5t64 38t73.5 12q81 0 138 -58.5t57 -138.5q0 -79 -56 -137.5t-139 -58.5q-40 0 -74 12t-64 38t-46.5 45t-45.5 55q-28 -36 -45.5 -55t-47.5 -45
t-64 -38t-74 -12zM235 129q46 0 88 30t105 108q-62 79 -103 109t-90 30q-57 0 -95.5 -40.5t-38.5 -98.5q0 -56 39 -97t95 -41zM696 129q57 0 96 40.5t39 97.5t-39 98t-96 41q-48 0 -88.5 -29.5t-103.5 -109.5q62 -78 103 -108t89 -30z" />
    <glyph glyph-name="integral" unicode="&#x222b;" horiz-adv-x="440" 
d="M310 753h50v-53h-56q-24 0 -40.5 -16.5t-16.5 -42.5v-664q0 -62 -33.5 -96t-89.5 -34h-44v53h49q28 0 44 16.5t16 44.5v669q0 58 35 90.5t86 32.5z" />
    <glyph glyph-name="approxequal" unicode="&#x2248;" 
d="M316 465l15 -12t14 -11t12 -8.5t13.5 -7.5t13 -3.5t16.5 -1.5q26 0 41 19.5t15 53.5h56q0 -59 -31 -96t-81 -37q-17 0 -31.5 3t-28.5 11t-20.5 12t-21.5 16.5t-17 14.5q-4 3 -15.5 13t-16.5 13.5t-14.5 9.5t-18 8t-18.5 2q-25 0 -40.5 -20t-15.5 -53h-55q0 59 31 96
t80 37q17 0 32.5 -4t28.5 -11.5t21 -13.5t20.5 -16.5t15.5 -13.5zM316 245l15 -12t14 -11t12 -8.5t13.5 -7.5t13 -3.5t16.5 -1.5q26 0 41 19.5t15 53.5h56q0 -59 -31 -96t-81 -37q-17 0 -31.5 3t-28.5 11t-20.5 12t-21.5 16.5t-17 14.5q-4 3 -15.5 13t-16.5 13.5t-14.5 9.5
t-18 8t-18.5 2q-25 0 -40.5 -20t-15.5 -53h-55q0 59 31 96t80 37q17 0 32.5 -4t28.5 -11.5t21 -13.5t20.5 -16.5t15.5 -13.5z" />
    <glyph glyph-name="notequal" unicode="&#x2260;" 
d="M493 406h-128l-68 -150h193v-59h-220l-48 -105h-59l48 105h-103v59h130l68 150h-195v59h222l46 102h59l-46 -102h101v-59z" />
    <glyph glyph-name="lessequal" unicode="&#x2264;" 
d="M504 583v-69l-337 -158l337 -156v-68l-396 190v70zM108 59h396v-59h-396v59z" />
    <glyph glyph-name="greaterequal" unicode="&#x2265;" 
d="M96 132v69l337 158l-337 156v68l396 -190v-70zM492 59v-59h-396v59h396z" />
    <glyph glyph-name="filledbox" unicode="&#x25a0;" horiz-adv-x="779" 
d="M40 700h699v-699h-699v699z" />
    <glyph glyph-name="uni25A1" unicode="&#x25a1;" horiz-adv-x="780" 
d="M40 700h700v-700h-700v700zM96 644v-588h588v588h-588z" />
    <glyph glyph-name="triagup" unicode="&#x25b2;" horiz-adv-x="931" 
d="M40 0h851l-426 703z" />
    <glyph glyph-name="uni25B3" unicode="&#x25b3;" horiz-adv-x="927" 
d="M40 0l423 700l424 -700h-847zM134 53h658l-329 544z" />
    <glyph glyph-name="lozenge" unicode="&#x25ca;" horiz-adv-x="579" 
d="M256 0l-216 350l216 350h68l215 -350l-215 -350h-68zM475 350l-186 302l-185 -302l185 -300z" />
    <glyph glyph-name="circle" unicode="&#x25cb;" horiz-adv-x="803" 
d="M401 -10q-150 0 -255.5 106t-105.5 256q0 149 106 255t255 106t255.5 -106t106.5 -255t-106.5 -255.5t-255.5 -106.5zM401 45q127 0 217 90t90 217t-90 216.5t-217 89.5t-216.5 -89.5t-89.5 -216.5t89.5 -217t216.5 -90z" />
    <glyph glyph-name="uni25CF" unicode="&#x25cf;" horiz-adv-x="809" 
d="M405 -19q-151 0 -258 106.5t-107 258.5q0 151 107 257.5t258 106.5t257.5 -106.5t106.5 -257.5t-106.5 -258t-257.5 -107z" />
    <glyph glyph-name="uni262E" unicode="&#x262e;" horiz-adv-x="803" 
d="M401 -10q-150 0 -255.5 106t-105.5 256q0 149 106 255t255 106t255.5 -106t106.5 -255t-106.5 -255.5t-255.5 -106.5zM123 223l249 152v282q-117 -11 -197 -98.5t-80 -206.5q0 -68 28 -129zM680 224q28 61 28 128q0 119 -79.5 206t-196.5 98v-281zM372 46v259l-218 -135
q38 -52 95 -84.5t123 -39.5zM432 47q136 14 217 124l-217 134v-258z" />
    <glyph glyph-name="uni2713" unicode="&#x2713;" horiz-adv-x="779" 
d="M654 500l33 -33l-405 -401l-195 216l36 34l159 -178z" />
    <glyph glyph-name="uniA7B6" unicode="&#xa7b6;" horiz-adv-x="784" 
d="M554 59h190v-59h-266v56q86 69 129.5 147t43.5 185q0 119 -69 191.5t-190 72.5t-190 -72.5t-69 -191.5q0 -107 43.5 -185t129.5 -147v-56h-266v59h190q-161 134 -161 328q0 144 88 233.5t235 89.5t235 -89.5t88 -233.5q0 -194 -161 -328z" />
    <glyph glyph-name="i.loclTRK" horiz-adv-x="211" 
d="M63 622v78h85v-78h-85zM77 0v500h57v-500h-57z" />
    <glyph glyph-name="f_f_t" horiz-adv-x="953" 
d="M911 448h-119v-330q0 -65 63 -65h55v-53h-63q-51 0 -81.5 28.5t-30.5 86.5v333h-252v-448h-58v448h-256v-448h-58v448h-90v52h90v110q0 64 31 92t92 28h63v-53h-66q-36 0 -49 -17t-13 -50v-110h256v110q0 64 31 92t92 28h63v-53h-66q-36 0 -49 -17t-13 -50v-110h209
q24 0 33.5 10t9.5 32v86h57v-128h119v-52z" />
    <glyph glyph-name="f_t" horiz-adv-x="639" 
d="M597 448h-119v-330q0 -65 63 -65h55v-53h-63q-51 0 -81.5 28.5t-30.5 86.5v333h-252v-448h-58v448h-90v52h90v110q0 64 31 92t92 28h63v-53h-66q-36 0 -49 -17t-13 -50v-110h209q24 0 33.5 10t9.5 32v86h57v-128h119v-52z" />
    <glyph glyph-name="t_t" horiz-adv-x="635" 
d="M593 445h-119v-320q0 -65 63 -65h56l-1 -60h-63q-49 0 -81 30.5t-32 84.5v330h-252v-320q0 -65 63 -65h56l-1 -60h-63q-49 0 -81 30.5t-32 84.5v330h-94v55h47q47 0 47 48v90h58v-138h205q47 0 47 48v90h58v-138h119v-55z" />
    <glyph glyph-name="zero.tf" horiz-adv-x="650" 
d="M325 710q122 0 188.5 -96.5t66.5 -263.5t-66.5 -263.5t-188.5 -96.5t-188.5 96.5t-66.5 263.5t66.5 263.5t188.5 96.5zM325 656q-95 0 -144 -82t-49 -224q0 -131 41 -211l276 462q-49 55 -124 55zM325 44q95 0 144 82t49 224q0 131 -41 210l-276 -461q47 -55 124 -55z
" />
    <glyph glyph-name="one.tf" horiz-adv-x="650" 
d="M382 59h191v-59h-446v59h195v576l-195 -87v64l195 88h60v-641z" />
    <glyph glyph-name="two.tf" horiz-adv-x="650" 
d="M178 59h375v-59h-455v56l272 261q64 61 89.5 104t25.5 89q0 69 -40 107.5t-119 38.5q-66 0 -111.5 -40.5t-49.5 -102.5h-65q7 90 72.5 143.5t152.5 53.5q100 0 161.5 -52t61.5 -144q0 -58 -31.5 -110.5t-96.5 -114.5z" />
    <glyph glyph-name="three.tf" horiz-adv-x="650" 
d="M431 363q64 -17 98 -65t34 -111q0 -90 -64 -143.5t-174 -53.5q-109 0 -173 55t-64 146h65q0 -68 44.5 -107.5t126.5 -39.5q81 0 128 39t47 105q0 67 -46.5 106t-127.5 39h-48v58h46q76 0 116 36.5t40 98.5q0 61 -41.5 95.5t-113.5 34.5q-82 0 -126.5 -39.5t-44.5 -107.5
h-65q0 91 64 146t173 55q99 0 158.5 -50t59.5 -134q0 -53 -28 -97t-84 -66z" />
    <glyph glyph-name="four.tf" horiz-adv-x="650" 
d="M417 0v152h-350v54l340 494h70v-491h107v-57h-107v-152h-60zM137 209h280v407z" />
    <glyph glyph-name="five.tf" horiz-adv-x="650" 
d="M328 467q104 0 167.5 -65.5t63.5 -172.5q0 -110 -65.5 -174.5t-170.5 -64.5q-92 0 -156.5 51t-74.5 134h65q10 -63 54.5 -97t111.5 -34q79 0 126.5 51.5t47.5 135.5q0 82 -47 132t-124 50q-102 0 -153 -82h-66l65 369h361v-58h-315l-43 -231q23 25 64.5 40.5t88.5 15.5z
" />
    <glyph glyph-name="six.tf" horiz-adv-x="650" 
d="M334 482q103 0 171 -66t68 -179q0 -111 -66.5 -179t-172.5 -68q-121 0 -190 88t-69 263q0 172 72.5 270.5t205.5 98.5q78 0 140.5 -41.5t81.5 -120.5h-65q-42 106 -165 106q-101 0 -152.5 -75.5t-56.5 -212.5q24 53 76.5 84.5t121.5 31.5zM335 46q82 0 129 55t47 136
q0 82 -47 135.5t-130 53.5q-81 0 -131.5 -51.5t-50.5 -134.5t50.5 -138.5t132.5 -55.5z" />
    <glyph glyph-name="seven.tf" horiz-adv-x="650" 
d="M480 641h-383v59h456v-56q-103 -139 -178.5 -312.5t-101.5 -331.5h-62q30 167 102.5 340t166.5 301z" />
    <glyph glyph-name="eight.tf" horiz-adv-x="650" 
d="M452 378q59 -22 93.5 -73.5t34.5 -113.5q0 -88 -70 -144.5t-185 -56.5t-185 56.5t-70 144.5q0 62 34.5 113.5t93.5 73.5q-98 48 -98 152q0 83 62 131.5t163 48.5t163 -48.5t62 -131.5q0 -104 -98 -152zM160 530q0 -60 44.5 -95.5t120.5 -35.5t120.5 35.5t44.5 95.5
t-44.5 94t-120.5 34t-120.5 -34t-44.5 -94zM325 46q89 0 141 39.5t52 108.5q0 71 -52 112t-141 41t-141 -41t-52 -112q0 -69 52 -108.5t141 -39.5z" />
    <glyph glyph-name="nine.tf" horiz-adv-x="650" 
d="M316 710q120 0 189 -93t69 -273q0 -76 -13 -137t-42 -111.5t-80.5 -78t-122.5 -27.5q-85 0 -146.5 45t-78.5 117h65q41 -106 161 -106q51 0 90 20.5t62 56t34 79t11 93.5q0 12 -2 38q-24 -53 -76 -84t-121 -31q-103 0 -171 66t-68 179q0 111 66.5 179t173.5 68zM495 460
q2 83 -48.5 138.5t-132.5 55.5t-129 -55t-47 -136q0 -82 47 -135.5t130 -53.5q81 0 129.5 51t50.5 135z" />
    <glyph glyph-name="zero.dnom" horiz-adv-x="339" 
d="M169 361q-69 0 -107 -50t-38 -133t38 -133t107 -50t107.5 50t38.5 133t-38.5 133t-107.5 50zM263 178q0 -62 -24.5 -97.5t-69.5 -35.5t-68.5 35t-23.5 98q0 62 23.5 97t68.5 35t69.5 -35t24.5 -97z" />
    <glyph glyph-name="one.dnom" horiz-adv-x="213" 
d="M165 0h-53v303l-82 -41v52l82 42h53v-356z" />
    <glyph glyph-name="two.dnom" horiz-adv-x="301" 
d="M106 51h170v-51h-241v50l135 117q48 42 49 80q1 30 -16.5 47.5t-48.5 17.5q-29 0 -48.5 -17t-20.5 -44h-53q2 51 37.5 80.5t86.5 29.5t84.5 -28.5t34.5 -76.5q1 -61 -62 -114z" />
    <glyph glyph-name="three.dnom" horiz-adv-x="293" 
d="M217 183q49 -25 49 -84q0 -45 -34.5 -74.5t-85.5 -29.5q-56 0 -88.5 31t-32.5 82h50q-1 -31 20 -48.5t52 -17.5t48 16.5t17 42.5q0 27 -17 43t-47 16h-29v46h25q30 0 47 14t17 39q0 26 -17 40.5t-46 14.5q-32 0 -51.5 -17.5t-18.5 -48.5h-50q0 51 33 82t89 31
q51 0 83 -27t32 -73q0 -55 -45 -78z" />
    <glyph glyph-name="four.dnom" horiz-adv-x="315" 
d="M189 0v72h-168v48l168 236h54v-236h54v-48h-54v-72h-54zM78 120h111v159z" />
    <glyph glyph-name="five.dnom" horiz-adv-x="304" 
d="M160 242q53 0 86 -32.5t33 -87.5q0 -58 -36 -92.5t-91 -34.5q-51 0 -85.5 28.5t-37.5 77.5h50q3 -27 23 -43.5t50 -16.5q33 0 53 22t20 57t-20 56t-54 21q-48 0 -67 -39h-52l36 198h191v-47h-147l-17 -87q25 20 65 20z" />
    <glyph glyph-name="six.dnom" horiz-adv-x="319" 
d="M170 246q51 0 87 -33.5t36 -90.5t-36 -92t-91 -35q-58 0 -97 43.5t-39 133.5q0 87 38 138t106 51q45 0 78.5 -24t41.5 -67h-53q-16 44 -71 44q-40 1 -61 -28t-24 -80q27 40 85 40zM165 42q34 0 54.5 22.5t20.5 57.5q0 34 -20.5 56t-54.5 22t-55 -21.5t-21 -55.5
q0 -35 21 -58t55 -23z" />
    <glyph glyph-name="seven.dnom" horiz-adv-x="260" 
d="M190 309h-180v47h240v-51q-53 -64 -89 -146t-47 -159h-53q23 159 129 309z" />
    <glyph glyph-name="eight.dnom" horiz-adv-x="308" 
d="M228 194q25 -11 41.5 -35t16.5 -53q0 -49 -36.5 -80t-96.5 -31q-58 0 -94.5 30.5t-36.5 80.5q0 29 16.5 53t41.5 35q-39 27 -39 71q0 41 32 68.5t81 27.5t81 -27t32 -69q0 -47 -39 -71zM154 314q-27 0 -44.5 -15.5t-17.5 -36.5q0 -22 17.5 -37t44.5 -15t44.5 15t17.5 37
q0 21 -17.5 36.5t-44.5 15.5zM154 43q35 0 57 18t22 48q0 28 -21.5 44t-57.5 16t-57.5 -16t-21.5 -44q0 -30 21.5 -48t57.5 -18z" />
    <glyph glyph-name="nine.dnom" horiz-adv-x="320" 
d="M156 361q59 0 96 -44.5t37 -139.5q0 -182 -136 -182q-49 0 -80.5 25t-39.5 66h52q15 -45 68 -45q43 -1 64 31t18 79q-28 -41 -85 -41q-51 0 -87.5 33.5t-36.5 90.5q0 58 36.5 92.5t93.5 34.5zM154 156q34 0 55.5 21t21.5 56t-21.5 58t-55.5 23t-54.5 -22.5t-20.5 -57.5
q0 -34 20.5 -56t54.5 -22z" />
    <glyph glyph-name="zero.numr" horiz-adv-x="339" 
d="M169 705q-69 0 -107.5 -50t-38.5 -133t38.5 -133t107.5 -50t108 50t39 133t-39 133t-108 50zM263 522q0 -63 -24.5 -99t-69.5 -36t-68.5 36t-23.5 99q0 62 23.5 98t68.5 36t69.5 -36t24.5 -98z" />
    <glyph glyph-name="one.numr" horiz-adv-x="213" 
d="M165 344h-53v301l-82 -41v54l82 42h53v-356z" />
    <glyph glyph-name="two.numr" horiz-adv-x="301" 
d="M106 395h170v-51h-241v50l135 117q48 42 49 80q1 30 -16.5 47.5t-48.5 17.5q-29 0 -48.5 -17t-20.5 -44h-53q2 51 37.5 80.5t86.5 29.5t84.5 -28.5t34.5 -76.5q1 -61 -62 -114z" />
    <glyph glyph-name="three.numr" horiz-adv-x="293" 
d="M217 527q49 -25 49 -84q0 -45 -34.5 -74.5t-85.5 -29.5q-56 0 -88.5 31t-32.5 82h50q-1 -31 20 -48.5t52 -17.5t48 16.5t17 42.5q0 27 -17 43t-47 16h-29v46h25q30 0 47 14t17 39q0 26 -17 40.5t-46 14.5q-32 0 -51.5 -17.5t-18.5 -48.5h-50q0 51 33 82t89 31
q51 0 83 -27t32 -73q0 -55 -45 -78z" />
    <glyph glyph-name="four.numr" horiz-adv-x="315" 
d="M189 344v72h-168v48l168 236h54v-236h54v-48h-54v-72h-54zM78 464h111v159z" />
    <glyph glyph-name="five.numr" horiz-adv-x="304" 
d="M160 586q53 0 86 -32.5t33 -87.5q0 -58 -36 -92.5t-91 -34.5q-51 0 -85.5 28.5t-37.5 77.5h50q3 -27 23 -43.5t50 -16.5q33 0 53 22t20 57t-20 56t-54 21q-48 0 -67 -39h-52l36 198h191v-47h-147l-17 -87q25 20 65 20z" />
    <glyph glyph-name="six.numr" horiz-adv-x="319" 
d="M170 590q51 0 85.5 -33.5t34.5 -90.5q0 -58 -35 -92.5t-89 -34.5q-58 0 -97 43.5t-39 133.5q0 87 38 138t106 51q45 0 78.5 -24t41.5 -67h-53q-16 44 -71 44q-41 1 -62 -28.5t-23 -79.5q27 40 85 40zM165 386q34 0 54.5 22.5t20.5 57.5q0 34 -20.5 56t-54.5 22t-55 -21.5
t-21 -55.5q0 -35 21 -58t55 -23z" />
    <glyph glyph-name="seven.numr" horiz-adv-x="260" 
d="M190 653h-180v47h240v-51q-53 -64 -89 -146t-47 -159h-53q23 159 129 309z" />
    <glyph glyph-name="eight.numr" horiz-adv-x="308" 
d="M228 538q25 -11 41.5 -35t16.5 -53q0 -49 -36.5 -80t-96.5 -31q-58 0 -94.5 30.5t-36.5 80.5q0 29 16.5 53t41.5 35q-39 27 -39 71q0 41 32 68.5t81 27.5t81 -27t32 -69q0 -47 -39 -71zM154 660q-26 0 -44 -16t-18 -37q0 -22 17.5 -37.5t44.5 -15.5t44.5 15.5t17.5 37.5
q0 21 -18 37t-44 16zM154 387q35 0 57 18t22 48q0 28 -21.5 44t-57.5 16t-57.5 -16t-21.5 -44q0 -30 21.5 -48t57.5 -18z" />
    <glyph glyph-name="nine.numr" horiz-adv-x="320" 
d="M156 705q59 0 96 -44.5t37 -139.5q0 -182 -136 -182q-49 0 -80.5 25t-39.5 66h52q15 -45 68 -45q43 -1 64 31t18 79q-28 -41 -85 -41q-51 0 -86 33.5t-35 90.5q0 58 35.5 92.5t91.5 34.5zM154 500q34 0 55.5 21t21.5 56t-21.5 58t-55.5 23t-54.5 -22.5t-20.5 -57.5
q0 -34 20.5 -56t54.5 -22z" />
    </font>
</defs>
</svg>
