<svg xmlns="http://www.w3.org/2000/svg" width="67.251" height="69" viewBox="0 0 67.251 69">
  <g id="benefits-3" transform="translate(-6.284)">
    <path id="Path_8553" data-name="Path 8553" d="M366.138,279.45l-5.35-3.014-3.207,13.745,13.643,13.745,3.169,1.785a1.044,1.044,0,0,0,1.488-1.28L366.6,279.989a1.044,1.044,0,0,0-.463-.539Z" transform="translate(-302.417 -237.972)" fill="#ffbe3b"/>
    <path id="Path_8554" data-name="Path 8554" d="M299.186,250.56l-5.74,12.275L304.4,275.11l11.609,6.54-10.436-27.49Z" transform="translate(-247.205 -215.696)" fill="#ffd45e"/>
    <path id="Path_8555" data-name="Path 8555" d="M221.278,250.56l-12.071,6.8-6.261,13.668,6.261,13.668a1.042,1.042,0,0,0,.512-.134L226.5,275.11Z" transform="translate(-169.298 -215.696)" fill="#ffe88c"/>
    <path id="Path_8556" data-name="Path 8556" d="M93.422,250.56,82.468,262.835,88.2,275.11l16.776,9.451a1.043,1.043,0,0,0,.512.134V257.36Z" transform="translate(-65.584 -215.696)" fill="#ffd45e"/>
    <path id="Path_8557" data-name="Path 8557" d="M27.839,250.56l-5.218,24.55L7.843,283.436a1.044,1.044,0,0,1-1.488-1.28l9.279-24.443a1.044,1.044,0,0,1,.463-.539Z" transform="translate(0 -215.696)" fill="#ffe88c"/>
    <path id="Path_8558" data-name="Path 8558" d="M247.946,0V52.179a2.084,2.084,0,0,0,1.764-.975S263.846,28.79,263.846,28.79A18.788,18.788,0,0,0,247.946,0Z" transform="translate(-208.036)" fill="#fc5e32"/>
    <path id="Path_8559" data-name="Path 8559" d="M133.1,51.2S144.1,28.79,144.1,28.79a22.787,22.787,0,0,0,2.243-10.006C146.34,8.41,139.8,0,131.73,0a18.786,18.786,0,0,0-15.9,28.79S129.963,51.2,129.963,51.2a2.091,2.091,0,0,0,1.767.975A1.582,1.582,0,0,0,133.1,51.2Z" transform="translate(-91.821)" fill="#ff7d4a"/>
    <circle id="Ellipse_44" data-name="Ellipse 44" cx="10.436" cy="10.436" r="10.436" transform="translate(29.474 8.349)" fill="#fff"/>
    <path id="Path_8560" data-name="Path 8560" d="M247.946,90v12.523a6.261,6.261,0,0,0,0-12.523Z" transform="translate(-208.036 -77.477)" fill="#ff7d4a"/>
    <path id="Path_8561" data-name="Path 8561" d="M211.295,96.261c0-3.458-.934-6.261-2.087-6.261a6.261,6.261,0,0,0,0,12.523C210.36,102.523,211.295,99.72,211.295,96.261Z" transform="translate(-169.298 -77.477)" fill="#ff9a6b"/>
  </g>
</svg>
