<svg xmlns="http://www.w3.org/2000/svg" width="73.741" height="69.829" viewBox="0 0 73.741 69.829">
  <g id="benefits-1" transform="translate(0 -13.582)">
    <path id="Path_8529" data-name="Path 8529" d="M.685,43.227a4.518,4.518,0,0,0,4.17,4.014l.538.037A2.529,2.529,0,0,1,7.751,49.8v5.029a2.044,2.044,0,0,0,3.282,1.627,37.474,37.474,0,0,0,7.726-7.537,2.521,2.521,0,0,1,2.09-1.077q9.256.047,18.512-.6a4.511,4.511,0,0,0,3.832-2.722,4.438,4.438,0,0,0,.338-1.282,114.757,114.757,0,0,0,0-25.047,4.511,4.511,0,0,0-4.168-4A246.005,246.005,0,0,0,11.787,13.8q-3.465.144-6.931.388a4.512,4.512,0,0,0-4.17,4,114.734,114.734,0,0,0,0,25.036Z" transform="translate(0 0)" fill="#9dc6fb"/>
    <path id="Path_8530" data-name="Path 8530" d="M232.553,211.019a4.792,4.792,0,0,1-4.423,4.258l-.57.039a2.682,2.682,0,0,0-2.5,2.675v5.333a2.168,2.168,0,0,1-3.481,1.726,39.745,39.745,0,0,1-8.195-7.994,2.674,2.674,0,0,0-2.216-1.142q-9.818.049-19.635-.638a4.784,4.784,0,0,1-4.064-2.887,4.713,4.713,0,0,1-.359-1.36,121.713,121.713,0,0,1,0-26.566,4.784,4.784,0,0,1,4.42-4.247,260.9,260.9,0,0,1,29.248-.411q3.675.152,7.351.411a4.785,4.785,0,0,1,4.423,4.247,121.682,121.682,0,0,1,0,26.555Z" transform="translate(-159.538 -142.087)" fill="#ffc250"/>
    <g id="Group_6267" data-name="Group 6267" transform="translate(40.165 49.288)">
      <path id="Path_8531" data-name="Path 8531" d="M283.044,264.958c0-1.909-.935-3.462-2.085-3.462s-2.085,1.553-2.085,3.462.935,3.462,2.085,3.462S283.044,266.867,283.044,264.958Z" transform="translate(-278.875 -261.496)" fill="#454045"/>
      <path id="Path_8532" data-name="Path 8532" d="M392.643,261.5c-1.15,0-2.085,1.553-2.085,3.462s.935,3.462,2.085,3.462,2.085-1.553,2.085-3.462S393.792,261.5,392.643,261.5Z" transform="translate(-374.473 -261.496)" fill="#454045"/>
      <path id="Path_8533" data-name="Path 8533" d="M309.36,325.552a1.113,1.113,0,0,0-1.458.593,6.273,6.273,0,0,1-11.563,0,1.113,1.113,0,0,0-2.051.865,8.5,8.5,0,0,0,15.664,0A1.113,1.113,0,0,0,309.36,325.552Z" transform="translate(-291.994 -316.252)" fill="#454045"/>
    </g>
    <g id="Group_6268" data-name="Group 6268" transform="translate(6.191 20.681)">
      <path id="Path_8534" data-name="Path 8534" d="M69.256,65.1H44.1a1.113,1.113,0,1,1,0-2.225H69.256a1.113,1.113,0,0,1,0,2.225Z" transform="translate(-42.985 -62.872)" fill="#f9f6f9"/>
      <path id="Path_8535" data-name="Path 8535" d="M69.256,110.341H44.1a1.113,1.113,0,1,1,0-2.225H69.256a1.113,1.113,0,0,1,0,2.225Z" transform="translate(-42.985 -101.6)" fill="#f9f6f9"/>
      <path id="Path_8536" data-name="Path 8536" d="M53.074,155.584H44.1a1.113,1.113,0,1,1,0-2.225h8.977a1.113,1.113,0,1,1,0,2.225Z" transform="translate(-42.985 -140.327)" fill="#f9f6f9"/>
    </g>
  </g>
</svg>
