<svg id="benefits-2" xmlns="http://www.w3.org/2000/svg" width="71.234" height="71.234" viewBox="0 0 71.234 71.234">
  <g id="Group_6270" data-name="Group 6270" transform="translate(0.53 0)">
    <g id="Group_6269" data-name="Group 6269">
      <path id="Path_8537" data-name="Path 8537" d="M3.806,11.222a11.221,11.221,0,1,1,18.6,8.457.487.487,0,0,0,.072.787l2.114,1.251a.39.39,0,0,1-.2.726l-9.575,0A11.221,11.221,0,0,1,3.806,11.222Z" transform="translate(-3.806 0)" fill="#7acaa6"/>
    </g>
  </g>
  <path id="Path_8538" data-name="Path 8538" d="M80.831,21.716l-2.114-1.251a.486.486,0,0,1-.075-.784A11.221,11.221,0,0,0,71.6,0a11.309,11.309,0,0,0-2.466.2A11.218,11.218,0,0,1,75.9,18.1a2.423,2.423,0,0,0,.655,3.585l.044.026a.39.39,0,0,1-.186.725h4.223A.39.39,0,0,0,80.831,21.716Z" transform="translate(-59.519 0)" fill="#57be92"/>
  <g id="Group_6275" data-name="Group 6275" transform="translate(16.369 0)">
    <g id="Group_6272" data-name="Group 6272" transform="translate(0 0)">
      <path id="Path_8539" data-name="Path 8539" d="M192.743,40.731H167.286a7.507,7.507,0,0,1-5.777-12.3l.226-.272a12.008,12.008,0,0,0,2.768-7.669V15.579a15.579,15.579,0,0,1,31.158,0v5.075a12.008,12.008,0,0,0,2.823,7.735A7.507,7.507,0,0,1,192.743,40.731Z" transform="translate(-153.906 0)" fill="#c59191"/>
      <path id="Path_8540" data-name="Path 8540" d="M169.868,260.1v16.829H117.65v-16.7a9.4,9.4,0,0,1,5.75-8.661l8.43-3.665,2.838-1.234a5.9,5.9,0,0,0,3.546-5.409V240.17H149.3V241.2a5.9,5.9,0,0,0,3.576,5.421l11.4,4.888A9.4,9.4,0,0,1,169.868,260.1Z" transform="translate(-117.65 -206.755)" fill="#fff"/>
      <path id="Path_8541" data-name="Path 8541" d="M216.159,251.917a40.38,40.38,0,0,0,23.859-.224l1.375-3.273-4.186-1.794a5.9,5.9,0,0,1-3.575-5.421v-1.033H222.545v1.089A5.9,5.9,0,0,1,219,246.67l-3.39,1.474Z" transform="translate(-201.979 -206.757)" fill="#ffcebf"/>
      <g id="Group_6271" data-name="Group 6271" transform="translate(0 41.075)">
        <path id="Path_8542" data-name="Path 8542" d="M399.643,298.907l-8.589-3.681h0v29.1h14.18V307.5A9.4,9.4,0,0,0,399.643,298.907Z" transform="translate(-353.015 -295.226)" fill="#8795de"/>
        <path id="Path_8543" data-name="Path 8543" d="M131.83,295.75v29.028H117.65v-16.7a9.4,9.4,0,0,1,5.75-8.661Z" transform="translate(-117.65 -295.677)" fill="#8795de"/>
      </g>
    </g>
    <g id="Group_6274" data-name="Group 6274" transform="translate(10.599)">
      <path id="Path_8544" data-name="Path 8544" d="M271.655,246.258a9.325,9.325,0,0,0,3.6-.718,5.9,5.9,0,0,1-1.9-4.334v-1.033H262.268v1.089a5.887,5.887,0,0,1-.516,2.411,9.322,9.322,0,0,0,6.453,2.585h3.451Z" transform="translate(-252.302 -206.758)" fill="#ffb09e"/>
      <path id="Path_8545" data-name="Path 8545" d="M247.825,82.632V91.8a9.356,9.356,0,0,1-9.356,9.356h-3.451a9.356,9.356,0,0,1-9.356-9.356V82.632a6.087,6.087,0,0,1,6.087-6.087h9.99A6.087,6.087,0,0,1,247.825,82.632Z" transform="translate(-221.233 -65.895)" fill="#ffcebf"/>
      <path id="Path_8546" data-name="Path 8546" d="M338.175,154.593c0,.013-.009.025-.013.038a9.873,9.873,0,0,1-3.371,5.028,9.428,9.428,0,0,1-3.386,1.654,1.059,1.059,0,1,0,.538,2.049,11.538,11.538,0,0,0,4.142-2.026,11.343,11.343,0,0,0,2.084-2.1c0-.082.006-.164.006-.246v-4.4Z" transform="translate(-311.583 -133.085)" fill="#7a6d79"/>
      <path id="Path_8547" data-name="Path 8547" d="M299.938,198.628h-2.482a2.045,2.045,0,1,1,0-4.091h2.482a2.045,2.045,0,1,1,0,4.091Z" transform="translate(-281.278 -167.471)" fill="#685e68"/>
      <g id="Group_6273" data-name="Group 6273">
        <path id="Path_8548" data-name="Path 8548" d="M321.1,21.874c.238-3,3.107-4.986,5.853-6.016a15.57,15.57,0,0,1,7.584,13.372V30.3c-.251.053-.5.1-.748.136a12.613,12.613,0,0,1-3.681,0c-5.671-.755-9.294-4.944-9.007-8.563Z" transform="translate(-303.381 -13.652)" fill="#b98080"/>
        <path id="Path_8549" data-name="Path 8549" d="M209.407,0a15.509,15.509,0,0,1,9.372,3.134,27.788,27.788,0,0,1-9.89,10.053,27.569,27.569,0,0,1-10.495,3.6h-4.566V15.579A15.579,15.579,0,0,1,209.407,0Z" transform="translate(-193.828)" fill="#c59191"/>
      </g>
    </g>
  </g>
  <path id="Path_8550" data-name="Path 8550" d="M209.573,380.764h-33.9l-1.87-17.638a2.118,2.118,0,0,1,2.106-2.341h33.427a2.118,2.118,0,0,1,2.106,2.341Z" transform="translate(-149.612 -310.589)" fill="#efedef"/>
  <path id="Path_8551" data-name="Path 8551" d="M403.062,360.785h-4.236a2.118,2.118,0,0,1,2.106,2.341l-1.87,17.638H403.3l1.87-17.638A2.118,2.118,0,0,0,403.062,360.785Z" transform="translate(-343.337 -310.589)" fill="#e5e1e5"/>
  <g id="Group_6276" data-name="Group 6276" transform="translate(0 69.147)">
    <path id="Path_8552" data-name="Path 8552" d="M70.191,499.087H1.043a1.043,1.043,0,1,1,0-2.087H70.191a1.043,1.043,0,1,1,0,2.087Z" transform="translate(0 -497)" fill="#c9bfc8"/>
  </g>
  <circle id="Ellipse_40" data-name="Ellipse 40" cx="2.965" cy="2.965" r="2.965" transform="translate(40.046 57.221)" fill="#c9bfc8"/>
  <g id="Group_6277" data-name="Group 6277" transform="translate(6.456 10.162)">
    <circle id="Ellipse_41" data-name="Ellipse 41" cx="1.059" cy="1.059" r="1.059" fill="#fff"/>
    <circle id="Ellipse_42" data-name="Ellipse 42" cx="1.059" cy="1.059" r="1.059" transform="translate(4.236)" fill="#fff"/>
    <circle id="Ellipse_43" data-name="Ellipse 43" cx="1.059" cy="1.059" r="1.059" transform="translate(8.472)" fill="#fff"/>
  </g>
</svg>
