<svg xmlns="http://www.w3.org/2000/svg" width="21.524" height="21.523" viewBox="0 0 21.524 21.523">
  <g id="checked" opacity="0.8">
    <g id="Group_2252" data-name="Group 2252" transform="translate(0 0)">
      <path id="Path_8427" data-name="Path 8427" d="M10.762,0A10.762,10.762,0,1,0,21.524,10.762,10.774,10.774,0,0,0,10.762,0Zm6.015,7.93L9.9,14.754a1.058,1.058,0,0,1-1.483.027L4.774,11.463a1.094,1.094,0,0,1-.081-1.51A1.067,1.067,0,0,1,6.2,9.9L9.09,12.542l6.15-6.15A1.087,1.087,0,0,1,16.777,7.93Z" transform="translate(0 0)"/>
    </g>
  </g>
</svg>
