<svg id="envelope" xmlns="http://www.w3.org/2000/svg" width="30.852" height="24.241" viewBox="0 0 30.852 24.241">
  <g id="Group_193" data-name="Group 193" transform="translate(0 0)">
    <path id="Path_8517" data-name="Path 8517" d="M2.961,62.292q.585.413,3.529,2.453T11,67.887q.172.121.732.525t.93.654q.37.249.9.559a5.2,5.2,0,0,0,.99.464,2.728,2.728,0,0,0,.861.155h.035a2.73,2.73,0,0,0,.861-.155,5.2,5.2,0,0,0,.99-.464q.525-.31.9-.559t.93-.654q.559-.4.732-.525,1.584-1.1,8.057-5.6a8.179,8.179,0,0,0,2.1-2.118,4.547,4.547,0,0,0,.844-2.6A2.778,2.778,0,0,0,28.1,54.82H2.755a2.459,2.459,0,0,0-2.04.9A3.475,3.475,0,0,0,0,57.953,4.021,4.021,0,0,0,.947,60.3,8.546,8.546,0,0,0,2.961,62.292Z" transform="translate(0 -54.82)" fill="#3e3d53"/>
    <path id="Path_8518" data-name="Path 8518" d="M29.13,185.935q-5.646,3.822-8.574,5.94-.981.723-1.593,1.128a9.828,9.828,0,0,1-1.627.826,4.954,4.954,0,0,1-1.894.422h-.035a4.956,4.956,0,0,1-1.894-.422A9.833,9.833,0,0,1,11.888,193q-.611-.4-1.592-1.128-2.324-1.7-8.557-5.94A9.119,9.119,0,0,1,0,184.437v13.67a2.652,2.652,0,0,0,.809,1.946,2.652,2.652,0,0,0,1.946.809H28.1a2.763,2.763,0,0,0,2.755-2.755v-13.67A9.5,9.5,0,0,1,29.13,185.935Z" transform="translate(0 -176.621)" fill="#3e3d53"/>
  </g>
</svg>
